<svg width="33" height="32" viewBox="0 0 33 32" fill="none" xmlns="http://www.w3.org/2000/svg">
<path d="M31.8125 1.56251L25.3125 0.0625062C24.625 -0.124994 23.875 0.250006 23.5625 0.937506L20.5625 7.93751C20.3125 8.56251 20.5 9.25001 21 9.68751L24.8125 12.8125C22.5625 17.5625 18.625 21.5625 13.75 23.875L10.625 20.0625C10.1875 19.5625 9.49999 19.375 8.87499 19.625L1.87499 22.625C1.18749 22.9375 0.874993 23.6875 0.999993 24.375L2.49999 30.875C2.68749 31.5625 3.24999 32 3.99999 32C20 32 33 19.0625 33 3.00001C33 2.31251 32.5 1.75001 31.8125 1.56251Z" fill="#044DBA"/>
</svg>
