<svg width="68" height="60" viewBox="0 0 68 60" fill="none" xmlns="http://www.w3.org/2000/svg">
<path d="M25.7244 17.9109C25.9148 17.5748 26.2153 17.2968 26.5868 17.1132C26.9584 16.9295 27.3839 16.8486 27.8082 16.8809C28.2325 16.9133 28.6361 17.0574 28.9664 17.2945C29.2968 17.5317 29.5388 17.851 29.661 18.2109L34.4954 32.4328L38.4798 25.4109C38.6563 25.0995 38.9276 24.8377 39.2632 24.6546C39.5989 24.4716 39.9857 24.3747 40.3803 24.3747C40.7749 24.3747 41.1617 24.4716 41.4974 24.6546C41.8331 24.8377 42.1043 25.0995 42.2809 25.4109L45.9385 31.875H58.7895C60.7028 28.3945 61.6735 24.5693 61.625 20.7012C61.5413 13.4227 54.9233 7.5 46.8722 7.5C40.4852 7.5 36.2472 10.9617 34 13.4766C31.7581 10.9582 27.5148 7.5 21.1278 7.5C13.0767 7.5 6.45866 13.4227 6.37499 20.7012C6.34065 23.2146 6.74058 25.7179 7.56101 28.125H19.9365L25.7244 17.9109Z" fill="black"/>
<path d="M42.7244 34.589L40.375 30.4429L35.9005 38.339C35.724 38.6503 35.4527 38.9122 35.117 39.0951C34.7813 39.2781 34.3945 39.375 34 39.375C33.9407 39.375 33.8796 39.3726 33.8167 39.3679C33.3914 39.3368 32.9865 39.1934 32.6549 38.9563C32.3232 38.7193 32.0802 38.3997 31.9573 38.039L27.123 23.8171L23.1386 30.839C22.9629 31.1488 22.6935 31.4095 22.3601 31.5924C22.0268 31.7752 21.6425 31.873 21.25 31.875H9.21054C10.4501 34.1632 12.1001 36.4156 14.1605 38.632C16.6534 41.3132 21.173 45.6 31.6107 51.8519C32.3146 52.2776 33.148 52.5054 34.0013 52.5054C34.8547 52.5054 35.688 52.2776 36.3919 51.8519C46.8297 45.6 51.3493 41.3132 53.8422 38.632C54.7401 37.6677 55.5823 36.6641 56.3656 35.625H44.625C44.2304 35.625 43.8437 35.5281 43.508 35.3451C43.1723 35.1622 42.901 34.9003 42.7244 34.589Z" fill="black"/>
<path d="M61.625 31.875H58.7895C58.083 33.174 57.273 34.4271 56.3656 35.625H61.625C62.1886 35.625 62.7291 35.4275 63.1276 35.0758C63.5261 34.7242 63.75 34.2473 63.75 33.75C63.75 33.2527 63.5261 32.7758 63.1276 32.4242C62.7291 32.0725 62.1886 31.875 61.625 31.875Z" fill="black"/>
<path d="M6.375 28.125C5.81141 28.125 5.27091 28.3225 4.8724 28.6742C4.47388 29.0258 4.25 29.5027 4.25 30C4.25 30.4973 4.47388 30.9742 4.8724 31.3258C5.27091 31.6775 5.81141 31.875 6.375 31.875H9.21055C8.55339 30.6638 8.00194 29.4102 7.56102 28.125H6.375Z" fill="black"/>
</svg>
