<svg width="63" height="58" viewBox="0 0 63 58" fill="none" xmlns="http://www.w3.org/2000/svg">
<g filter="url(#filter0_d_68_2)">
<g clip-path="url(#clip0_68_2)">
<path d="M11.7757 23.7666C11.7757 28.6334 11.0215 32.5786 10.0911 32.5786C9.8585 32.5786 9.48438 32.5464 9.28284 32.1005C8.67823 30.7628 8.40649 27.4165 8.40649 23.7664C8.40649 20.5087 8.66822 17.1272 9.17075 15.6025C9.41895 14.8494 9.7835 14.9547 10.0911 14.9547C11.0215 14.9547 11.7757 18.8999 11.7757 23.7663" fill="black"/>
<path d="M11.7681 23.7665C11.7681 23.7665 11.7667 23.5934 11.7641 23.2686C11.7592 22.944 11.751 22.4671 11.7214 21.8667C11.7072 21.5665 11.6881 21.2353 11.6596 20.8794C11.632 20.5233 11.5983 20.1406 11.5534 19.7399C11.4648 18.9399 11.3363 18.0553 11.1385 17.2025C11.0397 16.7776 10.9225 16.3626 10.7803 16.0056C10.7084 15.831 10.6315 15.6679 10.5478 15.5335C10.4639 15.4001 10.3729 15.3 10.2781 15.2417C10.2541 15.2236 10.2312 15.2157 10.2083 15.2074L10.1737 15.1936L10.1335 15.189L10.0932 15.1845L10.056 15.1841L9.97414 15.1831C9.86604 15.1811 9.75861 15.1763 9.65519 15.2126C9.55145 15.2452 9.45227 15.3216 9.36538 15.4581C9.34514 15.4957 9.32153 15.5315 9.30447 15.5728L9.27691 15.6321L9.24607 15.7144L9.23054 15.7563C9.23054 15.7562 9.22506 15.7714 9.22962 15.7586L9.22629 15.7696L9.21973 15.7913L9.19335 15.8788L9.14053 16.0547C9.00744 16.5497 8.90425 17.1319 8.82014 17.7427C8.73592 18.355 8.67188 19.0007 8.61896 19.6594C8.56619 20.3184 8.52833 20.9941 8.50098 21.6757C8.47239 22.3593 8.45441 23.041 8.44877 23.7381C8.44498 24.426 8.44975 25.12 8.46552 25.807C8.48381 26.4942 8.51517 27.1758 8.56225 27.8431C8.58433 28.1778 8.61522 28.5055 8.64652 28.8304C8.66414 28.9913 8.68166 29.1517 8.69918 29.3118C8.72003 29.4683 8.74089 29.6243 8.76163 29.78C8.8499 30.3943 8.96333 30.9764 9.11062 31.4562L9.16728 31.6253C9.18618 31.6815 9.2035 31.739 9.22681 31.7897L9.29218 31.946L9.30847 31.9852C9.31021 31.9888 9.3161 32.0042 9.31441 31.9983L9.32245 32.0133C9.33331 32.0327 9.34325 32.0548 9.35473 32.0721C9.44469 32.2165 9.55049 32.2925 9.65621 32.3363C9.7623 32.3815 9.87004 32.3938 9.97686 32.3961C10.0861 32.4016 10.1851 32.3935 10.2809 32.3268C10.3767 32.262 10.4684 32.1603 10.5524 32.0229C10.6364 31.885 10.7132 31.719 10.7851 31.5422C10.9269 31.1808 11.0434 30.7629 11.1417 30.3363C11.3385 29.4804 11.4666 28.5953 11.5548 27.7944C11.5996 27.3937 11.6334 27.0109 11.6609 26.6546C11.6894 26.2986 11.7083 25.9672 11.7225 25.6668C11.752 25.0664 11.7597 24.5892 11.7644 24.2652C11.7668 23.9398 11.7681 23.7666 11.7681 23.7666L11.7681 23.7665ZM11.7834 23.7669C11.7834 23.7669 11.7827 23.9406 11.7814 24.266C11.7777 24.5921 11.7703 25.0697 11.7492 25.6758C11.7249 26.2801 11.6937 27.0181 11.6189 27.8448C11.5443 28.6688 11.4382 29.5983 11.2453 30.5175C11.1978 30.7476 11.1427 30.9728 11.0828 31.1952C11.0204 31.4125 10.9535 31.6278 10.8769 31.8263C10.7247 32.22 10.5339 32.562 10.3105 32.6966C10.1993 32.7665 10.0816 32.7667 9.97368 32.7535C9.86307 32.7399 9.75032 32.7117 9.637 32.6496C9.52414 32.5877 9.40846 32.4935 9.30319 32.3073C9.28997 32.2851 9.27772 32.2563 9.26497 32.2311L9.25554 32.2113C9.24786 32.1947 9.24893 32.195 9.24514 32.186L9.22947 32.145L9.16666 31.9804C9.14514 31.9293 9.12578 31.8619 9.106 31.798L9.04693 31.605C8.89913 31.0783 8.79601 30.4657 8.71041 29.8359C8.62624 29.2029 8.56466 28.5419 8.51635 27.8694C8.42065 26.5226 8.37485 25.1323 8.36466 23.7349C8.35989 23.0432 8.36758 22.3368 8.38648 21.6442C8.40738 20.95 8.43915 20.2598 8.48648 19.5813C8.53433 18.9032 8.59811 18.2376 8.68162 17.5959C8.76584 16.9558 8.87026 16.3362 9.01355 15.7847C9.03224 15.7173 9.05202 15.652 9.07123 15.5858L9.10023 15.4871L9.1075 15.4625L9.11114 15.4501L9.11775 15.4311L9.13301 15.3884L9.16401 15.3029L9.20346 15.212C9.23009 15.1496 9.25704 15.1086 9.2843 15.059C9.39603 14.8819 9.51846 14.7921 9.63563 14.7545C9.75336 14.7134 9.86698 14.7177 9.97621 14.7209L10.057 14.7248L10.1008 14.7271L10.1412 14.7332L10.1813 14.7392L10.2262 14.7568C10.2562 14.768 10.2859 14.7807 10.3132 14.8021C10.5387 14.9465 10.7296 15.2945 10.8816 15.6928C10.958 15.8934 11.0247 16.1106 11.0867 16.3294C11.1462 16.5534 11.2013 16.7794 11.2485 17.0106C11.4404 17.9327 11.5461 18.863 11.6203 19.6874C11.6951 20.5149 11.7262 21.2528 11.7502 21.8573C11.7712 22.4637 11.7783 22.9413 11.7818 23.2672C11.7829 23.5931 11.7834 23.7671 11.7834 23.7671" fill="white" fill-opacity="0.5"/>
<path d="M13.7317 23.7674C13.7317 30.3051 12.7185 35.6055 11.4686 35.6055C11.1562 35.6055 10.6536 35.5624 10.3828 34.9633C9.57058 33.1665 9.20557 28.6711 9.20557 23.7676C9.20557 19.3912 9.55716 14.8488 10.2323 12.8001C10.5657 11.7883 11.0555 11.9299 11.4686 11.9299C12.7185 11.9299 13.7317 17.2298 13.7317 23.7675" fill="black"/>
<path d="M13.724 23.7674C13.724 23.7674 13.7223 23.5347 13.719 23.0981C13.7127 22.6619 13.702 22.0213 13.6637 21.2136C13.645 20.8099 13.6203 20.3642 13.5834 19.885C13.5476 19.4052 13.5034 18.8894 13.4444 18.3491C13.3279 17.27 13.1592 16.074 12.8945 14.9165C12.7624 14.3394 12.6045 13.7754 12.4119 13.2878C12.3144 13.0487 12.2097 12.826 12.0953 12.6416C11.9808 12.4587 11.8562 12.3205 11.7258 12.2396C11.693 12.2147 11.661 12.2033 11.629 12.1918L11.5809 12.1725L11.5269 12.1661L11.4727 12.1596L11.4216 12.1588C11.3851 12.1582 11.3485 12.1576 11.3119 12.1571C11.1664 12.1542 11.021 12.1478 10.8796 12.1976C10.738 12.2421 10.6007 12.3469 10.4797 12.5373C10.4647 12.5616 10.4506 12.5897 10.4359 12.6155C10.4209 12.6413 10.4067 12.6681 10.3945 12.698L10.3554 12.7829C10.3418 12.8175 10.3278 12.8572 10.314 12.8941L10.2932 12.9506C10.2927 12.9517 10.2867 12.9681 10.2909 12.9566L10.2864 12.9715L10.2775 13.0014L10.2416 13.1207C10.2178 13.2007 10.1932 13.279 10.1698 13.3608C9.98926 14.0355 9.85038 14.8241 9.73736 15.6498C9.62435 16.4772 9.53833 17.3481 9.46815 18.2362C9.39817 19.1251 9.34837 20.035 9.31272 20.953C9.27598 21.873 9.2536 22.793 9.24781 23.7284C9.24422 24.6547 9.25221 25.5871 9.27496 26.5107C9.30191 27.4341 9.34509 28.3499 9.40718 29.2481C9.43664 29.6982 9.47793 30.1391 9.51989 30.5764C9.54346 30.7929 9.56697 31.0088 9.59038 31.2241C9.61825 31.4352 9.64602 31.6455 9.67373 31.8552C9.79187 32.6831 9.94248 33.4705 10.1404 34.1231L10.2169 34.3544C10.2424 34.4311 10.2661 34.5102 10.297 34.5783L10.3845 34.7897L10.4063 34.8425C10.409 34.8484 10.4156 34.8664 10.415 34.8625L10.426 34.8834C10.441 34.9103 10.4547 34.9412 10.4704 34.9651C10.5939 35.1666 10.7377 35.2717 10.881 35.3337C11.0248 35.3974 11.1704 35.4165 11.3145 35.4216C11.461 35.4302 11.5973 35.4207 11.7286 35.3306C11.8598 35.2434 11.9853 35.1035 12.1 34.9167C12.2146 34.7289 12.3192 34.5029 12.4166 34.262C12.6089 33.77 12.766 33.2031 12.8977 32.6243C13.1614 31.4636 13.3297 30.2671 13.4459 29.1873C13.5048 28.6466 13.5488 28.1308 13.5846 27.651C13.6215 27.1716 13.6461 26.7257 13.6647 26.3219C13.7029 25.514 13.7133 24.8733 13.7193 24.4374C13.7224 24.0004 13.724 23.7675 13.724 23.7675L13.724 23.7674ZM13.7394 23.7678C13.7394 23.7678 13.7383 24.0011 13.7364 24.4383C13.7313 24.8759 13.7212 25.5176 13.6915 26.3309C13.6582 27.1421 13.6128 28.1309 13.51 29.2377C13.4075 30.3405 13.2611 31.5817 13.0013 32.8055C12.9374 33.1122 12.8631 33.4113 12.7831 33.7074C12.6997 33.9965 12.6104 34.2829 12.5084 34.5461C12.4063 34.8085 12.2931 35.0494 12.1681 35.2525C12.0428 35.4531 11.9047 35.6115 11.7581 35.7006C11.6115 35.7938 11.4565 35.7954 11.3113 35.779C11.1634 35.7627 11.0128 35.7275 10.8617 35.6471C10.7863 35.6074 10.7106 35.5566 10.6361 35.4842C10.5618 35.4117 10.4874 35.3262 10.4188 35.2006C10.4014 35.1715 10.3853 35.1341 10.3685 35.1011L10.3561 35.0755C10.3474 35.057 10.3476 35.0547 10.3429 35.0433L10.3218 34.9888L10.2369 34.769C10.2077 34.7006 10.1821 34.6116 10.1556 34.527L10.0767 34.2718C9.87827 33.5723 9.73795 32.7548 9.62248 31.9113C9.50829 31.064 9.42607 30.1765 9.36054 29.2747C9.29487 28.3725 9.24814 27.4524 9.21776 26.5247C9.18636 25.5966 9.16894 24.664 9.16367 23.7252C9.15911 22.7952 9.17109 21.8504 9.1982 20.9215C9.22745 19.991 9.2711 19.0663 9.33564 18.1581C9.40081 17.2506 9.48652 16.3597 9.59887 15.5027C9.71193 14.6479 9.852 13.8219 10.0428 13.0908C10.0676 13.0016 10.0939 12.9151 10.1194 12.8275L10.1579 12.6968L10.1676 12.6642L10.1724 12.6479L10.1803 12.6251L10.2009 12.5681L10.2425 12.4538L10.2935 12.337C10.3105 12.2965 10.328 12.2634 10.3456 12.2325C10.3633 12.201 10.3805 12.1675 10.3986 12.1381C10.5445 11.9071 10.7049 11.7889 10.86 11.7392C11.0157 11.6848 11.1673 11.6907 11.3139 11.6946C11.3503 11.6962 11.3865 11.6978 11.4227 11.6994L11.4496 11.7003L11.463 11.7006L11.4804 11.7023L11.5344 11.7101L11.5884 11.718L11.6469 11.7409C11.6861 11.7558 11.7249 11.7718 11.7609 11.8C11.9083 11.8954 12.0473 12.0554 12.1728 12.2602C12.298 12.4665 12.411 12.7107 12.5131 12.9749C12.6149 13.2402 12.704 13.5285 12.787 13.8192C12.8667 14.1167 12.9408 14.4168 13.0045 14.7245C13.2632 15.9515 13.4092 17.193 13.5114 18.2967C13.6141 19.4039 13.6595 20.3928 13.6925 21.2042C13.7222 22.0177 13.7318 22.6595 13.7367 23.0968C13.7385 23.5344 13.7394 23.7679 13.7394 23.7679" fill="#E6E6E6" fill-opacity="0.5"/>
<path d="M14.5148 23.7643C14.5148 30.3019 13.5016 35.6023 12.2517 35.6023C11.9393 35.6023 11.4366 35.5592 11.1659 34.9602C10.3537 33.1633 9.98865 28.6679 9.98865 23.7645C9.98865 19.3881 10.3402 14.8457 11.0154 12.797C11.3488 11.7852 11.8386 11.9267 12.2517 11.9267C13.5016 11.9267 14.5148 17.2267 14.5148 23.7643" fill="black"/>
<path d="M14.5071 23.7639C14.5071 23.7639 14.5053 23.5311 14.5021 23.0945C14.4958 22.6584 14.4851 22.0177 14.4467 21.21C14.4281 20.8063 14.4034 20.3607 14.3665 19.8814C14.3307 19.4016 14.2865 18.8859 14.2275 18.3456C14.111 17.2664 13.9423 16.0704 13.6776 14.9129C13.5455 14.3358 13.3876 13.7718 13.1949 13.2842C13.0975 13.0451 12.9928 12.8224 12.8784 12.6381C12.7639 12.4552 12.6392 12.317 12.5089 12.2361C12.4761 12.2112 12.4441 12.1998 12.4121 12.1882L12.3639 12.1689L12.31 12.1626L12.2558 12.1561L12.2047 12.1552C12.1682 12.1547 12.1316 12.1541 12.0949 12.1535C11.9495 12.1506 11.8041 12.1443 11.6627 12.194C11.5211 12.2385 11.3838 12.3433 11.2628 12.5337C11.2477 12.5581 11.2337 12.5862 11.219 12.612C11.204 12.6378 11.1898 12.6646 11.1776 12.6944L11.1385 12.7793C11.1249 12.8139 11.1109 12.8537 11.097 12.8906L11.0762 12.9471C11.0758 12.9481 11.0698 12.9645 11.074 12.953L11.0695 12.968L11.0606 12.9978L11.0246 13.1172C11.0009 13.1972 10.9762 13.2754 10.9529 13.3573C10.7723 14.032 10.6335 14.8206 10.5204 15.6463C10.4074 16.4737 10.3214 17.3446 10.2512 18.2327C10.1813 19.1216 10.1315 20.0315 10.0958 20.9494C10.0591 21.8694 10.0367 22.7894 10.0309 23.7248C10.0273 24.6512 10.0353 25.5835 10.058 26.5072C10.085 27.4305 10.1282 28.3463 10.1903 29.2445C10.2197 29.6946 10.261 30.1356 10.303 30.5729C10.3265 30.7894 10.3501 31.0053 10.3735 31.2206C10.4013 31.4316 10.4291 31.6419 10.4568 31.8516C10.5749 32.6795 10.7256 33.4669 10.9235 34.1195L11 34.3509C11.0255 34.4276 11.0492 34.5067 11.0801 34.5747L11.1676 34.7862L11.1893 34.8389C11.1921 34.8448 11.1987 34.8628 11.1981 34.8589L11.2091 34.8798C11.2241 34.9068 11.2378 34.9376 11.2535 34.9616C11.377 35.1631 11.5208 35.2681 11.6641 35.3301C11.8078 35.3938 11.9534 35.413 12.0975 35.418C12.2441 35.4267 12.3803 35.4172 12.5117 35.3271C12.6429 35.2399 12.7683 35.0999 12.883 34.9131C12.9977 34.7253 13.1023 34.4994 13.1996 34.2585C13.392 33.7664 13.5491 33.1996 13.6807 32.6207C13.9445 31.46 14.1128 30.2636 14.229 29.1837C14.2879 28.6431 14.3319 28.1272 14.3677 27.6474C14.4046 27.168 14.4292 26.7221 14.4478 26.3184C14.486 25.5105 14.4964 24.8697 14.5024 24.4339C14.5054 23.9969 14.5071 23.764 14.5071 23.764L14.5071 23.7639ZM14.5225 23.7643C14.5225 23.7643 14.5214 23.9976 14.5194 24.4348C14.5144 24.8724 14.5043 25.514 14.4746 26.3274C14.4413 27.1385 14.3959 28.1273 14.293 29.2341C14.1905 30.337 14.0442 31.5781 13.7844 32.802C13.7204 33.1087 13.6462 33.4078 13.5661 33.7038C13.4827 33.9929 13.3934 34.2793 13.2914 34.5425C13.1894 34.805 13.0762 35.0458 12.9512 35.2489C12.8259 35.4496 12.6878 35.608 12.5412 35.697C12.3946 35.7903 12.2396 35.7919 12.0944 35.7754C11.9465 35.7591 11.7958 35.724 11.6448 35.6435C11.5694 35.6039 11.4937 35.553 11.4191 35.4807C11.3449 35.4082 11.2705 35.3227 11.2019 35.197C11.1845 35.1679 11.1684 35.1306 11.1516 35.0976L11.1392 35.0719C11.1305 35.0535 11.1307 35.0512 11.126 35.0398L11.1049 34.9853L11.02 34.7655C10.9908 34.697 10.9651 34.6081 10.9387 34.5235L10.8598 34.2682C10.6614 33.5687 10.521 32.7513 10.4056 31.9078C10.2914 31.0604 10.2091 30.173 10.1436 29.2712C10.0779 28.3689 10.0312 27.4489 10.0008 26.5211C9.96944 25.5931 9.95202 24.6605 9.94675 23.7216C9.94219 22.7917 9.95418 21.8469 9.98128 20.918C10.0105 19.9875 10.0542 19.0627 10.1187 18.1545C10.1839 17.2471 10.2696 16.3562 10.3819 15.4992C10.495 14.6443 10.6351 13.8183 10.8259 13.0873C10.8507 12.9981 10.877 12.9116 10.9025 12.824L10.941 12.6932L10.9507 12.6607L10.9555 12.6444L10.9634 12.6216L10.984 12.5645L11.0256 12.4502L11.0766 12.3335C11.0935 12.293 11.1111 12.2598 11.1287 12.229C11.1464 12.1974 11.1636 12.164 11.1817 12.1346C11.3276 11.9035 11.488 11.7853 11.6431 11.7356C11.7988 11.6813 11.9504 11.6872 12.097 11.6911C12.1334 11.6927 12.1696 11.6943 12.2057 11.6959L12.2326 11.6967L12.2461 11.697L12.2634 11.6988L12.3175 11.7065L12.3715 11.7145L12.43 11.7374C12.4692 11.7522 12.5079 11.7682 12.544 11.7965C12.6914 11.8919 12.8304 12.0519 12.9559 12.2567C13.0811 12.463 13.1941 12.7071 13.2962 12.9713C13.398 13.2367 13.4871 13.5249 13.5701 13.8156C13.6498 14.1131 13.7239 14.4132 13.7876 14.7209C14.0463 15.948 14.1923 17.1895 14.2945 18.2931C14.3971 19.4003 14.4425 20.3892 14.4756 21.2007C14.5052 22.0142 14.5149 22.656 14.5198 23.0933C14.5215 23.5309 14.5225 23.7644 14.5225 23.7644" fill="#E6E6E6" fill-opacity="0.5"/>
<path d="M14.4456 23.7643C14.4456 30.302 13.597 35.6023 12.5502 35.6023C11.5034 35.6023 10.7572 30.3023 10.7572 23.7643C10.7572 17.2262 11.5034 11.9266 12.5502 11.9266C13.597 11.9266 14.4456 17.2266 14.4456 23.7643" fill="black"/>
<path d="M14.4381 23.764C14.4381 23.764 14.4368 23.5469 14.4342 23.1399C14.4288 22.7332 14.4219 22.1354 14.3927 21.38C14.3658 20.6244 14.3123 19.7123 14.2272 18.685C14.1385 17.6616 14.0131 16.5186 13.8136 15.3612C13.7881 15.2175 13.7633 15.0711 13.7347 14.929C13.7208 14.8573 13.7068 14.7853 13.6927 14.7129C13.6778 14.6421 13.6628 14.5711 13.6477 14.4996C13.6188 14.3544 13.5844 14.2182 13.5523 14.0758C13.517 13.9405 13.4841 13.7974 13.4451 13.6672C13.3709 13.3983 13.2872 13.1453 13.1947 12.9186C13.1021 12.6926 12.9993 12.4949 12.8866 12.3582C12.8579 12.329 12.8299 12.2918 12.8005 12.2679C12.7712 12.2475 12.7411 12.217 12.7124 12.2039L12.6694 12.184C12.6552 12.1768 12.6414 12.1684 12.6234 12.168L12.5726 12.1608L12.5471 12.1572C12.5542 12.1573 12.5458 12.1579 12.5458 12.1582L12.5401 12.1592L12.5285 12.1613C12.4052 12.1711 12.2822 12.266 12.1685 12.4339C11.9396 12.7719 11.7527 13.3658 11.6002 14.0255C11.5244 14.359 11.4562 14.7123 11.3943 15.0787C11.3342 15.4478 11.278 15.8266 11.2293 16.2169C11.1303 16.9959 11.0554 17.8114 10.9928 18.6411C10.9314 19.4718 10.8867 20.3205 10.8557 21.177C10.8232 22.0349 10.8047 22.8954 10.7993 23.7642C10.795 24.6303 10.8037 25.4974 10.827 26.3586C10.8531 27.2189 10.8929 28.0729 10.9497 28.911C10.9789 29.3297 11.0123 29.7444 11.052 30.1519C11.09 30.5608 11.1351 30.9619 11.1853 31.3545C11.2352 31.7476 11.2921 32.1302 11.3549 32.5008C11.4191 32.8693 11.4897 33.2249 11.5679 33.5608C11.725 34.2256 11.9195 34.8228 12.1567 35.1582C12.1715 35.1785 12.1859 35.2011 12.2009 35.2195L12.2467 35.2686C12.2766 35.3054 12.308 35.3276 12.3392 35.35C12.3704 35.3783 12.4007 35.3851 12.4309 35.3996C12.4591 35.4179 12.4968 35.4124 12.5298 35.4197C12.6526 35.4266 12.7794 35.347 12.8917 35.2029C13.1193 34.9132 13.3021 34.4087 13.4507 33.873C13.4895 33.742 13.5222 33.598 13.5574 33.4618C13.5892 33.3185 13.6235 33.1816 13.6521 33.0357C13.6671 32.9641 13.682 32.8927 13.6968 32.8217C13.7108 32.749 13.7247 32.6768 13.7386 32.605C13.767 32.4624 13.7917 32.3155 13.817 32.1713C14.0153 31.0114 14.1403 29.8681 14.2286 28.844C14.3136 27.8165 14.367 26.9044 14.3938 26.1485C14.4228 25.3928 14.4293 24.7951 14.4346 24.3886C14.4368 23.9813 14.4381 23.7639 14.4381 23.7639L14.4381 23.764ZM14.4534 23.7642C14.4534 23.7642 14.4528 23.9817 14.4516 24.3893C14.4473 24.7974 14.4411 25.3955 14.4206 26.1554C14.3977 26.9143 14.3647 27.8371 14.2937 28.8835C14.2197 29.9259 14.1179 31.1039 13.9277 32.3155C13.8316 32.9186 13.7156 33.5338 13.5587 34.1076C13.4823 34.398 13.3924 34.671 13.2913 34.9204C13.1901 35.1681 13.0759 35.3938 12.9457 35.5502C12.8152 35.7073 12.6726 35.7935 12.5227 35.7767C12.4879 35.7677 12.4567 35.7702 12.4177 35.7461C12.3804 35.7264 12.3421 35.7111 12.3078 35.6766C12.2725 35.6474 12.2372 35.6181 12.2038 35.5739L12.153 35.5132C12.1365 35.4909 12.1206 35.4645 12.1045 35.4403C11.9752 35.2427 11.8615 34.975 11.7616 34.6745C11.662 34.3728 11.5742 34.0399 11.4981 33.6857C11.4219 33.3318 11.3546 32.9612 11.2942 32.5797C11.2361 32.1957 11.1806 31.806 11.1334 31.4056C11.038 30.6058 10.9639 29.7785 10.9031 28.937C10.8427 28.0956 10.7994 27.2377 10.7698 26.3731C10.7379 25.509 10.7198 24.6371 10.7152 23.7643C10.7101 22.894 10.7183 22.0153 10.7411 21.1481C10.7657 20.2794 10.8042 19.4164 10.86 18.5673C10.9174 17.7194 10.9918 16.885 11.0895 16.0798C11.1378 15.6767 11.194 15.2829 11.2548 14.8974C11.3175 14.5138 11.3872 14.1411 11.4658 13.7848C11.6237 13.0787 11.8253 12.423 12.0926 12.0244C12.2254 11.8278 12.3747 11.709 12.524 11.6989L12.5379 11.6971L12.5449 11.696C12.5492 11.6962 12.5451 11.6946 12.5564 11.696L12.5818 11.7004L12.6325 11.7092C12.6486 11.7097 12.668 11.7194 12.687 11.7285L12.7437 11.7559C12.7813 11.775 12.8146 11.8095 12.85 11.836C12.8846 11.8658 12.9172 11.9089 12.9507 11.9451C13.0816 12.1085 13.1964 12.3361 13.2976 12.5879C13.3986 12.8407 13.488 13.1165 13.5642 13.4086C13.7205 13.9863 13.8355 14.6039 13.9311 15.2083C14.1202 16.4226 14.2215 17.6009 14.2951 18.6439C14.3659 19.6905 14.399 20.6134 14.4216 21.3725C14.4421 22.1327 14.4479 22.7308 14.452 23.1386C14.4529 23.5466 14.4534 23.7642 14.4534 23.7642" fill="#E6E6E6" fill-opacity="0.5"/>
<path d="M13.4032 23.7643C13.4032 26.7064 13.0213 29.0914 12.5503 29.0914C12.0791 29.0914 11.7997 26.7064 11.7997 23.7643C11.7997 20.8222 12.0791 18.4373 12.5503 18.4373C13.0213 18.4373 13.4032 20.8222 13.4032 23.7643Z" fill="black"/>
<path d="M13.3955 23.7639C13.3955 23.7639 13.3946 23.6669 13.3932 23.4849C13.3902 23.3031 13.387 23.0357 13.3715 22.6988C13.3576 22.3618 13.331 21.9552 13.2873 21.5013C13.243 21.0488 13.1811 20.5462 13.0894 20.0428C13.0428 19.7931 12.9904 19.5397 12.9253 19.3101C12.86 19.0844 12.7835 18.8686 12.6921 18.7551C12.6694 18.7275 12.6462 18.7054 12.6227 18.6899L12.5912 18.6744C12.5778 18.6713 12.5614 18.6703 12.5465 18.6682C12.5445 18.6678 12.5535 18.6688 12.5487 18.6687L12.5464 18.6692L12.542 18.6702L12.5329 18.6718L12.5149 18.6744C12.5032 18.6812 12.4912 18.685 12.4794 18.6926C12.456 18.7102 12.4327 18.7329 12.4103 18.7657C12.3198 18.8955 12.2425 19.148 12.1795 19.4365C12.0534 20.0226 11.9823 20.7479 11.931 21.4827C11.9054 21.8523 11.8863 22.2299 11.8725 22.6113C11.8571 22.9941 11.8469 23.3744 11.8417 23.765C11.8373 24.1494 11.8376 24.5381 11.8437 24.923C11.8512 25.308 11.865 25.6906 11.8874 26.0664C11.9334 26.8127 12.0093 27.5508 12.1466 28.1463C12.2141 28.4407 12.2993 28.6984 12.3987 28.8264C12.4973 28.9552 12.6065 28.9339 12.6974 28.8055C12.7903 28.6806 12.8661 28.4595 12.9308 28.2298C12.9952 27.9961 13.0468 27.7407 13.0927 27.4896C13.1834 26.9836 13.2448 26.4807 13.2887 26.0276C13.3322 25.5734 13.3589 25.1665 13.3725 24.8295C13.3879 24.4924 13.3907 24.2249 13.3934 24.0433C13.3947 23.861 13.3954 23.7638 13.3954 23.7638L13.3955 23.7639ZM13.4108 23.7641C13.4108 23.7641 13.4132 24.1536 13.3993 24.8363C13.3911 25.1775 13.3791 25.592 13.3531 26.0665C13.3249 26.5385 13.2857 27.0753 13.2036 27.6327C13.1625 27.9107 13.1102 28.193 13.0396 28.462C13.005 28.5978 12.9633 28.7252 12.9167 28.8442C12.8698 28.962 12.8165 29.0725 12.7542 29.1492C12.6924 29.2264 12.6223 29.273 12.5513 29.2695L12.5447 29.2688L12.5418 29.2682L12.5361 29.2671L12.5247 29.2639L12.5015 29.2573C12.4829 29.2472 12.4634 29.2381 12.4457 29.2244C12.4114 29.1959 12.3782 29.1584 12.3474 29.1097C12.2234 28.9124 12.1388 28.5947 12.0754 28.2648C12.0116 27.9314 11.9681 27.5724 11.9302 27.2082C11.894 26.8422 11.8646 26.4683 11.8412 26.0884C11.8181 25.7085 11.8001 25.3232 11.7866 24.9352C11.7717 24.5469 11.7621 24.157 11.7576 23.763C11.7525 23.3752 11.7522 22.9769 11.7577 22.5867C11.765 22.195 11.7778 21.8046 11.7975 21.4187C11.8181 21.0328 11.8472 20.6523 11.8858 20.2811C11.9249 19.9102 11.9739 19.5474 12.0424 19.2086C12.1105 18.8726 12.2029 18.5497 12.3358 18.3543C12.3688 18.3061 12.4042 18.2698 12.4405 18.2432C12.4587 18.2308 12.4774 18.2237 12.4958 18.2146L12.5235 18.2093L12.5375 18.2071L12.5444 18.2063L12.5479 18.2058C12.5449 18.2057 12.5559 18.2063 12.5557 18.2063L12.602 18.2159C12.6214 18.2247 12.6416 18.2331 12.6598 18.2453C12.6948 18.2706 12.7281 18.3049 12.7596 18.3462C12.8851 18.518 12.9749 18.7847 13.0451 19.0542C13.1151 19.3269 13.1664 19.6115 13.2071 19.891C13.288 20.451 13.3267 20.988 13.3546 21.4608C13.3804 21.9354 13.3924 22.35 13.4004 22.6914C13.4138 23.3742 13.4108 23.7641 13.4108 23.7641" fill="#E6E6E6" fill-opacity="0.5"/>
<path d="M38.8895 23.7666C38.8895 28.6334 39.6437 32.5786 40.5741 32.5786C40.8067 32.5786 41.1808 32.5464 41.3824 32.1005C41.987 30.7628 42.2587 27.4165 42.2587 23.7664C42.2587 20.5087 41.997 17.1272 41.4944 15.6025C41.2462 14.8494 40.8817 14.9547 40.5741 14.9547C39.6437 14.9547 38.8895 18.8999 38.8895 23.7663" fill="black"/>
<path d="M38.8827 23.767C38.8827 23.767 38.8833 23.5931 38.8844 23.2672C38.8879 22.9413 38.8949 22.4637 38.9158 21.8573C38.9399 21.2528 38.9711 20.5148 39.0459 19.6874C39.1201 18.8629 39.2258 17.9327 39.4176 17.0106C39.4649 16.7795 39.5199 16.5534 39.5794 16.3294C39.6415 16.1106 39.7081 15.8934 39.7846 15.6928C39.9366 15.2945 40.1274 14.9464 40.3529 14.802C40.3802 14.7807 40.41 14.768 40.44 14.7568L40.4848 14.7392L40.525 14.7331L40.5653 14.7271L40.6091 14.7248L40.6899 14.7209C40.7992 14.7177 40.9128 14.7135 41.0306 14.7545C41.1477 14.7921 41.2702 14.8819 41.3818 15.059C41.4091 15.1086 41.436 15.1495 41.4626 15.2121L41.5022 15.3029L41.5331 15.3884L41.5484 15.431L41.555 15.45L41.5586 15.4624L41.5659 15.4871L41.5949 15.5858C41.6141 15.652 41.6339 15.7173 41.6526 15.7847C41.7959 16.3362 41.9003 16.9558 41.9845 17.5959C42.068 18.2375 42.1318 18.9031 42.1797 19.5813C42.227 20.2597 42.2587 20.95 42.2797 21.6441C42.2986 22.3368 42.3062 23.0434 42.3015 23.7349C42.2913 25.1324 42.2455 26.5227 42.1498 27.8693C42.1015 28.5418 42.0399 29.2029 41.9557 29.8359C41.8701 30.4657 41.767 31.0783 41.6192 31.6049L41.5601 31.7979C41.5404 31.8619 41.521 31.9292 41.4995 31.9804L41.4367 32.145L41.421 32.1859C41.4173 32.195 41.4183 32.1947 41.4106 32.2113L41.4012 32.231C41.3884 32.2563 41.3762 32.2851 41.363 32.3073C41.2577 32.4935 41.142 32.5876 41.0291 32.6496C40.9158 32.7117 40.8031 32.7398 40.6925 32.7535C40.5846 32.7666 40.4668 32.7665 40.3557 32.6966C40.1323 32.562 39.9415 32.2199 39.7892 31.8263C39.7127 31.6278 39.6458 31.4125 39.5834 31.1951C39.5235 30.9727 39.4684 30.7476 39.4208 30.5174C39.228 29.5983 39.1218 28.6688 39.0473 27.8448C38.9724 27.018 38.9413 26.2801 38.9169 25.6757C38.8958 25.0697 38.8884 24.592 38.8848 24.266C38.8835 23.9406 38.8827 23.7669 38.8827 23.7669L38.8827 23.767ZM38.8981 23.7666C38.8981 23.7666 38.8994 23.9398 38.9018 24.2651C38.9064 24.5891 38.9142 25.0664 38.9437 25.6668C38.9578 25.9672 38.9768 26.2986 39.0053 26.6546C39.0328 27.0109 39.0665 27.3937 39.1114 27.7944C39.1996 28.5953 39.3276 29.4804 39.5244 30.3363C39.6228 30.7629 39.7393 31.1807 39.8811 31.5422C39.953 31.7189 40.0297 31.885 40.1137 32.0229C40.1977 32.1603 40.2895 32.262 40.3852 32.3267C40.481 32.3935 40.5801 32.4015 40.6893 32.3961C40.7961 32.3938 40.9038 32.3816 41.0099 32.3362C41.1157 32.2924 41.2214 32.2165 41.3115 32.0719C41.323 32.0547 41.3329 32.0327 41.3437 32.0132L41.3518 31.9982C41.3501 32.0042 41.356 31.9887 41.3577 31.9851L41.374 31.9459L41.4394 31.7897C41.4626 31.7391 41.48 31.6814 41.4989 31.6252L41.5555 31.4562C41.7028 30.9765 41.8163 30.3941 41.9045 29.7799C41.9253 29.6243 41.9461 29.4683 41.967 29.3118C41.9845 29.1517 42.0021 28.9912 42.0196 28.8304C42.051 28.5055 42.0818 28.1779 42.1039 27.8431C42.151 27.1756 42.1823 26.4941 42.2007 25.8069C42.2164 25.12 42.2212 24.426 42.2174 23.7381C42.2118 23.041 42.1938 22.3593 42.1652 21.6757C42.1378 20.9941 42.1 20.3183 42.0473 19.6594C41.9943 19.0007 41.9302 18.355 41.846 17.7427C41.762 17.1319 41.6587 16.5497 41.5257 16.0546L41.4728 15.8788L41.4464 15.7914L41.4399 15.7695L41.4366 15.7586C41.4411 15.7714 41.4356 15.7561 41.4356 15.7563L41.4201 15.7143L41.3893 15.632L41.3617 15.5728C41.3447 15.5314 41.321 15.4957 41.3008 15.4582C41.2139 15.3216 41.1147 15.2452 41.011 15.2126C40.9075 15.1763 40.8002 15.181 40.692 15.1831L40.6102 15.1841L40.573 15.1845L40.5326 15.189L40.4925 15.1936L40.4579 15.2074C40.4351 15.2156 40.4121 15.2236 40.3881 15.2417C40.2932 15.2999 40.2023 15.4001 40.1184 15.5334C40.0346 15.6679 39.9578 15.8309 39.8859 16.0056C39.7437 16.3626 39.6264 16.7776 39.5277 17.2026C39.3299 18.0553 39.2014 18.9399 39.1128 19.7399C39.0679 20.1406 39.0341 20.5233 39.0066 20.8794C38.978 21.2353 38.959 21.5665 38.9448 21.8667C38.9151 22.467 38.907 22.9439 38.9021 23.2685C38.8995 23.5934 38.8981 23.7665 38.8981 23.7665" fill="white" fill-opacity="0.5"/>
<path d="M36.9347 23.7674C36.9347 30.3051 37.9479 35.6055 39.1978 35.6055C39.5102 35.6055 40.0128 35.5624 40.2836 34.9633C41.0959 33.1665 41.4608 28.6711 41.4608 23.7676C41.4608 19.3912 41.1092 14.8488 40.4341 12.8001C40.1007 11.7883 39.6109 11.9299 39.1978 11.9299C37.9479 11.9299 36.9347 17.2298 36.9347 23.7675" fill="black"/>
<path d="M36.9261 23.7677C36.9261 23.7677 36.9271 23.5342 36.9289 23.0966C36.9337 22.6593 36.9434 22.0175 36.973 21.204C37.0061 20.3926 37.0514 19.4037 37.1541 18.2966C37.2563 17.1928 37.4023 15.9513 37.6611 14.7242C37.7247 14.4165 37.7988 14.1164 37.8786 13.8189C37.9616 13.5282 38.0506 13.24 38.1524 12.9746C38.2545 12.7104 38.3676 12.4663 38.4928 12.26C38.6182 12.0552 38.7572 11.8952 38.9046 11.7998C38.9407 11.7717 38.9795 11.7554 39.0186 11.7407L39.0771 11.7178L39.1311 11.7098L39.1852 11.7021L39.2025 11.7003L39.216 11.7L39.2429 11.6992C39.2791 11.6976 39.3153 11.696 39.3517 11.6944C39.4982 11.6905 39.6498 11.6846 39.8055 11.7389C39.9606 11.7887 40.1211 11.9068 40.267 12.1379C40.2849 12.1673 40.3023 12.2009 40.3199 12.2323C40.3376 12.2631 40.3551 12.2963 40.3721 12.3368L40.4231 12.4535L40.4647 12.5678L40.4853 12.6249L40.4932 12.6477L40.498 12.664L40.5076 12.6965L40.5461 12.8273C40.5716 12.9149 40.598 13.0014 40.6228 13.0906C40.8136 13.8216 40.9536 14.6476 41.0667 15.5025C41.1791 16.3595 41.2647 17.2504 41.3299 18.1578C41.3945 19.066 41.4381 19.9908 41.4674 20.9213C41.4944 21.8502 41.5065 22.795 41.5019 23.7249C41.4966 24.6638 41.4792 25.5964 41.4478 26.5244C41.4174 27.4522 41.3707 28.3722 41.305 29.2745C41.2395 30.1763 41.1572 31.0637 41.0431 31.9111C40.9276 32.7545 40.7873 33.5721 40.5888 34.2715L40.5099 34.5268C40.4835 34.6114 40.4578 34.7003 40.4286 34.7688L40.3438 34.9886L40.3226 35.0431C40.3179 35.0545 40.3181 35.0566 40.3094 35.0752L40.297 35.1009C40.2802 35.1339 40.2641 35.1712 40.2467 35.2003C40.1781 35.326 40.1038 35.4115 40.0295 35.484C39.955 35.5563 39.8793 35.6072 39.8038 35.6468C39.6528 35.7274 39.5022 35.7624 39.3543 35.7787C39.2091 35.7952 39.054 35.7937 38.9074 35.7003C38.7609 35.6112 38.6227 35.4528 38.4974 35.2522C38.3724 35.0491 38.2592 34.8083 38.1571 34.5458C38.0552 34.2826 37.9659 33.9963 37.8825 33.7071C37.8025 33.4111 37.7282 33.112 37.6642 32.8053C37.4045 31.5814 37.2581 30.3405 37.1556 29.2374C37.0527 28.1306 37.0074 27.1419 36.9741 26.3307C36.9443 25.5174 36.9342 24.8757 36.9292 24.4381C36.9272 24.0009 36.9262 23.7676 36.9262 23.7676L36.9261 23.7677ZM36.9416 23.7673C36.9416 23.7673 36.9432 24.0002 36.9462 24.4372C36.9523 24.873 36.9626 25.5138 37.0008 26.3217C37.0194 26.7254 37.044 27.1713 37.0809 27.6507C37.1167 28.1306 37.1607 28.6464 37.2196 29.187C37.3358 30.2669 37.5041 31.4633 37.7679 32.624C37.8995 33.2029 38.0566 33.7697 38.249 34.2618C38.3464 34.5026 38.451 34.7286 38.5656 34.9164C38.6803 35.1032 38.8057 35.2432 38.937 35.3304C39.0683 35.4205 39.2045 35.43 39.3511 35.4213C39.4952 35.4163 39.6408 35.3973 39.7846 35.3334C39.9279 35.2714 40.0716 35.1664 40.1952 34.9649C40.2108 34.9409 40.2246 34.9101 40.2395 34.883L40.2506 34.8622C40.2499 34.8661 40.2566 34.8481 40.2593 34.8422L40.281 34.7895L40.3685 34.578C40.3994 34.51 40.4231 34.4309 40.4486 34.3542L40.5251 34.1228C40.723 33.4702 40.8737 32.6828 40.9918 31.8549C41.0195 31.6452 41.0473 31.4349 41.0751 31.2239C41.0986 31.0086 41.1221 30.7927 41.1456 30.5762C41.1876 30.1389 41.2289 29.698 41.2583 29.2478C41.3204 28.3496 41.3636 27.4338 41.3906 26.5105C41.4134 25.5869 41.4213 24.6545 41.4177 23.7281C41.4119 22.7927 41.3895 21.8727 41.3528 20.9527C41.3172 20.0349 41.2674 19.1249 41.1974 18.236C41.1272 17.3479 41.0412 16.477 40.9282 15.6495C40.8152 14.8238 40.6763 14.0353 40.4958 13.3606C40.4724 13.2789 40.4477 13.2005 40.424 13.1205L40.3881 13.0011L40.3791 12.9713L40.3746 12.9563C40.3788 12.9678 40.3728 12.9514 40.3724 12.9504L40.3516 12.8939C40.3378 12.857 40.3238 12.8172 40.3102 12.7828L40.2711 12.6977C40.2589 12.6679 40.2446 12.6411 40.2297 12.6153C40.215 12.5895 40.2009 12.5614 40.1859 12.5372C40.0648 12.3466 39.9276 12.2418 39.7859 12.1973C39.6445 12.1476 39.4992 12.1539 39.3537 12.1568C39.317 12.1574 39.2804 12.158 39.2439 12.1587L39.1929 12.1594L39.1387 12.1659L39.0847 12.1722L39.0365 12.1915C39.0045 12.2031 38.9725 12.2145 38.9398 12.2394C38.8094 12.3203 38.6848 12.4585 38.5702 12.6414C38.4558 12.8257 38.3511 13.0484 38.2537 13.2875C38.061 13.7751 37.9031 14.3391 37.771 14.9162C37.5063 16.0737 37.3376 17.2697 37.2211 18.3489C37.1621 18.8892 37.118 19.4049 37.0822 19.8847C37.0452 20.364 37.0206 20.8098 37.0019 21.2133C36.9635 22.0211 36.9528 22.6617 36.9465 23.0978C36.9433 23.5344 36.9416 23.7672 36.9416 23.7672" fill="#E6E6E6" fill-opacity="0.5"/>
<path d="M36.1504 23.7643C36.1504 30.3019 37.1636 35.6023 38.4135 35.6023C38.7259 35.6023 39.2285 35.5592 39.4993 34.9602C40.3116 33.1633 40.6765 28.6679 40.6765 23.7645C40.6765 19.3881 40.325 14.8457 39.6498 12.797C39.3164 11.7852 38.8266 11.9267 38.4135 11.9267C37.1636 11.9267 36.1504 17.2267 36.1504 23.7643" fill="black"/>
<path d="M36.1436 23.7643C36.1436 23.7643 36.1445 23.5308 36.1463 23.0932C36.1511 22.6559 36.1608 22.0141 36.1904 21.2006C36.2235 20.3891 36.2688 19.4002 36.3715 18.2932C36.4737 17.1894 36.6197 15.9478 36.8785 14.7208C36.9421 14.4131 37.0162 14.113 37.096 13.8155C37.179 13.5248 37.268 13.2366 37.3698 12.9712C37.4719 12.707 37.585 12.4628 37.7102 12.2566C37.8356 12.0518 37.9746 11.8918 38.122 11.7964C38.1581 11.7682 38.1969 11.752 38.236 11.7373L38.2945 11.7143L38.3485 11.7064L38.4026 11.6986L38.4199 11.6969L38.4334 11.6966L38.4603 11.6957C38.4965 11.6941 38.5327 11.6926 38.5691 11.691C38.7156 11.6871 38.8672 11.6812 39.0229 11.7355C39.178 11.7852 39.3385 11.9034 39.4844 12.1345C39.5023 12.1639 39.5197 12.1974 39.5373 12.2289C39.555 12.2597 39.5725 12.2929 39.5895 12.3334L39.6405 12.4501L39.6821 12.5644L39.7027 12.6215L39.7106 12.6442L39.7154 12.6605L39.725 12.6931L39.7635 12.8238C39.789 12.9115 39.8154 12.9979 39.8402 13.0872C40.031 13.8182 40.171 14.6442 40.2841 15.4991C40.3965 16.3561 40.4821 17.247 40.5473 18.1544C40.6119 19.0626 40.6555 19.9873 40.6848 20.9179C40.7118 21.8468 40.7239 22.7916 40.7193 23.7215C40.714 24.6604 40.6966 25.5929 40.6652 26.521C40.6348 27.4488 40.5881 28.3688 40.5224 29.2711C40.4569 30.1729 40.3746 31.0603 40.2605 31.9077C40.145 32.7511 40.0047 33.5686 39.8062 34.2681L39.7273 34.5234C39.7009 34.608 39.6753 34.6969 39.646 34.7654L39.5612 34.9852L39.54 35.0397C39.5353 35.051 39.5355 35.0532 39.5268 35.0718L39.5144 35.0975C39.4976 35.1305 39.4816 35.1678 39.4641 35.1969C39.3955 35.3226 39.3212 35.4081 39.2469 35.4806C39.1724 35.5529 39.0967 35.6038 39.0212 35.6434C38.8702 35.724 38.7196 35.759 38.5717 35.7753C38.4265 35.7917 38.2715 35.7903 38.1248 35.6969C37.9783 35.6078 37.8401 35.4494 37.7148 35.2488C37.5898 35.0457 37.4766 34.8049 37.3745 34.5424C37.2726 34.2792 37.1833 33.9928 37.0999 33.7037C37.0199 33.4077 36.9456 33.1086 36.8816 32.8019C36.6219 31.578 36.4755 30.337 36.373 29.234C36.2702 28.1272 36.2248 27.1385 36.1915 26.3273C36.1617 25.5139 36.1517 24.8723 36.1466 24.4347C36.1446 23.9975 36.1436 23.7641 36.1436 23.7641L36.1436 23.7643ZM36.159 23.7638C36.159 23.7638 36.1606 23.9968 36.1636 24.4337C36.1697 24.8696 36.18 25.5104 36.2183 26.3183C36.2368 26.722 36.2614 27.1679 36.2983 27.6473C36.3341 28.1271 36.3781 28.643 36.4371 29.1836C36.5532 30.2635 36.7215 31.4599 36.9853 32.6206C37.1169 33.1995 37.274 33.7663 37.4664 34.2584C37.5638 34.4992 37.6684 34.7252 37.783 34.913C37.8977 35.0998 38.0231 35.2398 38.1544 35.327C38.2857 35.4171 38.4219 35.4266 38.5685 35.4179C38.7126 35.4129 38.8582 35.3938 39.002 35.33C39.1453 35.268 39.289 35.1629 39.4126 34.9615C39.4283 34.9375 39.442 34.9067 39.4569 34.8796L39.468 34.8588C39.4673 34.8627 39.474 34.8447 39.4767 34.8388L39.4984 34.786L39.5859 34.5746C39.6168 34.5066 39.6405 34.4274 39.666 34.3508L39.7425 34.1194C39.9404 33.4668 40.0911 32.6794 40.2092 31.8515C40.2369 31.6418 40.2647 31.4315 40.2925 31.2205C40.316 31.0052 40.3395 30.7893 40.363 30.5728C40.405 30.1355 40.4463 29.6945 40.4757 29.2444C40.5378 28.3462 40.581 27.4304 40.608 26.5071C40.6308 25.5835 40.6387 24.6511 40.6351 23.7247C40.6293 22.7893 40.6069 21.8693 40.5702 20.9493C40.5346 20.0315 40.4848 19.1214 40.4148 18.2326C40.3446 17.3444 40.2586 16.4736 40.1456 15.6461C40.0326 14.8204 39.8937 14.0319 39.7132 13.3572C39.6898 13.2755 39.6651 13.197 39.6414 13.1171L39.6055 12.9977L39.5965 12.9679L39.592 12.9529C39.5962 12.9644 39.5902 12.948 39.5898 12.947L39.569 12.8905C39.5552 12.8536 39.5412 12.8138 39.5276 12.7794L39.4885 12.6943C39.4763 12.6645 39.462 12.6377 39.4471 12.6119C39.4324 12.5861 39.4183 12.558 39.4033 12.5338C39.2822 12.3432 39.145 12.2384 39.0033 12.1939C38.8619 12.1442 38.7166 12.1505 38.5711 12.1534C38.5344 12.154 38.4978 12.1545 38.4613 12.1553L38.4103 12.156L38.3561 12.1625L38.3021 12.1688L38.2539 12.1881C38.2219 12.1997 38.1899 12.211 38.1572 12.236C38.0268 12.3168 37.9022 12.4551 37.7876 12.638C37.6732 12.8223 37.5685 13.045 37.4711 13.2841C37.2784 13.7717 37.1205 14.3357 36.9884 14.9128C36.7237 16.0703 36.555 17.2663 36.4385 18.3454C36.3795 18.8858 36.3354 19.4015 36.2996 19.8813C36.2626 20.3606 36.238 20.8064 36.2193 21.2099C36.1809 22.0176 36.1702 22.6583 36.1639 23.0944C36.1607 23.531 36.159 23.7638 36.159 23.7638" fill="#E6E6E6" fill-opacity="0.5"/>
<path d="M36.219 23.7643C36.219 30.302 37.0676 35.6023 38.1144 35.6023C39.1613 35.6023 39.9074 30.3023 39.9074 23.7643C39.9074 17.2262 39.1613 11.9266 38.1144 11.9266C37.0676 11.9266 36.219 17.2266 36.219 23.7643" fill="black"/>
<path d="M36.2122 23.7644C36.2122 23.7644 36.2127 23.5467 36.2137 23.1387C36.2177 22.7309 36.2236 22.1328 36.244 21.3726C36.2666 20.6135 36.2997 19.6906 36.3704 18.6441C36.4441 17.601 36.5455 16.4227 36.7345 15.2084C36.8301 14.604 36.9451 13.9864 37.1014 13.4087C37.1776 13.1166 37.267 12.8408 37.368 12.588C37.4692 12.3362 37.584 12.1086 37.7149 11.9452C37.7483 11.909 37.781 11.8659 37.8156 11.8361C37.851 11.8096 37.8843 11.7751 37.9219 11.756L37.9785 11.7286C37.9977 11.7195 38.017 11.7099 38.0331 11.7093L38.0838 11.7005L38.1092 11.6962C38.1205 11.6947 38.1164 11.6963 38.1207 11.6963L38.1277 11.6972L38.1416 11.6991C38.2909 11.7091 38.4402 11.8279 38.573 12.0245C38.8403 12.4232 39.0418 13.0788 39.1997 13.7849C39.2784 14.1412 39.3481 14.514 39.4108 14.8975C39.4716 15.283 39.5278 15.6768 39.5761 16.08C39.6738 16.8851 39.7482 17.7195 39.8056 18.5674C39.8614 19.4165 39.8999 20.2796 39.9245 21.1482C39.9473 22.0155 39.9554 22.8941 39.9505 23.7644C39.9458 24.6372 39.9277 25.5091 39.8957 26.3732C39.8662 27.2379 39.8229 28.0957 39.7625 28.9371C39.7018 29.7786 39.6276 30.6059 39.5322 31.4057C39.4851 31.8061 39.4296 32.1958 39.3714 32.5798C39.311 32.9613 39.2437 33.3319 39.1675 33.6859C39.0914 34.04 39.0037 34.3731 38.904 34.6746C38.8042 34.9751 38.6904 35.2428 38.5612 35.4404C38.5449 35.4646 38.5292 35.491 38.5126 35.5133L38.4618 35.5741C38.4285 35.6182 38.3931 35.6475 38.3578 35.6768C38.3235 35.7112 38.2852 35.7265 38.2479 35.7462C38.209 35.7703 38.1777 35.7679 38.1429 35.7768C37.9931 35.7937 37.8504 35.7075 37.72 35.5504C37.5897 35.3941 37.4755 35.1683 37.3743 34.9205C37.2732 34.6711 37.1833 34.3982 37.1069 34.1077C36.95 33.534 36.834 32.9188 36.738 32.3156C36.5477 31.104 36.4459 29.926 36.3719 28.8837C36.3009 27.8372 36.2679 26.9144 36.2451 26.1555C36.2245 25.3956 36.2183 24.7975 36.214 24.3895C36.2128 23.9819 36.2122 23.7644 36.2122 23.7644L36.2122 23.7644ZM36.2276 23.764C36.2276 23.764 36.2288 23.9814 36.231 24.3887C36.2363 24.7952 36.2429 25.3929 36.2719 26.1486C36.2986 26.9046 36.352 27.8166 36.437 28.8442C36.5253 29.8682 36.6503 31.0115 36.8487 32.1715C36.8739 32.3156 36.8986 32.4625 36.927 32.6052C36.9409 32.6769 36.9548 32.7492 36.9688 32.8218C36.9836 32.8929 36.9985 32.9642 37.0136 33.0358C37.0421 33.1817 37.0764 33.3186 37.1082 33.4619C37.1434 33.5981 37.1761 33.7421 37.2149 33.8731C37.3635 34.4088 37.5463 34.9133 37.7739 35.203C37.8863 35.3471 38.0131 35.4267 38.1358 35.4197C38.1688 35.4125 38.2065 35.418 38.2347 35.3997C38.2649 35.3851 38.2952 35.3784 38.3265 35.3501C38.3576 35.3276 38.389 35.3054 38.4189 35.2687L38.4647 35.2197C38.4797 35.2012 38.4941 35.1786 38.509 35.1583C38.7461 34.8229 38.9406 34.2258 39.0977 33.5608C39.176 33.225 39.2465 32.8694 39.3107 32.5009C39.3735 32.1303 39.4304 31.7477 39.4803 31.3546C39.5305 30.962 39.5756 30.5609 39.6136 30.1519C39.6533 29.7445 39.6867 29.3298 39.7159 28.9111C39.7727 28.0731 39.8125 27.219 39.8386 26.3587C39.8619 25.4975 39.8706 24.6304 39.8663 23.7643C39.861 22.8955 39.8424 22.035 39.8099 21.1771C39.7789 20.3206 39.7342 19.4719 39.6728 18.6411C39.6103 17.8115 39.5353 16.996 39.4364 16.217C39.3876 15.8267 39.3315 15.4479 39.2713 15.0788C39.2094 14.7124 39.1412 14.3591 39.0655 14.0256C38.913 13.3659 38.726 12.772 38.4972 12.434C38.3834 12.2661 38.2603 12.1712 38.1371 12.1614L38.1255 12.1593L38.1197 12.1583C38.1199 12.158 38.1115 12.1574 38.1185 12.1573L38.093 12.1609L38.0422 12.1681C38.0242 12.1685 38.0104 12.1769 37.9962 12.1841L37.9532 12.2039C37.9245 12.2171 37.8944 12.2476 37.8651 12.2679C37.8357 12.2919 37.8078 12.3291 37.7791 12.3583C37.6664 12.495 37.5635 12.6927 37.4709 12.9187C37.3785 13.1454 37.2948 13.3984 37.2205 13.6673C37.1815 13.7974 37.1486 13.9406 37.1133 14.0759C37.0813 14.2185 37.0468 14.3545 37.0179 14.4997C37.0029 14.5712 36.9879 14.6422 36.9729 14.713C36.9588 14.7853 36.9449 14.8574 36.9309 14.929C36.9023 15.0713 36.8775 15.2176 36.8521 15.3613C36.6525 16.5187 36.5271 17.6617 36.4384 18.6851C36.3533 19.7123 36.2998 20.6245 36.2729 21.3801C36.2438 22.1355 36.2368 22.7332 36.2314 23.14C36.2288 23.547 36.2276 23.7641 36.2276 23.7641" fill="#E6E6E6" fill-opacity="0.5"/>
<path d="M37.2626 23.7643C37.2626 26.7064 37.6444 29.0914 38.1155 29.0914C38.5867 29.0914 38.8661 26.7064 38.8661 23.7643C38.8661 20.8222 38.5867 18.4373 38.1155 18.4373C37.6444 18.4373 37.2626 20.8222 37.2626 23.7643Z" fill="black"/>
<path d="M37.254 23.7644C37.254 23.7644 37.2509 23.3745 37.2644 22.6916C37.2723 22.3503 37.2844 21.9356 37.3102 21.4611C37.3381 20.9882 37.3768 20.4513 37.4577 19.8912C37.4984 19.6118 37.5497 19.3272 37.6197 19.0544C37.6899 18.7847 37.7797 18.5182 37.9052 18.3464C37.9367 18.3051 37.97 18.2708 38.005 18.2455C38.0232 18.2333 38.0435 18.2248 38.0628 18.2161L38.109 18.2065C38.1088 18.2065 38.1199 18.2058 38.117 18.2062L38.1204 18.2065L38.1274 18.2074L38.1412 18.2095L38.1691 18.2148C38.1875 18.2241 38.2061 18.231 38.2242 18.2434C38.2606 18.2701 38.2961 18.3064 38.329 18.3545C38.4619 18.55 38.5544 18.8728 38.6223 19.2088C38.6909 19.5477 38.7399 19.9103 38.779 20.2813C38.8176 20.6526 38.8466 21.0332 38.8672 21.4189C38.887 21.8049 38.8998 22.1952 38.907 22.5868C38.9126 22.9775 38.9123 23.3745 38.9072 23.7642C38.9027 24.1562 38.8931 24.5476 38.8783 24.9354C38.8647 25.3234 38.8467 25.7087 38.8237 26.0888C38.8002 26.4686 38.7708 26.8426 38.7345 27.2085C38.6967 27.5726 38.6532 27.9316 38.5894 28.265C38.526 28.5951 38.4415 28.9126 38.3175 29.1099C38.2866 29.1586 38.2534 29.1961 38.2191 29.2248C38.2014 29.2383 38.1819 29.2474 38.1633 29.2577L38.1401 29.2641L38.1287 29.2673L38.123 29.2685L38.1201 29.269L38.1135 29.2698C38.0425 29.2732 37.9724 29.2267 37.9106 29.1494C37.8483 29.0727 37.795 28.9622 37.7481 28.8444C37.7014 28.7254 37.6598 28.598 37.6252 28.4622C37.5546 28.1934 37.5023 27.911 37.4612 27.6329C37.3791 27.0755 37.3399 26.5388 37.3117 26.0666C37.2857 25.5922 37.2737 25.1776 37.2655 24.8366C37.2517 24.1538 37.254 23.7644 37.254 23.7644L37.254 23.7644ZM37.2694 23.764C37.2694 23.764 37.2701 23.8612 37.2714 24.0435C37.2741 24.2251 37.2769 24.4926 37.2923 24.8296C37.306 25.1667 37.3326 25.5736 37.3761 26.0278C37.42 26.4809 37.4814 26.9839 37.5721 27.4898C37.618 27.7409 37.6695 27.9965 37.734 28.2298C37.7988 28.4597 37.8744 28.6808 37.9674 28.8056C38.0584 28.934 38.1675 28.9554 38.2662 28.8265C38.3655 28.6985 38.4507 28.4408 38.5182 28.1465C38.6555 27.5511 38.7314 26.813 38.7774 26.0665C38.7998 25.6908 38.8136 25.3081 38.8211 24.9231C38.8272 24.5379 38.8275 24.1506 38.8231 23.7642C38.8178 23.3756 38.8077 22.9938 38.7923 22.6114C38.7786 22.23 38.7594 21.8523 38.7339 21.4829C38.6826 20.7479 38.6114 20.0228 38.4853 19.4366C38.4224 19.1482 38.345 18.8957 38.2546 18.7658C38.2321 18.7332 38.2089 18.7105 38.1854 18.6929C38.1737 18.6851 38.1617 18.6814 38.1499 18.6746L38.1319 18.6718L38.1229 18.6704L38.1184 18.6692L38.1161 18.6688C38.1112 18.669 38.1203 18.6679 38.1183 18.6682C38.1034 18.6704 38.0871 18.6714 38.0736 18.6746L38.0422 18.69C38.0186 18.7056 37.9954 18.7276 37.9727 18.7551C37.8813 18.8689 37.8049 19.0845 37.7395 19.3103C37.6744 19.5399 37.622 19.793 37.5754 20.0428C37.4837 20.5463 37.4218 21.0488 37.3775 21.5014C37.3338 21.9553 37.3073 22.362 37.2934 22.699C37.2779 23.0358 37.2746 23.3032 37.2717 23.4851C37.2702 23.667 37.2694 23.764 37.2694 23.764" fill="#E6E6E6" fill-opacity="0.5"/>
<path d="M38.0152 24.4833C38.0152 25.2083 37.9496 25.7959 37.8688 25.7959C37.8688 25.7959 30.8221 21.1659 25.0898 21.1659C20.0288 21.1659 12.3774 25.7959 12.3774 25.7959C12.2965 25.7959 12.231 25.2084 12.231 24.4833V22.4786C12.231 21.7535 12.2965 21.1659 12.3774 21.1659C12.3774 21.1659 20.1838 16.5359 25.0898 16.5359C30.6155 16.5359 37.8688 21.1659 37.8688 21.1659C37.9496 21.1659 38.0152 21.7534 38.0152 22.4786V24.4833Z" fill="black"/>
<path d="M38.3298 24.2988L38.3294 23.3877C38.3291 23.0841 38.3294 22.7783 38.3287 22.4772C38.3276 22.4065 38.3271 22.3347 38.3256 22.2649L38.3175 22.0609L38.3046 21.8744C38.2987 21.82 38.2934 21.7631 38.2874 21.7111C38.2804 21.6671 38.2738 21.6189 38.2666 21.5774C38.2588 21.545 38.2512 21.5076 38.2432 21.4785C38.2347 21.459 38.2263 21.4353 38.2178 21.4178L38.1914 21.3975H38.1908C37.6543 21.1183 37.1177 20.8433 36.5809 20.602L35.7758 20.2347L34.9703 19.9273C33.8963 19.5036 32.822 19.1871 31.7475 18.8747L30.1357 18.47L29.7328 18.3654L29.33 18.2972L28.5243 18.1606L27.7188 18.006C27.4503 17.9458 27.1812 17.9541 26.9125 17.9242C26.3753 17.8939 25.8364 17.8183 25.3006 17.8253L23.6891 17.9848C23.4206 17.9927 23.152 18.0966 22.8834 18.1427L22.0776 18.3076C21.809 18.3679 21.5404 18.4069 21.2718 18.4837L20.4662 18.7214C19.9291 18.89 19.3918 19.013 18.8549 19.2232L17.2439 19.7915L15.6331 20.4125L14.0226 21.0888L13.2176 21.4536L12.815 21.6426L12.7647 21.6667L12.7495 21.6737L12.7408 21.6816C12.7349 21.687 12.7288 21.6845 12.7233 21.7049C12.7007 21.7502 12.6793 21.8607 12.6659 22.0206C12.6595 22.0999 12.6536 22.1909 12.6515 22.2557C12.6477 22.2998 12.6459 22.5382 12.6462 22.5876L12.6456 23.4006L12.6451 24.2128C12.6447 24.2884 12.6455 24.337 12.6462 24.3827C12.6466 24.4313 12.6468 24.4803 12.6493 24.526C12.6519 24.6211 12.6579 24.7067 12.6642 24.7898C12.6764 24.9518 12.7021 25.0756 12.7199 25.115C12.7228 25.135 12.7331 25.1383 12.7411 25.1458L12.7536 25.1566C12.7444 25.1541 12.7583 25.1524 12.7595 25.1504L12.8098 25.1258L13.2125 24.9343L14.0178 24.565L15.6285 23.8588L18.8506 22.5545C19.3875 22.3251 19.925 22.1851 20.4622 21.9853L21.2679 21.6879L22.0743 21.4586L22.8808 21.2351C23.1496 21.1678 23.4185 21.0673 23.6872 21.0452L25.3 20.8193C25.839 20.8072 26.3761 20.8758 26.9143 20.8999C27.1833 20.9227 27.4523 20.9227 27.7212 20.9642L28.5277 21.1487L29.3342 21.3456C29.603 21.4121 29.8718 21.469 30.1404 21.572C30.6778 21.7469 31.215 21.9554 31.7522 22.1619C32.2893 22.3717 32.8261 22.645 33.363 22.8822C33.8999 23.1128 34.4365 23.3998 34.9731 23.6769C36.0464 24.2298 37.1196 24.7695 38.192 25.4087H38.1914L38.2183 25.3875C38.2269 25.3684 38.2355 25.3452 38.2441 25.3252C38.2522 25.2928 38.26 25.2563 38.268 25.223L38.2889 25.0855L38.3061 24.9169C38.3104 24.8529 38.315 24.7898 38.319 24.725C38.3215 24.6572 38.3243 24.5916 38.3268 24.5222L38.3298 24.2925V24.2987L38.3298 24.2988ZM38.3452 24.3054L38.3424 24.5347C38.3399 24.6141 38.3367 24.6942 38.3336 24.7736C38.3292 24.8467 38.3243 24.9169 38.3195 24.9884L38.3005 25.1774L38.2771 25.3323C38.2683 25.3709 38.2596 25.4121 38.2505 25.4478C38.2409 25.4719 38.2313 25.4985 38.2215 25.5193L38.1914 25.5442H38.1908C37.6544 25.2559 37.1179 24.9726 36.5811 24.7254L35.7761 24.3449C35.5077 24.2186 35.2391 24.1347 34.9706 24.0279C34.4336 23.8244 33.8967 23.6112 33.3594 23.4542C32.8222 23.2918 32.2852 23.0974 31.7479 22.964C31.2105 22.8373 30.6732 22.7119 30.1361 22.554C29.8676 22.468 29.5989 22.4286 29.3303 22.3799L28.5243 22.2346L27.7184 22.0763C27.4498 22.026 27.1811 22.0173 26.9125 21.9853C26.3755 21.9425 25.8374 21.8557 25.3012 21.8495L23.6883 21.9126C23.4193 21.9055 23.1509 21.9774 22.8823 22.0156L22.0764 22.1502L21.2705 22.2898L20.4645 22.4975L19.6587 22.7281C19.39 22.8033 19.1214 22.8839 18.8529 22.9869L17.2418 23.5751L15.6314 24.2946C15.0947 24.5385 14.5582 24.8122 14.0217 25.0922L13.2172 25.5338L12.8151 25.761L12.7648 25.7897C12.7576 25.7918 12.7631 25.7959 12.7456 25.7959L12.733 25.786C12.7244 25.7777 12.7176 25.7806 12.7047 25.7486C12.6578 25.653 12.6238 25.4565 12.598 25.1695C12.5862 25.0262 12.5758 24.8716 12.5705 24.703C12.5667 24.6207 12.5655 24.5347 12.5645 24.4479C12.5633 24.3594 12.5625 24.2734 12.5627 24.2128L12.5622 23.4006L12.5616 22.5877C12.5617 22.5391 12.5612 22.5544 12.5619 22.4522L12.5631 22.3509C12.5639 22.2848 12.5641 22.2225 12.5681 22.117C12.574 21.9176 12.5843 21.7676 12.5961 21.6214C12.6205 21.3306 12.6588 21.1208 12.7008 21.0303C12.7111 20.9991 12.722 20.9941 12.7328 20.9842L12.7591 20.9659L12.8094 20.9372L13.2117 20.7146L14.0166 20.2817L15.6266 19.4696L17.2371 18.7135L18.8484 18.0596C19.3855 17.8291 19.923 17.6849 20.4603 17.4951L21.2664 17.2263C21.5351 17.1395 21.804 17.0892 22.0729 17.019C22.6106 16.8969 23.148 16.7295 23.6861 16.6717L25.3003 16.5359C25.8397 16.5371 26.376 16.6211 26.914 16.6589C27.1829 16.6921 27.4515 16.6884 27.7205 16.7523L28.5273 16.9447C29.6032 17.1927 30.6777 17.5678 31.7521 17.9994C32.826 18.4804 33.8999 18.9561 34.973 19.5249C36.0461 20.0898 37.1194 20.6187 38.192 21.2472H38.1914L38.2213 21.2726C38.231 21.2921 38.2405 21.3191 38.25 21.3432C38.2591 21.3764 38.2677 21.4184 38.2765 21.4562C38.2846 21.5031 38.2921 21.5575 38.2998 21.6082C38.3066 21.6676 38.3126 21.7316 38.319 21.7939C38.3242 21.8625 38.3286 21.9347 38.3334 22.0054C38.3368 22.0806 38.3395 22.1587 38.3424 22.2355C38.3441 22.3144 38.3446 22.3954 38.3457 22.4748C38.346 23.085 38.3453 23.6911 38.3452 24.2989V24.3055L38.3452 24.3054Z" fill="#8E8E8E" fill-opacity="0.5"/>
</g>
<g filter="url(#filter1_d_68_2)">
<ellipse cx="26.1148" cy="23.8115" rx="26.1148" ry="23.8115" fill="url(#paint0_angular_68_2)" fill-opacity="0.37" shape-rendering="crispEdges"/>
<path d="M50.484 23.8115C50.484 35.85 39.7287 45.8774 26.1148 45.8774C12.5009 45.8774 1.74562 35.85 1.74562 23.8115C1.74562 11.7731 12.5009 1.74562 26.1148 1.74562C39.7287 1.74562 50.484 11.7731 50.484 23.8115Z" stroke="url(#paint1_angular_68_2)" stroke-opacity="0.6" stroke-width="3.49123" shape-rendering="crispEdges"/>
</g>
</g>
<defs>
<filter id="filter0_d_68_2" x="0" y="0" width="53.9752" height="49.3687" filterUnits="userSpaceOnUse" color-interpolation-filters="sRGB">
<feFlood flood-opacity="0" result="BackgroundImageFix"/>
<feColorMatrix in="SourceAlpha" type="matrix" values="0 0 0 0 0 0 0 0 0 0 0 0 0 0 0 0 0 0 127 0" result="hardAlpha"/>
<feOffset dx="1.74562" dy="1.74562"/>
<feComposite in2="hardAlpha" operator="out"/>
<feColorMatrix type="matrix" values="0 0 0 0 0 0 0 0 0 0 0 0 0 0 0 0 0 0 0.25 0"/>
<feBlend mode="normal" in2="BackgroundImageFix" result="effect1_dropShadow_68_2"/>
<feBlend mode="normal" in="SourceGraphic" in2="effect1_dropShadow_68_2" result="shape"/>
</filter>
<filter id="filter1_d_68_2" x="0" y="0" width="62.7033" height="57.6603" filterUnits="userSpaceOnUse" color-interpolation-filters="sRGB">
<feFlood flood-opacity="0" result="BackgroundImageFix"/>
<feColorMatrix in="SourceAlpha" type="matrix" values="0 0 0 0 0 0 0 0 0 0 0 0 0 0 0 0 0 0 127 0" result="hardAlpha"/>
<feOffset dx="8.72809" dy="8.29168"/>
<feGaussianBlur stdDeviation="0.872809"/>
<feComposite in2="hardAlpha" operator="out"/>
<feColorMatrix type="matrix" values="0 0 0 0 0 0 0 0 0 0 0 0 0 0 0 0 0 0 0.15 0"/>
<feBlend mode="normal" in2="BackgroundImageFix" result="effect1_dropShadow_68_2"/>
<feBlend mode="normal" in="SourceGraphic" in2="effect1_dropShadow_68_2" result="shape"/>
</filter>
<radialGradient id="paint0_angular_68_2" cx="0" cy="0" r="1" gradientUnits="userSpaceOnUse" gradientTransform="translate(26.1148 23.8115) rotate(90) scale(23.8115 26.1148)">
<stop stop-color="#11880E"/>
<stop offset="0.25" stop-color="#11880E"/>
<stop offset="0.494792" stop-color="#044DBA"/>
<stop offset="0.744792" stop-color="#11880E"/>
<stop offset="1" stop-color="#044DBA"/>
</radialGradient>
<radialGradient id="paint1_angular_68_2" cx="0" cy="0" r="1" gradientUnits="userSpaceOnUse" gradientTransform="translate(26.1148 23.8115) rotate(90) scale(23.8115 26.1148)">
<stop stop-color="#044DBA"/>
<stop offset="0.5" stop-color="#11880E"/>
</radialGradient>
<clipPath id="clip0_68_2">
<rect width="34.3253" height="30.532" fill="white" transform="translate(8.36328 8.39587)"/>
</clipPath>
</defs>
</svg>
