<svg width="86" height="79" viewBox="0 0 86 79" fill="none" xmlns="http://www.w3.org/2000/svg">
<g clip-path="url(#clip0_79_27)">
<path d="M55.2529 36.1561L48.7389 35.1631C48.0481 35.0318 47.3306 35.4167 47.0646 36.0612L44.5362 42.613C44.3281 43.197 44.556 43.8127 45.0771 44.1827L49.0374 46.8111C47.11 51.2693 43.4691 55.1411 38.7972 57.529L35.4734 54.2345C35.0101 53.804 34.3193 53.6727 33.7175 53.9365L26.9893 57.0732C26.3296 57.3976 26.0675 58.0991 26.2337 58.7184L28.1193 64.5556C28.3473 65.1713 28.9301 65.5376 29.671 65.4945C45.476 64.5738 57.5135 52.0356 56.5153 37.3977C56.4725 36.7712 55.9437 36.2874 55.2529 36.1561Z" fill="#044DBA"/>
<path d="M30.267 26.6641L29.1808 26.9779L37.1099 50.4192L38.1961 50.1053L30.267 26.6641Z" fill="#044DBA"/>
<path d="M29.6892 29.4951L28.603 29.809L34.8902 48.3962L35.9764 48.0824L29.6892 29.4951Z" fill="#044DBA"/>
<path d="M29.1014 32.2968L28.0153 32.6106L32.6806 46.4031L33.7668 46.0892L29.1014 32.2968Z" fill="#044DBA"/>
<path d="M28.2271 38.7224L29.088 41.2678L29.7808 41.0676L29.7974 41.0628L30.4902 40.8627L29.6292 38.3173L28.9365 38.5174L28.9198 38.5223L28.2271 38.7224Z" fill="#044DBA"/>
<path d="M58.9203 29.8539L35.5123 36.6176L36.3733 39.1629L59.7813 32.3993L58.9203 29.8539Z" fill="#044DBA"/>
<path d="M57.1155 18.9063L58.2017 18.5924L66.1308 42.0337L65.0446 42.3475L57.1155 18.9063Z" fill="#044DBA"/>
<path d="M59.3351 20.9291L60.4213 20.6152L66.7085 39.2025L65.6223 39.5163L59.3351 20.9291Z" fill="#044DBA"/>
<path d="M61.5448 22.9224L62.631 22.6085L67.2963 36.401L66.2102 36.7148L61.5448 22.9224Z" fill="#044DBA"/>
<path d="M64.8213 28.1486L65.6823 30.6939L66.375 30.4938L66.3915 30.489L67.0842 30.2889L66.2232 27.7435L65.5305 27.9436L65.514 27.9484L64.8213 28.1486Z" fill="#044DBA"/>
<path d="M55.7168 19.3103L56.803 18.9965L64.7321 42.4377L63.6459 42.7516L55.7168 19.3103Z" fill="#044DBA"/>
<path d="M31.6658 26.2599L30.5796 26.5737L38.5087 50.015L39.5949 49.7011L31.6658 26.2599Z" fill="#044DBA"/>
</g>
<defs>
<clipPath id="clip0_79_27">
<rect width="73.0655" height="41.9676" fill="white" transform="matrix(0.735193 -0.677858 0.733556 0.679629 0.587524 50.3665)"/>
</clipPath>
</defs>
</svg>
