<svg width="47" height="32" viewBox="0 0 47 32" fill="none" xmlns="http://www.w3.org/2000/svg">
<path d="M5.00137 0.856689L1.63196 0.97815L4.04505 1.09962L3.15602 2.04271L4.55309 1.61759L3.91805 2.10344L5.38237 1.86052L6.77197 1.7069L8.29604 1.67832L10.5224 2.25349L13.3762 3.52885L16.1704 4.62203L18.5163 7.41572V7.6265L17.5675 8.50535L16.6784 7.99091C16.6784 7.99091 17.5216 8.6022 17.4304 8.28943C17.3188 7.90692 16.5603 6.25349 15.9762 5.98677C15.9762 5.98677 15.2129 5.49132 14.6463 5.37946C13.7071 5.19401 12.553 5.22959 11.5985 5.34921C10.644 5.46883 9.12535 6.04751 9.12535 6.04751C9.12535 6.04751 8.23157 7.09004 8.36332 7.62657C8.39635 7.76106 8.31403 7.99048 8.31403 7.99048C8.31403 7.99048 8.38604 8.58614 8.42711 8.81065C8.46817 9.03516 8.80442 9.29668 8.80442 9.29668C8.80442 9.29668 8.4349 10.1549 8.61733 10.4809C9.07037 10.662 9.71125 10.7534 10.3017 10.7446C10.7452 10.7381 11.1137 10.5708 11.5385 10.5095C11.7554 10.4783 11.9776 10.4498 12.2037 10.4427C12.5325 10.4324 12.88 10.5331 13.1892 10.4787C13.3851 10.4442 13.4405 10.3052 13.6338 10.2678C14.2572 10.1472 15.2881 10.5526 15.65 10.2808C16.1968 9.87018 14.3326 8.96263 14.3326 8.96263C14.3326 8.96263 14.8237 9.07121 14.9677 9.1734C15.1259 9.28578 15.1544 9.56994 15.1544 9.56994L15.2814 9.75214L15.0947 9.99507C15.0947 9.99507 13.5689 10.5899 13.1223 10.9954C12.4266 11.6271 12.1735 13.0888 12.1735 13.0888C12.1735 13.0888 11.3245 14.2457 11.2172 14.8501C11.1526 15.2145 11.4115 15.9433 11.4115 15.9433C11.4115 15.9433 14.7203 16.4735 16.4245 16.6435C17.8868 16.7893 20.8697 16.915 20.8697 16.915L21.2508 16.8257L21.3105 17.0364L20.2347 18.0974C20.2347 18.0974 18.7531 20.9433 17.6945 22.3165C17.3569 22.7545 16.4842 23.5918 16.4842 23.5918C16.4842 23.5918 15.4933 24.4179 15.0274 24.8386C14.4082 25.3978 12.5236 27.3113 12.5236 27.3113C12.5236 27.3113 12.2341 27.2496 12.0198 27.4108C11.6417 27.6952 11.9793 27.843 11.9793 27.843L10.737 28.532L10.1414 29.3899C10.1414 29.3899 9.42162 29.6833 9.56617 29.8472C9.59997 29.8855 9.82019 29.8758 9.82019 29.8758L8.61737 31.3619C8.61737 31.3619 9.57938 31.6872 10.1414 31.7263C10.737 31.7678 11.9195 31.5763 11.9195 31.5763C11.9195 31.5763 11.9499 31.1459 12.0465 30.9368C12.1287 30.7592 12.4276 30.4224 12.4276 30.4224C12.4276 30.4224 12.7836 30.5582 12.9356 30.5117C13.3817 30.3752 13.0626 29.7543 13.0626 29.7543C13.0626 29.7543 13.6753 29.6877 13.8246 29.5721C13.9804 29.4516 13.8246 29.147 13.8246 29.147C13.8246 29.147 14.5241 28.9244 14.7137 28.7541C14.9054 28.5817 15.7174 28.0381 15.1139 27.8282C15.3302 27.5763 16.0435 27.1428 16.0435 27.1428L17.5003 26.2033C18.2847 25.6974 18.3616 24.9983 19.0917 24.4742C19.4481 24.2183 20.4215 23.8062 20.4215 23.8062C20.4215 23.8062 20.8944 23.2104 21.1835 22.9238C21.9609 22.1532 23.7909 20.6803 23.7909 20.6803C24.6355 19.9536 25.6645 19.3796 26.3236 18.644C26.5418 18.4543 27.1529 18.1296 27.1529 18.1296C27.1529 18.1296 27.6474 18.013 27.9149 18.0081C28.2637 18.0017 28.931 18.1296 28.931 18.1296L30.201 19.6479C30.7172 20.265 31.5545 20.8147 32.0389 21.4377C32.4201 21.928 32.8682 22.956 32.8682 22.956C32.8682 22.956 33.5537 23.4474 33.817 23.7134C34.8075 24.7139 36.1629 26.8393 36.1629 26.8393L35.9088 26.9608C35.9088 26.9608 37.3465 27.7283 37.6272 28.2076C37.7925 28.4899 37.5599 29.0864 37.5599 29.0864L38.6432 29.7866C38.6432 29.7866 38.304 29.9972 38.322 30.1189C38.3469 30.2872 38.8972 30.544 38.8972 30.544L39.084 31.3335C39.084 31.3335 40.4994 31.5922 41.2431 31.605C41.9318 31.6169 43.2753 31.4228 43.2753 31.4228C43.2753 31.4228 42.7713 30.917 42.5132 30.6655C42.2214 30.381 42.0051 29.8456 42.0051 29.8456C42.0051 29.8456 41.7982 29.1378 41.6242 28.8149C41.4609 28.5119 40.6754 27.9932 40.6754 27.9932L40.3541 27.2037L39.4052 26.2945C39.4052 26.2945 38.8275 25.1731 38.449 24.6244C38.1555 24.199 37.2462 23.4098 37.2462 23.4098L36.5438 22.013C36.5438 22.013 36.2722 21.1813 36.1629 20.7698C36.0187 20.2269 35.4681 19.1622 35.4681 19.1622C35.2212 18.5908 34.8028 18.0383 34.3848 17.4902C34.1256 17.1503 33.5032 16.4899 33.5032 16.4899C33.3878 16.359 33.5016 16.2034 33.436 16.0648C33.1256 15.4084 31.9119 14.1821 31.9119 14.1821L29.82 13.2104C29.82 13.2104 28.749 11.8506 28.0419 11.2098C27.326 10.5609 25.5616 9.35568 25.5616 9.35568C24.9019 8.86255 23.614 8.62077 22.9019 8.14457C22.5765 7.927 22.4705 7.6498 22.1996 7.41579C21.8075 7.07714 20.8698 6.44405 20.8698 6.44405C20.8698 6.44405 19.382 4.60344 18.0754 3.86289C17.3067 3.42721 15.2217 2.83224 15.2217 2.83224L9.25188 1.16708L5.00091 0.863467L5.00137 0.856689ZM16.5515 12.2848C16.5515 12.2848 17.2493 12.8559 17.7543 13.0743C18.4091 13.3575 20.0405 13.7138 20.0405 13.7138C20.7047 13.8996 21.1692 14.2478 21.4376 14.5927C21.5629 14.7537 21.5048 15.1071 21.5048 15.1071C21.5048 15.1071 20.9355 15.3863 20.8025 15.5644C20.6743 15.7362 20.7428 16.1109 20.7428 16.1109L18.0457 15.9287C17.1336 15.8671 16.3499 15.5818 15.4758 15.4429C14.9346 15.3569 13.8247 15.2286 13.8247 15.2286L13.6305 14.9856C13.6305 14.9856 14.7374 13.5714 15.5356 12.9243C15.82 12.6937 16.5516 12.2848 16.5516 12.2848L16.5515 12.2848Z" fill="#044DBA"/>
<path d="M39.6296 13.9375C38.4012 15.0625 36.8523 16.4375 31.4046 21.0625C31.265 21.185 31.11 21.3267 30.9416 21.4805C29.8218 22.5038 28.116 24.0625 26.491 24.0625C24.8854 24.0625 23.2798 22.6242 22.1407 21.6039C21.9157 21.4024 21.7089 21.2171 21.5239 21.0625C16.0762 16.4375 14.5273 15.0625 13.2989 13.9375C13.0853 13.75 12.8182 13.9375 12.8182 14.25V27C12.8182 28.6875 13.9398 30 15.3819 30H37.6001C38.9887 30 40.1637 28.6875 40.1637 27V14.25C40.1637 13.9375 39.8432 13.75 39.6296 13.9375ZM26.491 22C27.4791 22.0503 28.8128 20.8469 29.7693 19.9838C30.0019 19.7739 30.2122 19.5842 30.3898 19.4375C36.9067 13.9329 37.8943 13.005 39.2502 11.731C39.3723 11.6163 39.4973 11.4989 39.6296 11.375C39.9501 11.125 40.1637 10.6875 40.1637 10.1875V9C40.1637 7.375 38.9887 6 37.6001 6H15.3819C13.9398 6 12.8182 7.375 12.8182 9V10.1875C12.8182 10.6875 12.9785 11.125 13.2989 11.375C13.4312 11.4989 13.5562 11.6163 13.6783 11.731C15.0342 13.005 16.0218 13.9329 22.5387 19.4375C22.7121 19.5808 22.9167 19.7651 23.1432 19.9691C24.1025 20.8331 25.454 22.0506 26.491 22Z" fill="#044DBA"/>
<path d="M39.6296 13.9375C38.4012 15.0625 36.8523 16.4375 31.4046 21.0625C31.265 21.185 31.11 21.3267 30.9416 21.4805C29.8218 22.5038 28.116 24.0625 26.491 24.0625C24.8854 24.0625 23.2798 22.6242 22.1407 21.6039C21.9157 21.4024 21.7089 21.2171 21.5239 21.0625C16.0762 16.4375 14.5273 15.0625 13.2989 13.9375C13.0853 13.75 12.8182 13.9375 12.8182 14.25V27C12.8182 28.6875 13.9398 30 15.3819 30H37.6001C38.9887 30 40.1637 28.6875 40.1637 27V14.25C40.1637 13.9375 39.8432 13.75 39.6296 13.9375ZM26.491 22C27.4791 22.0503 28.8128 20.8469 29.7693 19.9838C30.0019 19.7739 30.2122 19.5842 30.3898 19.4375C36.9067 13.9329 37.8943 13.005 39.2502 11.731C39.3723 11.6163 39.4973 11.4989 39.6296 11.375C39.9501 11.125 40.1637 10.6875 40.1637 10.1875V9C40.1637 7.375 38.9887 6 37.6001 6H15.3819C13.9398 6 12.8182 7.375 12.8182 9V10.1875C12.8182 10.6875 12.9785 11.125 13.2989 11.375C13.4312 11.4989 13.5562 11.6163 13.6783 11.731C15.0342 13.005 16.0218 13.9329 22.5387 19.4375C22.7121 19.5808 22.9167 19.7651 23.1432 19.9691C24.1025 20.8331 25.454 22.0506 26.491 22Z" stroke="#044DBA"/>
</svg>
