<svg width="68" height="60" viewBox="0 0 68 60" fill="none" xmlns="http://www.w3.org/2000/svg">
<mask id="path-1-inside-1_57_82" fill="white">
<path d="M60.5355 35.0877C59.8413 35.0877 59.1621 35.1597 58.5107 35.3005C57.7061 32.8105 54.7618 30.9591 51.2633 30.9591C47.1468 30.9591 43.7979 33.5219 43.7979 36.6719V40.7815H24.2023V36.6719C24.2023 33.5219 20.8534 30.9591 16.7371 30.9591C13.2383 30.9591 10.2941 32.8107 9.48947 35.3005C8.83804 35.1599 8.15906 35.0879 7.46486 35.0879C3.34874 35.0879 0 37.6506 0 40.8007V50.1586C0 53.3086 3.34893 55.8714 7.46505 55.8714C8.15906 55.8714 8.83804 55.7994 9.48947 55.6585C10.2941 58.1484 13.2385 60 16.7371 60C20.8534 60 24.2021 57.4372 24.2021 54.2872V50.1779H43.7979V54.2872C43.7979 57.4372 47.1468 60 51.2629 60C54.7617 60 57.7059 58.1484 58.5105 55.6585C59.162 55.7994 59.8411 55.8714 60.5349 55.8714C64.6513 55.8714 68 53.3086 68 50.1586V40.8007C68.0004 37.6505 64.6516 35.0877 60.5355 35.0877ZM9.2722 52.924C8.7143 53.1404 8.10108 53.2529 7.46505 53.2529C5.23554 53.2529 3.42155 51.8648 3.42155 50.1586V40.8007C3.42155 39.0944 5.23535 37.7063 7.46486 37.7063C8.10127 37.7063 8.71468 37.8188 9.2722 38.0351V52.924V52.924ZM20.7808 54.2872C20.7808 55.9934 18.9668 57.3815 16.7373 57.3815C14.5077 57.3815 12.6937 55.9934 12.6937 54.2872V53.6486C12.6937 53.64 12.6937 53.6315 12.6937 53.623V37.3363C12.6937 37.3277 12.6937 37.319 12.6937 37.3102V36.6719C12.6937 34.9657 14.5075 33.5776 16.7371 33.5776C18.9668 33.5776 20.7808 34.9657 20.7808 36.6719V54.2872V54.2872ZM43.7979 47.5594H24.2023V43.4001H43.7979V47.5594ZM55.3064 37.3101C55.3064 37.319 55.3064 37.3278 55.3064 37.3366V53.6228C55.3064 53.6314 55.3064 53.64 55.3064 53.6484V54.287C55.3064 55.9933 53.4926 57.3814 51.2629 57.3814C49.0332 57.3814 47.2194 55.9933 47.2194 54.287V48.8685V36.6719C47.2194 34.9657 49.0334 33.5776 51.2633 33.5776C53.4928 33.5776 55.3066 34.9657 55.3066 36.6719V37.3101H55.3064ZM64.5788 50.1584C64.5788 51.8647 62.7648 53.2527 60.5353 53.2527C59.8993 53.2527 59.2861 53.1403 58.7282 52.9238V38.035C59.2859 37.8187 59.8993 37.7062 60.5357 37.7062C62.7652 37.7062 64.579 39.0943 64.579 40.8005V50.1584H64.5788ZM24.8792 19.6372C24.8792 20.3603 24.1133 20.9464 23.1684 20.9464H20.0816C19.1367 20.9464 18.3709 20.3603 18.3709 19.6372C18.3709 18.9141 19.1367 18.328 20.0816 18.328H23.1684C24.1133 18.328 24.8792 18.9141 24.8792 19.6372ZM24.8792 23.857C24.8792 24.5802 24.1133 25.1663 23.1684 25.1663H20.0816C19.1367 25.1663 18.3709 24.5802 18.3709 23.857C18.3709 23.1339 19.1367 22.5478 20.0816 22.5478H23.1684C24.1133 22.5478 24.8792 23.1339 24.8792 23.857ZM10.1166 29.6368C11.0615 29.6368 11.8273 29.0507 11.8273 28.3275V25.3947C14.0837 24.3823 15.5329 22.4995 15.5329 20.4594C15.5329 18.4195 14.0837 16.5365 11.8273 15.5241V15.4271C11.8273 13.7209 13.6411 12.3326 15.8707 12.3326H27.3794C29.37 12.3326 31.0291 13.4388 31.3623 14.8902C28.906 16.7356 27.068 19.7204 27.068 21.9887C27.068 24.7576 29.0645 26.4586 31.4233 27.0078V36.8209C31.4233 37.544 32.1891 38.1301 33.1341 38.1301C34.079 38.1301 34.8448 37.544 34.8448 36.8209V27.0079C37.2034 26.4589 39.2001 24.7578 39.2001 21.9887C39.2001 19.6888 37.3103 16.6518 34.8021 14.8132C34.4675 12.4281 32.2066 10.4773 29.2375 9.89322V5.90469C29.2375 5.18155 28.4716 4.59544 27.5267 4.59544H26.6345V1.30924C26.6345 0.586105 25.8686 0 24.9237 0H18.3268C17.3818 0 16.616 0.586105 16.616 1.30924V4.59544H15.7235C14.7786 4.59544 14.0128 5.18155 14.0128 5.90469V9.89322C10.7929 10.5269 8.40598 12.7677 8.40598 15.4271V16.3431C8.40598 16.8863 8.84432 17.3731 9.50753 17.5666C11.0651 18.0209 12.1115 19.1833 12.1115 20.4594C12.1115 21.7355 11.0651 22.8979 9.50753 23.3521C8.84413 23.5456 8.40598 24.0323 8.40598 24.5755V28.3274C8.40579 29.0507 9.17164 29.6368 10.1166 29.6368ZM33.1339 17.2794C34.6299 18.6483 35.7783 20.6149 35.7783 21.9887C35.7783 23.782 34.4502 24.5845 33.1341 24.5845C31.8177 24.5845 30.4894 23.7817 30.4894 21.9887C30.4896 20.6148 31.6379 18.6481 33.1339 17.2794ZM20.0373 2.61849H23.2127V4.59544H20.0373V2.61849V2.61849ZM17.4341 7.21393H25.8158V9.71415H17.4341V7.21393ZM53.3993 36.7675V37.2726C53.3993 37.9957 52.6335 38.5818 51.6885 38.5818C50.7436 38.5818 49.9778 37.9957 49.9778 37.2726V36.7675C49.9778 36.0443 50.7436 35.4582 51.6885 35.4582C52.6335 35.4582 53.3993 36.0443 53.3993 36.7675Z"/>
</mask>
<path d="M60.5355 35.0877C59.8413 35.0877 59.1621 35.1597 58.5107 35.3005C57.7061 32.8105 54.7618 30.9591 51.2633 30.9591C47.1468 30.9591 43.7979 33.5219 43.7979 36.6719V40.7815H24.2023V36.6719C24.2023 33.5219 20.8534 30.9591 16.7371 30.9591C13.2383 30.9591 10.2941 32.8107 9.48947 35.3005C8.83804 35.1599 8.15906 35.0879 7.46486 35.0879C3.34874 35.0879 0 37.6506 0 40.8007V50.1586C0 53.3086 3.34893 55.8714 7.46505 55.8714C8.15906 55.8714 8.83804 55.7994 9.48947 55.6585C10.2941 58.1484 13.2385 60 16.7371 60C20.8534 60 24.2021 57.4372 24.2021 54.2872V50.1779H43.7979V54.2872C43.7979 57.4372 47.1468 60 51.2629 60C54.7617 60 57.7059 58.1484 58.5105 55.6585C59.162 55.7994 59.8411 55.8714 60.5349 55.8714C64.6513 55.8714 68 53.3086 68 50.1586V40.8007C68.0004 37.6505 64.6516 35.0877 60.5355 35.0877ZM9.2722 52.924C8.7143 53.1404 8.10108 53.2529 7.46505 53.2529C5.23554 53.2529 3.42155 51.8648 3.42155 50.1586V40.8007C3.42155 39.0944 5.23535 37.7063 7.46486 37.7063C8.10127 37.7063 8.71468 37.8188 9.2722 38.0351V52.924V52.924ZM20.7808 54.2872C20.7808 55.9934 18.9668 57.3815 16.7373 57.3815C14.5077 57.3815 12.6937 55.9934 12.6937 54.2872V53.6486C12.6937 53.64 12.6937 53.6315 12.6937 53.623V37.3363C12.6937 37.3277 12.6937 37.319 12.6937 37.3102V36.6719C12.6937 34.9657 14.5075 33.5776 16.7371 33.5776C18.9668 33.5776 20.7808 34.9657 20.7808 36.6719V54.2872V54.2872ZM43.7979 47.5594H24.2023V43.4001H43.7979V47.5594ZM55.3064 37.3101C55.3064 37.319 55.3064 37.3278 55.3064 37.3366V53.6228C55.3064 53.6314 55.3064 53.64 55.3064 53.6484V54.287C55.3064 55.9933 53.4926 57.3814 51.2629 57.3814C49.0332 57.3814 47.2194 55.9933 47.2194 54.287V48.8685V36.6719C47.2194 34.9657 49.0334 33.5776 51.2633 33.5776C53.4928 33.5776 55.3066 34.9657 55.3066 36.6719V37.3101H55.3064ZM64.5788 50.1584C64.5788 51.8647 62.7648 53.2527 60.5353 53.2527C59.8993 53.2527 59.2861 53.1403 58.7282 52.9238V38.035C59.2859 37.8187 59.8993 37.7062 60.5357 37.7062C62.7652 37.7062 64.579 39.0943 64.579 40.8005V50.1584H64.5788ZM24.8792 19.6372C24.8792 20.3603 24.1133 20.9464 23.1684 20.9464H20.0816C19.1367 20.9464 18.3709 20.3603 18.3709 19.6372C18.3709 18.9141 19.1367 18.328 20.0816 18.328H23.1684C24.1133 18.328 24.8792 18.9141 24.8792 19.6372ZM24.8792 23.857C24.8792 24.5802 24.1133 25.1663 23.1684 25.1663H20.0816C19.1367 25.1663 18.3709 24.5802 18.3709 23.857C18.3709 23.1339 19.1367 22.5478 20.0816 22.5478H23.1684C24.1133 22.5478 24.8792 23.1339 24.8792 23.857ZM10.1166 29.6368C11.0615 29.6368 11.8273 29.0507 11.8273 28.3275V25.3947C14.0837 24.3823 15.5329 22.4995 15.5329 20.4594C15.5329 18.4195 14.0837 16.5365 11.8273 15.5241V15.4271C11.8273 13.7209 13.6411 12.3326 15.8707 12.3326H27.3794C29.37 12.3326 31.0291 13.4388 31.3623 14.8902C28.906 16.7356 27.068 19.7204 27.068 21.9887C27.068 24.7576 29.0645 26.4586 31.4233 27.0078V36.8209C31.4233 37.544 32.1891 38.1301 33.1341 38.1301C34.079 38.1301 34.8448 37.544 34.8448 36.8209V27.0079C37.2034 26.4589 39.2001 24.7578 39.2001 21.9887C39.2001 19.6888 37.3103 16.6518 34.8021 14.8132C34.4675 12.4281 32.2066 10.4773 29.2375 9.89322V5.90469C29.2375 5.18155 28.4716 4.59544 27.5267 4.59544H26.6345V1.30924C26.6345 0.586105 25.8686 0 24.9237 0H18.3268C17.3818 0 16.616 0.586105 16.616 1.30924V4.59544H15.7235C14.7786 4.59544 14.0128 5.18155 14.0128 5.90469V9.89322C10.7929 10.5269 8.40598 12.7677 8.40598 15.4271V16.3431C8.40598 16.8863 8.84432 17.3731 9.50753 17.5666C11.0651 18.0209 12.1115 19.1833 12.1115 20.4594C12.1115 21.7355 11.0651 22.8979 9.50753 23.3521C8.84413 23.5456 8.40598 24.0323 8.40598 24.5755V28.3274C8.40579 29.0507 9.17164 29.6368 10.1166 29.6368ZM33.1339 17.2794C34.6299 18.6483 35.7783 20.6149 35.7783 21.9887C35.7783 23.782 34.4502 24.5845 33.1341 24.5845C31.8177 24.5845 30.4894 23.7817 30.4894 21.9887C30.4896 20.6148 31.6379 18.6481 33.1339 17.2794ZM20.0373 2.61849H23.2127V4.59544H20.0373V2.61849V2.61849ZM17.4341 7.21393H25.8158V9.71415H17.4341V7.21393ZM53.3993 36.7675V37.2726C53.3993 37.9957 52.6335 38.5818 51.6885 38.5818C50.7436 38.5818 49.9778 37.9957 49.9778 37.2726V36.7675C49.9778 36.0443 50.7436 35.4582 51.6885 35.4582C52.6335 35.4582 53.3993 36.0443 53.3993 36.7675Z" fill="#060606" stroke="black" stroke-width="1394" mask="url(#path-1-inside-1_57_82)"/>
</svg>
