<svg width="68" height="60" viewBox="0 0 68 60" fill="none" xmlns="http://www.w3.org/2000/svg">
<g clip-path="url(#clip0_57_175)">
<path d="M12.9552 49.2529C13.4982 48.7079 13.4377 47.8775 12.8199 47.3983C11.4766 46.3566 10.2596 45.2227 9.17316 44.0022C11.3882 44.1012 13.6122 44.1022 15.8158 44.0051C16.6373 43.9687 17.2701 43.3518 17.229 42.6269C17.1879 41.9021 16.4899 41.3434 15.667 41.38C12.8025 41.5066 9.90216 41.4587 7.03461 41.2382C6.29683 40.1337 5.64983 38.9729 5.09563 37.7595C4.47277 36.3954 3.98756 35.0023 3.63983 33.5941C13.5689 35.0274 23.7127 34.0351 33.11 30.6942C42.5066 27.3537 50.5955 21.8654 56.6247 14.7602C57.477 15.9787 58.2245 17.2772 58.851 18.6491C59.4032 19.8587 59.847 21.0949 60.1817 22.3475C57.0329 25.5292 53.477 28.3896 49.6024 30.8566C48.9354 31.2813 48.7849 32.1028 49.2662 32.6914C49.7476 33.2798 50.6785 33.4128 51.3455 32.9881C54.7536 30.818 57.9267 28.3571 60.809 25.6508C61.2437 29.4628 60.702 33.3403 59.1787 37.0031C58.8952 37.6844 59.2915 38.4395 60.0638 38.6895C60.8361 38.9391 61.6917 38.5898 61.975 37.9085C64.0407 32.9418 64.4699 27.6174 63.273 22.5092C63.2643 22.4589 63.2526 22.4088 63.2374 22.3595C62.8542 20.7678 62.313 19.1981 61.6138 17.667C60.6327 15.5186 59.3847 13.5356 57.9154 11.7341C57.8903 11.7003 57.8633 11.6675 57.8345 11.6354C55.309 8.56694 52.1444 6.03398 48.5737 4.12309C48.5326 4.09446 48.3103 3.97411 48.241 3.94742C44.8773 2.19588 41.1674 0.992275 37.3042 0.409906C37.1806 0.377122 36.7776 0.334378 36.7028 0.324418C31.2478 -0.403612 25.508 0.103782 20.031 2.05077C12.1138 4.86537 5.91258 10.232 2.56985 17.1619C-0.772879 24.0918 -0.857067 31.7556 2.33281 38.7414C4.21958 42.874 7.08635 46.4506 10.8533 49.3724C11.1361 49.5918 11.4868 49.6995 11.836 49.6995C12.2494 49.6995 12.6608 49.5484 12.9552 49.2529ZM21.1442 4.48842C25.3558 2.99128 29.7344 2.43257 33.9851 2.69968C31.0561 5.5573 27.4133 7.80336 23.3218 9.25776C19.2238 10.7151 14.8256 11.3237 10.4626 11.0529C13.3712 8.20797 16.9981 5.96247 21.1442 4.48842ZM5.31057 18.1912C6.11686 16.5198 7.10641 14.9488 8.25995 13.4948C13.7196 14.1418 19.2923 13.5245 24.4352 11.6957C29.5727 9.86946 34.0691 6.91072 37.4936 3.11163C40.2968 3.59592 43.0045 4.44236 45.5218 5.61567C41.0584 11.3512 34.8502 15.7438 27.4798 18.3639C20.1048 20.9858 12.1744 21.6173 4.44628 20.2104C4.70119 19.5307 4.98918 18.8574 5.31057 18.1912ZM3.65473 22.7495C12.0186 24.3067 20.6095 23.6401 28.593 20.8017C36.5716 17.9653 43.2826 13.1956 48.086 6.96314C50.6227 8.45642 52.9068 10.3091 54.8268 12.4799C49.0669 19.5424 41.1945 24.9863 31.9969 28.2563C22.7965 31.5271 12.8415 32.4187 3.13831 30.8498C2.8152 28.1473 2.98781 25.4184 3.65473 22.7495ZM54.7542 48.3839C54.5161 48.5083 54.2546 48.5676 53.9967 48.5676C53.4876 48.5676 52.9919 48.3373 52.7138 47.9229C50.0082 43.8915 45.0334 41.3874 39.7307 41.3874C38.9081 41.3874 38.2414 40.799 38.2414 40.0732C38.2414 39.3474 38.9081 38.7591 39.7307 38.7591C46.0807 38.7591 52.0376 41.7572 55.2769 46.5836C55.6959 47.2081 55.4619 48.0143 54.7542 48.3839ZM66.5107 51.3374H64.4116C63.5799 46.4657 60.8822 41.9916 56.725 38.6347C52.2019 34.9821 46.332 32.9707 40.1962 32.9707C34.0605 32.9707 28.1904 34.9821 23.6674 38.6347C19.5102 41.9917 16.8124 46.4657 15.9806 51.3374H13.882C13.0594 51.3374 12.3927 51.9257 12.3927 52.6516V58.6783C12.3927 59.4041 13.0594 59.9924 13.882 59.9924H66.5107C67.3333 59.9924 68 59.4041 68 58.6783V52.6516C68 51.9257 67.3331 51.3374 66.5107 51.3374ZM40.1962 35.5989C50.8052 35.5989 59.6474 42.2693 61.3962 51.3374H18.996C20.7449 42.2692 29.5873 35.5989 40.1962 35.5989ZM65.0213 57.3642H15.3714V53.9657H65.0213V57.3642Z" fill="black"/>
</g>
<defs>
<clipPath id="clip0_57_175">
<rect width="68" height="60" fill="white"/>
</clipPath>
</defs>
</svg>
