<svg width="182" height="167" viewBox="0 0 182 167" fill="none" xmlns="http://www.w3.org/2000/svg">
<g filter="url(#filter0_d_68_2)">
<g clip-path="url(#clip0_68_2)">
<path d="M35.6227 71.8638C35.6227 86.5798 33.3411 98.5088 30.5266 98.5088C29.823 98.5088 28.6912 98.4116 28.0816 97.0632C26.2526 93.0184 25.4305 82.9 25.4305 71.863C25.4305 62.0125 26.2223 51.7877 27.7425 47.1774C28.4933 44.9003 29.5961 45.2188 30.5266 45.2188C33.3411 45.2188 35.6227 57.1479 35.6227 71.8627" fill="black"/>
<path d="M35.5998 71.8639C35.5998 71.8639 35.5957 71.3405 35.5878 70.3581C35.573 69.3766 35.5484 67.9346 35.4587 66.1193C35.4157 65.2115 35.3581 64.21 35.2718 63.134C35.1884 62.0571 35.0863 60.8999 34.9503 59.6884C34.6826 57.2692 34.2937 54.5946 33.6954 52.0159C33.3966 50.7311 33.0418 49.4763 32.6119 48.3969C32.3942 47.8687 32.1616 47.3757 31.9083 46.9691C31.6546 46.566 31.3794 46.2631 31.0925 46.087C31.02 46.0321 30.9506 46.0081 30.8813 45.9833L30.7767 45.9415L30.6552 45.9275L30.5332 45.914L30.4207 45.9127L30.1731 45.9097C29.8461 45.9036 29.5211 45.8892 29.2082 45.999C28.8944 46.0975 28.5944 46.3285 28.3315 46.7412C28.2703 46.855 28.1988 46.963 28.1472 47.0881L28.0639 47.2672L27.9706 47.5161L27.9236 47.6429C27.9236 47.6425 27.907 47.6887 27.9208 47.6499L27.9107 47.683L27.8909 47.7488L27.8111 48.0134L27.6513 48.5451C27.2487 50.0421 26.9365 51.8024 26.6821 53.6494C26.4273 55.5008 26.2336 57.4532 26.0735 59.445C25.9139 61.4375 25.7993 63.4807 25.7166 65.5416C25.6301 67.6087 25.5757 69.6701 25.5587 71.7778C25.5472 73.8579 25.5616 75.9565 25.6093 78.0336C25.6647 80.1116 25.7595 82.1726 25.9019 84.1904C25.9687 85.2024 26.0622 86.1934 26.1569 87.1757C26.2102 87.6621 26.2632 88.1471 26.3162 88.6314C26.3793 89.1047 26.4423 89.5762 26.5051 90.0469C26.7721 91.9044 27.1153 93.6646 27.5608 95.1154L27.7322 95.6266C27.7894 95.7966 27.8418 95.9705 27.9123 96.1239L28.1101 96.5963L28.1593 96.7149C28.1646 96.7258 28.1824 96.7724 28.1773 96.7545L28.2016 96.7999C28.2345 96.8587 28.2646 96.9254 28.2993 96.9777C28.5714 97.4144 28.8915 97.644 29.2113 97.7765C29.5322 97.9134 29.8581 97.9504 30.1813 97.9574C30.5117 97.974 30.8113 97.9496 31.1011 97.7478C31.3907 97.5521 31.6683 97.2444 31.9224 96.8291C32.1766 96.412 32.4087 95.9099 32.6262 95.3756C33.0553 94.2825 33.4076 93.0191 33.705 91.7291C34.3004 89.1413 34.688 86.4649 34.9547 84.0431C35.0903 82.8315 35.1924 81.674 35.2756 80.5966C35.3618 79.5201 35.4192 78.5182 35.4619 77.6099C35.5512 75.7943 35.5746 74.3513 35.5887 73.3715C35.596 72.3879 35.5998 71.864 35.5998 71.864L35.5998 71.8639ZM35.6463 71.865C35.6463 71.865 35.6442 72.3901 35.6401 73.3742C35.6291 74.36 35.6067 75.8043 35.5428 77.6369C35.4694 79.4643 35.375 81.6957 35.1486 84.1955C34.9231 86.6871 34.602 89.4977 34.0185 92.2769C33.8747 92.9729 33.7079 93.6537 33.5269 94.3261C33.3382 94.9833 33.1356 95.6344 32.904 96.2346C32.4436 97.4249 31.8663 98.4591 31.1905 98.8661C30.8543 99.0775 30.498 99.0779 30.1717 99.0383C29.8371 98.9969 29.496 98.9119 29.1532 98.7241C28.8118 98.5367 28.4618 98.2521 28.1434 97.689C28.1034 97.6219 28.0663 97.5347 28.0277 97.4584L27.9992 97.3987C27.976 97.3486 27.9792 97.3495 27.9678 97.322L27.9203 97.1983L27.7303 96.7005C27.6653 96.5458 27.6067 96.3423 27.5469 96.1488L27.3682 95.5652C26.9211 93.9727 26.6091 92.1205 26.3501 90.216C26.0955 88.3019 25.9092 86.3032 25.7631 84.2697C25.4736 80.1975 25.3351 75.9935 25.3042 71.7683C25.2898 69.6768 25.313 67.5408 25.3702 65.4463C25.4335 63.3474 25.5295 61.2602 25.6727 59.2088C25.8175 57.1583 26.0104 55.1457 26.2631 53.2054C26.5178 51.2699 26.8337 49.3964 27.2672 47.7289C27.3237 47.525 27.3836 47.3275 27.4417 47.1275L27.5294 46.829L27.5514 46.7544L27.5624 46.717L27.5824 46.6594L27.6286 46.5304L27.7223 46.272L27.8417 45.997C27.9222 45.8083 28.0038 45.6845 28.0862 45.5346C28.4242 44.9989 28.7946 44.7274 29.149 44.6137C29.5052 44.4895 29.8489 44.5025 30.1793 44.5121L30.4239 44.5239L30.5564 44.5309L30.6783 44.5492L30.7998 44.5675L30.9354 44.6207C31.0264 44.6546 31.1163 44.693 31.1989 44.7575C31.881 45.1942 32.4584 46.2466 32.9182 47.4509C33.1493 48.0575 33.351 48.7143 33.5387 49.3759C33.7188 50.0531 33.8852 50.7364 34.0281 51.4355C34.6087 54.2239 34.9284 57.0367 35.153 59.5296C35.3791 62.0316 35.4733 64.263 35.546 66.0908C35.6095 67.9243 35.6309 69.3686 35.6413 70.354C35.6447 71.3394 35.6464 71.8654 35.6464 71.8654" fill="white" fill-opacity="0.5"/>
<path d="M41.5399 71.8662C41.5399 91.6344 38.4748 107.661 34.6939 107.661C33.7487 107.661 32.2282 107.531 31.4092 105.72C28.9521 100.286 27.8479 86.6935 27.8479 71.8668C27.8479 58.6337 28.9115 44.8986 30.9538 38.7038C31.9624 35.6444 33.4441 36.0723 34.694 36.0723C38.4749 36.0723 41.54 52.0981 41.54 71.8664" fill="black"/>
<path d="M41.5165 71.8661C41.5165 71.8661 41.5112 71.1623 41.5015 69.8422C41.4824 68.5234 41.4499 66.5862 41.3339 64.1439C41.2775 62.9232 41.2028 61.5757 41.0911 60.1266C40.9828 58.6757 40.8492 57.1163 40.6708 55.4825C40.3184 52.2195 39.8079 48.6031 39.0071 45.103C38.6076 43.3581 38.13 41.6527 37.5471 40.1783C37.2524 39.4553 36.9356 38.7819 36.5895 38.2245C36.2432 37.6715 35.8661 37.2535 35.4717 37.009C35.3725 36.9336 35.2757 36.8992 35.179 36.8643L35.0333 36.8059L34.8699 36.7867L34.706 36.7671L34.5516 36.7645C34.4411 36.7628 34.3305 36.761 34.2195 36.7593C33.7795 36.7506 33.3397 36.7314 32.912 36.8818C32.4835 37.0164 32.0683 37.3333 31.7021 37.909C31.6567 37.9826 31.614 38.0676 31.5696 38.1456C31.5243 38.2236 31.4812 38.3047 31.4444 38.3949L31.3261 38.6516C31.2849 38.7562 31.2426 38.8765 31.2007 38.9881L31.1378 39.1589C31.1364 39.162 31.1184 39.2116 31.131 39.1768L31.1174 39.2221L31.0904 39.3123L30.9818 39.6732C30.9098 39.9151 30.8353 40.1517 30.7646 40.3993C30.2185 42.4393 29.7984 44.8237 29.4565 47.3205C29.1146 49.8225 28.8544 52.4557 28.6421 55.1412C28.4304 57.8289 28.2798 60.5802 28.1719 63.3559C28.0608 66.1378 27.9931 68.9196 27.9755 71.7481C27.9647 74.5491 27.9889 77.3683 28.0577 80.1612C28.1392 82.9531 28.2698 85.7222 28.4577 88.4382C28.5468 89.7993 28.6717 91.1325 28.7986 92.4548C28.8699 93.1094 28.941 93.7623 29.0119 94.4134C29.0962 95.0514 29.1802 95.6873 29.264 96.3214C29.6214 98.8248 30.077 101.206 30.6757 103.179L30.9072 103.879C30.9844 104.11 31.056 104.35 31.1496 104.555L31.4141 105.195L31.48 105.354C31.4882 105.372 31.5084 105.427 31.5065 105.415L31.5398 105.478C31.5851 105.559 31.6266 105.653 31.674 105.725C32.0477 106.334 32.4827 106.652 32.9161 106.839C33.351 107.032 33.7914 107.09 34.2274 107.105C34.6708 107.131 35.0829 107.103 35.4802 106.83C35.8771 106.567 36.2566 106.143 36.6036 105.579C36.9504 105.011 37.2668 104.327 37.5614 103.599C38.1433 102.111 38.6186 100.397 39.0167 98.647C39.8146 95.1373 40.3238 91.5195 40.6751 88.2544C40.8534 86.6196 40.9866 85.0598 41.0948 83.609C41.2065 82.1594 41.2809 80.8111 41.337 79.5903C41.4526 77.1474 41.4841 75.2099 41.5024 73.892C41.5115 72.5706 41.5165 71.8663 41.5165 71.8663L41.5165 71.8661ZM41.563 71.8673C41.563 71.8673 41.5597 72.5728 41.5538 73.8947C41.5385 75.2179 41.5081 77.1582 41.4181 79.6175C41.3174 82.0702 41.1802 85.0601 40.869 88.4067C40.5589 91.7416 40.1161 95.4944 39.3302 99.195C39.1368 100.122 38.9121 101.027 38.67 101.922C38.4177 102.796 38.1476 103.662 37.8391 104.458C37.5304 105.252 37.188 105.98 36.8097 106.594C36.4308 107.201 36.0128 107.68 35.5694 107.949C35.1259 108.231 34.657 108.236 34.2177 108.186C33.7703 108.137 33.3147 108.03 32.8578 107.787C32.6296 107.667 32.4007 107.514 32.1751 107.295C31.9504 107.076 31.7256 106.817 31.5181 106.437C31.4652 106.349 31.4167 106.236 31.3659 106.136L31.3284 106.059C31.3019 106.003 31.3026 105.996 31.2884 105.962L31.2244 105.797L30.9677 105.132C30.8794 104.925 30.8018 104.656 30.7218 104.4L30.483 103.629C29.8828 101.514 29.4583 99.0415 29.109 96.4912C28.7635 93.929 28.5148 91.2456 28.3166 88.5188C28.1179 85.7906 27.9766 83.0087 27.8847 80.2033C27.7897 77.3971 27.737 74.5772 27.721 71.7384C27.7072 68.9265 27.7435 66.0696 27.8255 63.2609C27.9139 60.4473 28.046 57.651 28.2413 54.9049C28.4384 52.161 28.6977 49.4672 29.0375 46.8758C29.3796 44.2909 29.8033 41.7933 30.3804 39.5828C30.4554 39.313 30.5351 39.0515 30.6123 38.7865L30.7288 38.3913L30.7579 38.2928L30.7725 38.2435L30.7965 38.1747L30.8587 38.0021L30.9845 37.6565L31.1389 37.3035C31.1902 37.181 31.2432 37.0808 31.2965 36.9875C31.3499 36.892 31.4022 36.7909 31.4567 36.702C31.8981 36.0034 32.3835 35.646 32.8526 35.4957C33.3237 35.3314 33.7822 35.3493 34.2257 35.3611C34.3357 35.3659 34.4453 35.3707 34.5547 35.3754L34.6361 35.3781L34.6767 35.379L34.7292 35.3842L34.8929 35.4078L35.0562 35.4317L35.2332 35.501C35.3516 35.5459 35.4689 35.5943 35.578 35.6797C36.0239 35.9682 36.4443 36.452 36.8238 37.0713C37.2028 37.695 37.5446 38.4333 37.8533 39.2321C38.1614 40.0344 38.4308 40.9061 38.682 41.7851C38.9232 42.6847 39.1473 43.5921 39.3399 44.5226C40.1227 48.2327 40.5642 51.9869 40.8734 55.3239C41.1839 58.6718 41.3212 61.662 41.4212 64.1157C41.5109 66.5754 41.5402 68.5161 41.5549 69.8384C41.5602 71.1616 41.563 71.8676 41.563 71.8676" fill="#E6E6E6" fill-opacity="0.5"/>
<path d="M43.9089 71.8569C43.9089 91.6252 40.8439 107.652 37.0629 107.652C36.1177 107.652 34.5973 107.522 33.7782 105.71C31.3211 100.277 30.2169 86.6842 30.2169 71.8575C30.2169 58.6244 31.2805 44.8893 33.3228 38.6945C34.3314 35.6351 35.8131 36.063 37.063 36.063C40.8439 36.063 43.909 52.0888 43.909 71.8571" fill="black"/>
<path d="M43.8855 71.8558C43.8855 71.8558 43.8803 71.1519 43.8705 69.8318C43.8514 68.513 43.8189 66.5758 43.703 64.1336C43.6466 62.9128 43.5719 61.5653 43.4601 60.1162C43.3518 58.6654 43.2182 57.106 43.0398 55.4721C42.6874 52.2091 42.1769 48.5927 41.3761 45.0927C40.9766 43.3477 40.499 41.6423 39.9161 40.1679C39.6214 39.4449 39.3046 38.7715 38.9585 38.2142C38.6122 37.6611 38.2351 37.2432 37.8407 36.9986C37.7415 36.9232 37.6447 36.8888 37.548 36.8539L37.4023 36.7955L37.239 36.7764L37.075 36.7568L36.9206 36.7541C36.8101 36.7524 36.6995 36.7507 36.5885 36.7489C36.1486 36.7402 35.7087 36.721 35.281 36.8714C34.8525 37.006 34.4373 37.3229 34.0711 37.8986C34.0257 37.9723 33.9831 38.0572 33.9386 38.1353C33.8933 38.2133 33.8503 38.2943 33.8134 38.3845L33.6951 38.6412C33.6539 38.7458 33.6116 38.8661 33.5698 38.9777L33.5068 39.1485C33.5054 39.1516 33.4875 39.2013 33.5 39.1664L33.4864 39.2117L33.4594 39.3019L33.3508 39.6628C33.2789 39.9047 33.2043 40.1413 33.1337 40.3889C32.5875 42.4289 32.1674 44.8134 31.8255 47.3101C31.4836 49.8121 31.2234 52.4453 31.0111 55.1308C30.7994 57.8185 30.6488 60.5698 30.5409 63.3456C30.4298 66.1274 30.3621 68.9092 30.3446 71.7377C30.3337 74.5387 30.3579 77.358 30.4267 80.1508C30.5082 82.9427 30.6389 85.7119 30.8267 88.4278C30.9158 89.7889 31.0407 91.1221 31.1676 92.4444C31.2389 93.099 31.3101 93.7519 31.3809 94.403C31.4652 95.041 31.5492 95.6769 31.633 96.311C31.9904 98.8144 32.446 101.195 33.0447 103.169L33.2762 103.868C33.3534 104.1 33.425 104.339 33.5186 104.545L33.7832 105.184L33.849 105.344C33.8572 105.362 33.8774 105.416 33.8755 105.404L33.9088 105.468C33.9541 105.549 33.9956 105.642 34.043 105.715C34.4167 106.324 34.8517 106.642 35.2852 106.829C35.72 107.022 36.1604 107.08 36.5964 107.095C37.0398 107.121 37.4519 107.092 37.8492 106.82C38.2461 106.556 38.6257 106.133 38.9726 105.568C39.3195 105 39.6358 104.317 39.9304 103.589C40.5123 102.101 40.9876 100.387 41.3858 98.6366C42.1836 95.1269 42.6928 91.5092 43.0442 88.244C43.2224 86.6092 43.3557 85.0495 43.4638 83.5986C43.5756 82.1491 43.6499 80.8007 43.7061 79.5799C43.8217 77.1371 43.8531 75.1995 43.8714 73.8816C43.8806 72.5603 43.8855 71.856 43.8855 71.856L43.8855 71.8558ZM43.932 71.8569C43.932 71.8569 43.9288 72.5625 43.9229 73.8844C43.9075 75.2076 43.8771 77.1478 43.7871 79.6071C43.6864 82.0599 43.5492 85.0497 43.238 88.3963C42.9279 91.7312 42.4851 95.4841 41.6992 99.1846C41.5058 100.112 41.2811 101.016 41.039 101.912C40.7867 102.786 40.5166 103.652 40.2081 104.448C39.8994 105.241 39.557 105.97 39.1787 106.584C38.7998 107.19 38.3818 107.669 37.9385 107.939C37.4949 108.22 37.026 108.225 36.5868 108.176C36.1393 108.126 35.6837 108.02 35.2268 107.777C34.9986 107.657 34.7697 107.503 34.5442 107.284C34.3195 107.065 34.0946 106.807 33.8871 106.427C33.8342 106.339 33.7857 106.226 33.7349 106.126L33.6974 106.048C33.6709 105.993 33.6717 105.986 33.6574 105.951L33.5934 105.786L33.3368 105.122C33.2484 104.915 33.1708 104.646 33.0908 104.39L32.852 103.618C32.2518 101.503 31.8273 99.0313 31.478 96.4808C31.1325 93.9186 30.8838 91.2352 30.6856 88.5084C30.4869 85.7802 30.3456 82.9983 30.2537 80.1929C30.1587 77.3867 30.106 74.5669 30.09 71.728C30.0762 68.9161 30.1125 66.0592 30.1945 63.2505C30.283 60.4369 30.415 57.6406 30.6103 54.8945C30.8074 52.1506 31.0667 49.4568 31.4066 46.8654C31.7486 44.2806 32.1723 41.7829 32.7494 39.5724C32.8244 39.3026 32.9041 39.0412 32.9813 38.7762L33.0978 38.3809L33.1269 38.2824L33.1415 38.2331L33.1655 38.1643L33.2277 37.9917L33.3535 37.6461L33.5079 37.2931C33.5592 37.1706 33.6122 37.0704 33.6655 36.9771C33.719 36.8817 33.7712 36.7806 33.8257 36.6917C34.2671 35.993 34.7525 35.6357 35.2216 35.4854C35.6927 35.3211 36.1512 35.3389 36.5947 35.3507C36.7047 35.3555 36.8143 35.3603 36.9237 35.3651L37.0051 35.3677L37.0457 35.3686L37.0982 35.3738L37.2619 35.3974L37.4252 35.4213L37.6022 35.4906C37.7206 35.5355 37.8379 35.5839 37.947 35.6693C38.3929 35.9578 38.8133 36.4416 39.1929 37.061C39.5718 37.6846 39.9137 38.4229 40.2224 39.2217C40.5305 40.0241 40.7998 40.8957 41.051 41.7748C41.2922 42.6743 41.5163 43.5817 41.7089 44.5122C42.4917 48.2224 42.9332 51.9765 43.2424 55.3135C43.5529 58.6615 43.6903 61.6516 43.7902 64.1053C43.88 66.5651 43.9092 68.5058 43.924 69.828C43.9292 71.1512 43.932 71.8573 43.932 71.8573" fill="#E6E6E6" fill-opacity="0.5"/>
<path d="M43.6997 71.8569C43.6997 91.6252 41.1326 107.652 37.9658 107.652C34.7991 107.652 32.5419 91.6264 32.5419 71.8569C32.5419 52.0875 34.7991 36.0629 37.9658 36.0629C41.1326 36.0629 43.6997 52.0887 43.6997 71.8569" fill="black"/>
<path d="M43.6768 71.8557C43.6768 71.8557 43.6728 71.1994 43.6652 69.9687C43.6486 68.7389 43.6277 66.9314 43.5395 64.6473C43.458 62.3623 43.2962 59.6045 43.0389 56.4983C42.7705 53.4036 42.3913 49.9476 41.7876 46.4479C41.7106 46.0134 41.6355 45.5706 41.549 45.1409C41.5068 44.9243 41.4645 44.7064 41.4219 44.4876C41.3768 44.2736 41.3314 44.0587 41.2858 43.8426C41.1984 43.4037 41.0943 42.9919 40.9973 42.5613C40.8905 42.152 40.791 41.7193 40.6731 41.3257C40.4483 40.5124 40.1953 39.7476 39.9154 39.0621C39.6354 38.3787 39.3243 37.7808 38.9834 37.3676C38.8966 37.2792 38.8118 37.1667 38.723 37.0944C38.6344 37.0329 38.5432 36.9405 38.4564 36.9009L38.3264 36.8407C38.2835 36.8189 38.2415 36.7936 38.1873 36.7923L38.0335 36.7706L37.9565 36.7597C37.9777 36.7601 37.9523 36.7618 37.9525 36.7627L37.9351 36.7657L37.9002 36.7723C37.5272 36.8019 37.1551 37.0887 36.8109 37.5964C36.1185 38.6184 35.5532 40.4144 35.0918 42.4091C34.8626 43.4176 34.6563 44.4858 34.4689 45.5936C34.2871 46.7098 34.1171 47.8551 33.9698 49.0352C33.6703 51.3908 33.4438 53.8567 33.2545 56.3653C33.0687 58.8774 32.9336 61.4434 32.8398 64.0335C32.7414 66.6275 32.6853 69.2294 32.669 71.8565C32.6562 74.4753 32.6824 77.0972 32.7529 79.7012C32.8318 82.3026 32.9522 84.8848 33.1242 87.4192C33.2124 88.6852 33.3136 89.9391 33.4337 91.1711C33.5485 92.4075 33.6849 93.6204 33.8368 94.8076C33.9877 95.9961 34.1599 97.1532 34.3497 98.2737C34.5441 99.3881 34.7575 100.463 34.9943 101.479C35.4694 103.489 36.0579 105.295 36.7752 106.309C36.82 106.37 36.8637 106.439 36.9091 106.494L37.0475 106.643C37.1382 106.754 37.2332 106.821 37.3274 106.889C37.4219 106.974 37.5134 106.995 37.6048 107.039C37.6902 107.094 37.8043 107.078 37.9041 107.1C38.2754 107.12 38.6591 106.88 38.9987 106.444C39.6874 105.568 40.2403 104.043 40.6898 102.423C40.8072 102.027 40.9063 101.591 41.0126 101.179C41.1088 100.746 41.2125 100.332 41.2991 99.8911C41.3444 99.6745 41.3895 99.4588 41.4344 99.244C41.4767 99.0243 41.5187 98.806 41.5607 98.5889C41.6467 98.1574 41.7214 97.7133 41.7978 97.2775C42.3979 93.77 42.7761 90.3131 43.0432 87.2166C43.3002 84.1096 43.4618 81.3517 43.5427 79.0659C43.6304 76.7809 43.6503 74.9735 43.6662 73.7445C43.673 72.5128 43.6768 71.8556 43.6768 71.8556L43.6768 71.8557ZM43.7233 71.8565C43.7233 71.8565 43.7214 72.5142 43.7177 73.7467C43.7047 74.9804 43.6861 76.7891 43.6239 79.0868C43.5546 81.3814 43.4547 84.1719 43.24 87.336C43.0161 90.4878 42.7083 94.0498 42.1327 97.7132C41.8421 99.5372 41.4913 101.397 41.0166 103.132C40.7855 104.01 40.5135 104.836 40.2078 105.59C39.9016 106.339 39.5559 107.022 39.162 107.494C38.7673 107.969 38.336 108.23 37.8826 108.179C37.7773 108.152 37.6828 108.16 37.5648 108.087C37.4522 108.027 37.3363 107.981 37.2326 107.877C37.1258 107.788 37.0189 107.7 36.918 107.566L36.7642 107.382C36.7142 107.315 36.6663 107.235 36.6173 107.162C36.2263 106.564 35.8823 105.755 35.5803 104.846C35.2788 103.934 35.0133 102.927 34.783 101.857C34.5526 100.786 34.349 99.6658 34.1661 98.5122C33.9903 97.3512 33.8225 96.1727 33.6798 94.962C33.3912 92.5437 33.167 90.0421 32.9832 87.4977C32.8005 84.9534 32.6694 82.3594 32.5799 79.745C32.4832 77.1323 32.4285 74.4959 32.4146 71.8566C32.3994 69.2251 32.4242 66.5683 32.493 63.946C32.5674 61.3194 32.6838 58.7097 32.8528 56.1422C33.0263 53.5784 33.2514 51.0553 33.5468 48.6208C33.6931 47.4018 33.8632 46.2111 34.0469 45.0453C34.2366 43.8857 34.4474 42.7586 34.6854 41.6813C35.1631 39.5462 35.7729 37.5636 36.5816 36.3582C36.9833 35.7637 37.4347 35.4046 37.8864 35.3741L37.9286 35.3684L37.9497 35.3654C37.9628 35.3658 37.9503 35.361 37.9844 35.3654L38.0613 35.3784L38.2148 35.405C38.2633 35.4068 38.3221 35.436 38.3797 35.4634L38.5511 35.5462C38.6649 35.6042 38.7656 35.7084 38.8727 35.7886C38.9775 35.8788 39.076 36.0091 39.1774 36.1185C39.5732 36.6127 39.9207 37.3009 40.2266 38.0622C40.5322 38.8266 40.8028 39.6604 41.0332 40.5438C41.5061 42.2905 41.854 44.158 42.143 45.9854C42.7151 49.6571 43.0216 53.22 43.2444 56.3741C43.4586 59.5386 43.5585 62.3291 43.627 64.6246C43.6889 66.9232 43.7064 68.7317 43.7188 69.9647C43.7217 71.1984 43.7233 71.8566 43.7233 71.8566" fill="#E6E6E6" fill-opacity="0.5"/>
<path d="M40.5462 71.8569C40.5462 80.7528 39.391 87.9646 37.966 87.9646C36.5408 87.9646 35.6954 80.7531 35.6954 71.8569C35.6954 62.9607 36.5408 55.7491 37.966 55.7491C39.391 55.7491 40.5462 62.9607 40.5462 71.8569Z" fill="black"/>
<path d="M40.5228 71.8557C40.5228 71.8557 40.5203 71.5624 40.5158 71.012C40.5068 70.4624 40.497 69.6539 40.4502 68.635C40.4081 67.6161 40.3277 66.3867 40.1956 65.0142C40.0616 63.6458 39.8744 62.1261 39.5968 60.6041C39.4561 59.8489 39.2974 59.0827 39.1006 58.3884C38.9028 57.7059 38.6714 57.0535 38.3951 56.7105C38.3263 56.6268 38.2562 56.5601 38.1849 56.5131L38.0899 56.4664C38.0492 56.4568 37.9996 56.4538 37.9546 56.4477C37.9484 56.4464 37.9759 56.4494 37.9611 56.449L37.9543 56.4507L37.9408 56.4538L37.9136 56.4586L37.859 56.4664C37.8235 56.4869 37.7873 56.4982 37.7516 56.5213C37.6808 56.5745 37.6104 56.6434 37.5426 56.7423C37.2687 57.135 37.0349 57.8985 36.8444 58.7706C36.463 60.5431 36.2478 62.7361 36.0926 64.958C36.0151 66.0754 35.9573 67.2173 35.9156 68.3704C35.8692 69.528 35.8383 70.6781 35.8225 71.8591C35.8092 73.0214 35.8101 74.1968 35.8285 75.3605C35.8512 76.5245 35.893 77.6817 35.9606 78.8178C36.0999 81.0745 36.3296 83.3063 36.7449 85.1071C36.949 85.997 37.2069 86.7762 37.5074 87.1633C37.8059 87.5529 38.136 87.4884 38.4112 87.1001C38.6922 86.7227 38.9214 86.0541 39.1172 85.3594C39.312 84.6529 39.468 83.8806 39.607 83.1214C39.8811 81.5913 40.0671 80.0706 40.1999 78.7005C40.3315 77.3272 40.412 76.0969 40.4533 75.0779C40.4998 74.0585 40.5084 73.2496 40.5166 72.7005C40.5205 72.1492 40.5227 71.8555 40.5227 71.8555L40.5228 71.8557ZM40.5692 71.8564C40.569 71.8564 40.5763 73.034 40.5345 75.0985C40.5095 76.1301 40.4733 77.3834 40.3947 78.8182C40.3094 80.2455 40.1907 81.8685 39.9425 83.5538C39.818 84.3945 39.6599 85.2483 39.4462 86.0615C39.3416 86.4721 39.2155 86.8573 39.0745 87.2173C38.9327 87.5733 38.7715 87.9076 38.5829 88.1395C38.3958 88.3731 38.184 88.5138 37.969 88.5034L37.949 88.5012L37.9404 88.4994L37.9232 88.496L37.8886 88.4864L37.8184 88.4663C37.7621 88.4358 37.7033 88.4084 37.6496 88.367C37.546 88.2807 37.4454 88.1674 37.3522 88.0201C36.977 87.4234 36.7212 86.4628 36.5293 85.4653C36.3364 84.4572 36.205 83.3716 36.0903 82.2703C35.9806 81.1637 35.8916 80.0332 35.8209 78.8844C35.7512 77.7356 35.6965 76.5706 35.6557 75.3974C35.6108 74.2233 35.5818 73.0444 35.568 71.8529C35.5525 70.6805 35.5517 69.4759 35.5685 68.2962C35.5905 67.1116 35.6291 65.9314 35.6889 64.7643C35.7512 63.5976 35.8391 62.4471 35.9559 61.3245C36.0742 60.2031 36.2223 59.1061 36.4297 58.0816C36.6355 57.0657 36.9151 56.0894 37.3171 55.4984C37.4169 55.3528 37.5241 55.243 37.6338 55.1624C37.689 55.1249 37.7454 55.1036 37.8011 55.0761L37.8851 55.06L37.9272 55.0534L37.9481 55.0508L37.9587 55.0495C37.9497 55.0491 37.983 55.0508 37.9825 55.0508L38.1225 55.08C38.1811 55.1066 38.2423 55.1319 38.2974 55.1689C38.4031 55.2452 38.5039 55.3489 38.5992 55.474C38.9789 55.9935 39.2505 56.7997 39.463 57.6147C39.6747 58.4393 39.83 59.3 39.9529 60.1451C40.1976 61.8383 40.3149 63.4621 40.399 64.8916C40.4772 66.3267 40.5134 67.5805 40.5377 68.6126C40.5784 70.6775 40.5691 71.8564 40.5692 71.8564" fill="#E6E6E6" fill-opacity="0.5"/>
<path d="M117.645 71.8638C117.645 86.5798 119.927 98.5088 122.741 98.5088C123.445 98.5088 124.576 98.4116 125.186 97.0632C127.015 93.0184 127.837 82.9 127.837 71.863C127.837 62.0125 127.045 51.7877 125.525 47.1774C124.774 44.9003 123.672 45.2188 122.741 45.2188C119.927 45.2188 117.645 57.1479 117.645 71.8627" fill="black"/>
<path d="M117.624 71.865C117.624 71.865 117.626 71.3389 117.629 70.3536C117.64 69.3682 117.661 67.9239 117.725 66.0904C117.797 64.2626 117.892 62.0312 118.118 59.5291C118.342 57.0362 118.662 54.2234 119.243 51.4351C119.385 50.7365 119.552 50.0527 119.732 49.3754C119.92 48.7138 120.121 48.0571 120.353 47.4504C120.812 46.2462 121.39 45.1937 122.072 44.7571C122.154 44.6926 122.244 44.6542 122.335 44.6202L122.471 44.567L122.593 44.5487L122.714 44.5304L122.847 44.5235L123.091 44.5117C123.422 44.5021 123.766 44.4895 124.122 44.6132C124.476 44.727 124.847 44.9985 125.184 45.5341C125.267 45.684 125.348 45.8078 125.429 45.997L125.549 46.2715L125.642 46.53L125.688 46.659L125.708 46.7165L125.719 46.754L125.741 46.8285L125.829 47.127C125.887 47.3271 125.947 47.5245 126.004 47.7285C126.437 49.3959 126.753 51.2694 127.008 53.205C127.26 55.1452 127.453 57.1578 127.598 59.2084C127.741 61.2597 127.837 63.3469 127.901 65.4458C127.958 67.5404 127.981 69.6768 127.966 71.7679C127.936 75.9935 127.797 80.1975 127.508 84.2693C127.361 86.3028 127.175 88.3015 126.921 90.2156C126.662 92.1202 126.35 93.9724 125.903 95.5648L125.724 96.1484C125.664 96.3419 125.605 96.5454 125.54 96.7001L125.35 97.1978L125.303 97.3216C125.292 97.349 125.295 97.3482 125.271 97.3983L125.243 97.458C125.204 97.5342 125.167 97.6214 125.127 97.6885C124.809 98.2516 124.459 98.5362 124.118 98.7236C123.775 98.9114 123.434 98.9964 123.099 99.0378C122.773 99.0775 122.416 99.077 122.08 98.8657C121.405 98.4586 120.827 97.4244 120.367 96.2342C120.135 95.6341 119.933 94.983 119.744 94.3257C119.563 93.6532 119.396 92.9725 119.252 92.2765C118.669 89.4973 118.348 86.6867 118.122 84.195C117.896 81.6952 117.801 79.4638 117.728 77.6364C117.664 75.8039 117.642 74.3595 117.631 73.3737C117.627 72.3896 117.624 71.8645 117.624 71.8645L117.624 71.865ZM117.671 71.8636C117.671 71.8636 117.675 72.3874 117.682 73.3711C117.696 74.3508 117.72 75.7938 117.809 77.6094C117.852 78.5177 117.909 79.5197 117.995 80.5961C118.078 81.6735 118.18 82.831 118.316 84.0426C118.583 86.4644 118.97 89.1408 119.566 91.7287C119.863 93.0187 120.216 94.2822 120.645 95.3751C120.862 95.9094 121.094 96.4115 121.348 96.8286C121.602 97.2439 121.88 97.5516 122.17 97.7473C122.459 97.9491 122.759 97.9735 123.09 97.957C123.413 97.95 123.738 97.9134 124.059 97.7761C124.379 97.6436 124.699 97.4139 124.972 96.9768C125.006 96.9249 125.036 96.8583 125.069 96.7994L125.093 96.7541C125.088 96.772 125.106 96.7253 125.111 96.7144L125.161 96.5959L125.358 96.1234C125.429 95.9705 125.482 95.7961 125.539 95.6262L125.71 95.115C126.155 93.6646 126.499 91.9035 126.766 90.0464C126.829 89.5757 126.891 89.1042 126.955 88.6309C127.008 88.1467 127.061 87.6617 127.114 87.1752C127.209 86.1929 127.302 85.2023 127.369 84.1899C127.511 82.1717 127.606 80.111 127.662 78.0331C127.709 75.956 127.724 73.8576 127.712 71.7773C127.695 69.6698 127.641 67.6083 127.554 65.5412C127.471 63.4802 127.357 61.437 127.197 59.4445C127.037 57.4528 126.843 55.5003 126.589 53.6489C126.334 51.8019 126.022 50.0416 125.62 48.5446L125.46 48.0129L125.38 47.7488L125.36 47.6825L125.35 47.6494C125.364 47.6882 125.347 47.642 125.347 47.6425L125.3 47.5156L125.207 47.2668L125.124 47.0877C125.072 46.9626 125 46.8545 124.939 46.7412C124.676 46.328 124.376 46.097 124.063 45.9985C123.749 45.8887 123.425 45.9031 123.098 45.9092L122.85 45.9122L122.738 45.9135L122.616 45.9271L122.494 45.941L122.389 45.9828C122.32 46.0077 122.251 46.0317 122.178 46.0866C121.891 46.2626 121.616 46.5655 121.362 46.9687C121.109 47.3753 120.877 47.8682 120.659 48.3964C120.229 49.4759 119.874 50.7306 119.575 52.0159C118.977 54.5942 118.588 57.2688 118.32 59.688C118.185 60.8996 118.082 62.0567 117.999 63.1335C117.913 64.2096 117.855 65.2111 117.812 66.1188C117.722 67.934 117.698 69.3762 117.683 70.3577C117.675 71.34 117.671 71.8634 117.671 71.8634" fill="white" fill-opacity="0.5"/>
<path d="M111.731 71.8662C111.731 91.6344 114.796 107.661 118.577 107.661C119.523 107.661 121.043 107.531 121.862 105.72C124.319 100.286 125.423 86.6935 125.423 71.8668C125.423 58.6337 124.36 44.8986 122.318 38.7038C121.309 35.6444 119.827 36.0723 118.577 36.0723C114.796 36.0723 111.731 52.0981 111.731 71.8664" fill="black"/>
<path d="M111.705 71.8673C111.705 71.8673 111.708 71.1612 111.714 69.8381C111.728 68.5158 111.758 66.5751 111.847 64.1153C111.947 61.6616 112.084 58.6715 112.395 55.3239C112.704 51.9864 113.146 48.2322 113.929 44.5221C114.121 43.5916 114.345 42.6842 114.587 41.7847C114.838 40.9056 115.107 40.034 115.415 39.2316C115.724 38.4328 116.066 37.6945 116.445 37.0708C116.824 36.4515 117.245 35.9678 117.691 35.6792C117.8 35.5942 117.917 35.545 118.035 35.5005L118.212 35.4312L118.376 35.4073L118.539 35.3837L118.592 35.3785L118.632 35.3776L118.714 35.375C118.823 35.3702 118.933 35.3654 119.043 35.3606C119.486 35.3488 119.945 35.3309 120.416 35.4953C120.885 35.6456 121.37 36.003 121.812 36.7015C121.866 36.7905 121.919 36.892 121.972 36.987C122.025 37.0803 122.078 37.1805 122.13 37.303L122.284 37.656L122.41 38.0016L122.472 38.1742L122.496 38.243L122.511 38.2923L122.54 38.3908L122.656 38.7861C122.733 39.051 122.813 39.3125 122.888 39.5823C123.465 41.7928 123.889 44.2905 124.231 46.8753C124.571 49.4667 124.83 52.1605 125.027 54.9044C125.223 57.6505 125.355 60.4467 125.443 63.2604C125.525 66.0693 125.561 68.926 125.547 71.7379C125.532 74.5768 125.479 77.3966 125.384 80.2028C125.292 83.0082 125.151 85.79 124.952 88.5183C124.754 91.2452 124.505 93.9285 124.16 96.4907C123.81 99.0411 123.386 101.513 122.785 103.628L122.547 104.4C122.467 104.656 122.389 104.925 122.301 105.132L122.044 105.796L121.98 105.961C121.966 105.996 121.967 106.002 121.94 106.058L121.903 106.136C121.852 106.236 121.803 106.349 121.75 106.437C121.543 106.817 121.318 107.075 121.093 107.294C120.868 107.513 120.639 107.667 120.411 107.787C119.954 108.03 119.498 108.136 119.051 108.186C118.612 108.235 118.143 108.231 117.699 107.948C117.256 107.679 116.838 107.2 116.459 106.594C116.08 105.979 115.738 105.251 115.429 104.458C115.121 103.662 114.851 102.796 114.599 101.921C114.356 101.026 114.132 100.122 113.938 99.1945C113.152 95.494 112.71 91.7416 112.4 88.4062C112.088 85.0596 111.951 82.0699 111.851 79.617C111.76 77.1577 111.73 75.2175 111.715 73.8943C111.709 72.5725 111.705 71.8668 111.705 71.8668L111.705 71.8673ZM111.752 71.8659C111.752 71.8659 111.757 72.5701 111.766 73.8915C111.785 75.2094 111.816 77.1471 111.931 79.5898C111.988 80.8105 112.062 82.159 112.174 83.6085C112.282 85.0594 112.415 86.6191 112.593 88.2539C112.945 91.5191 113.454 95.1368 114.252 98.6465C114.65 100.397 115.125 102.111 115.707 103.599C116.002 104.327 116.318 105.01 116.665 105.578C117.012 106.143 117.391 106.566 117.788 106.83C118.186 107.102 118.598 107.131 119.041 107.105C119.477 107.09 119.917 107.032 120.352 106.839C120.786 106.652 121.221 106.334 121.595 105.725C121.642 105.652 121.684 105.559 121.729 105.477L121.762 105.414C121.76 105.426 121.78 105.372 121.789 105.354L121.854 105.194L122.119 104.555C122.212 104.349 122.284 104.11 122.361 103.878L122.593 103.179C123.191 101.205 123.647 98.8242 124.004 96.3209C124.088 95.6868 124.172 95.0509 124.257 94.4129C124.327 93.7618 124.399 93.109 124.47 92.4543C124.597 91.132 124.722 89.7988 124.811 88.4377C124.999 85.7218 125.129 82.9525 125.211 80.1607C125.28 77.368 125.304 74.5486 125.293 71.7476C125.275 68.9191 125.208 66.1372 125.097 63.3555C124.989 60.5802 124.838 57.8284 124.626 55.1407C124.414 52.4552 124.154 49.822 123.812 47.32C123.47 44.8231 123.05 42.4388 122.504 40.3988C122.433 40.1517 122.359 39.9146 122.287 39.6727L122.178 39.3118L122.151 39.2216L122.137 39.1763C122.15 39.2112 122.132 39.1615 122.131 39.1584L122.068 38.9876C122.026 38.876 121.984 38.7557 121.943 38.6516L121.824 38.3944C121.787 38.3042 121.744 38.2232 121.699 38.1451C121.655 38.0671 121.612 37.9821 121.567 37.9089C121.2 37.3328 120.785 37.0159 120.356 36.8813C119.929 36.7309 119.489 36.7501 119.049 36.7588C118.938 36.7605 118.827 36.7623 118.717 36.7645L118.562 36.7666L118.399 36.7863L118.235 36.8054L118.089 36.8638C117.993 36.8987 117.896 36.9331 117.797 37.0085C117.402 37.253 117.025 37.671 116.679 38.2241C116.333 38.7815 116.016 39.4548 115.721 40.1778C115.138 41.6522 114.661 43.3576 114.261 45.1026C113.461 48.6026 112.95 52.219 112.598 55.482C112.419 57.1158 112.286 58.6753 112.178 60.1261C112.066 61.5752 111.991 62.9232 111.935 64.1435C111.818 66.5858 111.786 68.5231 111.767 69.8417C111.757 71.1618 111.752 71.8657 111.752 71.8657" fill="#E6E6E6" fill-opacity="0.5"/>
<path d="M109.359 71.8569C109.359 91.6252 112.424 107.652 116.205 107.652C117.15 107.652 118.67 107.522 119.489 105.71C121.947 100.277 123.051 86.6842 123.051 71.8575C123.051 58.6244 121.987 44.8893 119.945 38.6945C118.936 35.6351 117.455 36.063 116.205 36.063C112.424 36.063 109.359 52.0888 109.359 71.8571" fill="black"/>
<path d="M109.338 71.8569C109.338 71.8569 109.341 71.1509 109.346 69.8277C109.361 68.5054 109.39 66.5647 109.48 64.1049C109.58 61.6513 109.717 58.6611 110.028 55.3135C110.337 51.976 110.778 48.2219 111.561 44.5117C111.754 43.5812 111.978 42.6738 112.219 41.7743C112.47 40.8952 112.74 40.0236 113.048 39.2213C113.356 38.4224 113.698 37.6841 114.077 37.0605C114.457 36.4412 114.877 35.9574 115.323 35.6688C115.432 35.5839 115.55 35.5346 115.668 35.4902L115.845 35.4209L116.008 35.3969L116.172 35.3734L116.224 35.3681L116.265 35.3672L116.346 35.3646C116.456 35.3598 116.565 35.355 116.675 35.3502C117.119 35.3384 117.577 35.3206 118.048 35.4849C118.518 35.6352 119.003 35.9926 119.444 36.6912C119.499 36.7801 119.551 36.8816 119.605 36.9766C119.658 37.0699 119.711 37.1701 119.762 37.2926L119.917 37.6456L120.042 37.9912L120.105 38.1638L120.129 38.2327L120.143 38.2819L120.172 38.3804L120.289 38.7757C120.366 39.0407 120.446 39.3022 120.521 39.5719C121.098 41.7824 121.521 44.2801 121.864 46.865C122.203 49.4563 122.463 52.1501 122.66 54.894C122.855 57.6401 122.987 60.4363 123.076 63.25C123.158 66.0589 123.194 68.9156 123.18 71.7275C123.164 74.5664 123.112 77.3862 123.016 80.1924C122.924 82.9979 122.783 85.7796 122.585 88.5079C122.386 91.2349 122.137 93.9182 121.792 96.4803C121.443 99.0307 121.018 101.503 120.418 103.618L120.179 104.39C120.099 104.645 120.022 104.914 119.933 105.121L119.677 105.786L119.613 105.951C119.598 105.985 119.599 105.992 119.573 106.048L119.535 106.125C119.484 106.225 119.436 106.338 119.383 106.426C119.175 106.806 118.951 107.065 118.726 107.284C118.501 107.503 118.272 107.657 118.043 107.776C117.586 108.02 117.131 108.126 116.683 108.175C116.244 108.225 115.775 108.22 115.332 107.938C114.888 107.669 114.47 107.19 114.091 106.583C113.713 105.969 113.371 105.241 113.062 104.447C112.754 103.651 112.483 102.785 112.231 101.911C111.989 101.016 111.764 100.112 111.571 99.1842C110.785 95.4836 110.342 91.7312 110.032 88.3959C109.721 85.0492 109.584 82.0595 109.483 79.6067C109.393 77.1473 109.363 75.2071 109.347 73.8839C109.341 72.5621 109.338 71.8564 109.338 71.8564L109.338 71.8569ZM109.385 71.8555C109.385 71.8555 109.389 72.5598 109.399 73.8811C109.417 75.199 109.448 77.1367 109.564 79.5794C109.62 80.8001 109.694 82.1486 109.806 83.5982C109.914 85.049 110.048 86.6088 110.226 88.2435C110.577 91.5087 111.086 95.1264 111.884 98.6361C112.282 100.386 112.758 102.1 113.34 103.588C113.634 104.317 113.951 105 114.297 105.568C114.644 106.133 115.024 106.556 115.421 106.819C115.818 107.092 116.23 107.121 116.674 107.094C117.11 107.079 117.55 107.022 117.985 106.829C118.419 106.641 118.853 106.324 119.227 105.714C119.275 105.642 119.316 105.549 119.361 105.467L119.395 105.404C119.393 105.416 119.413 105.361 119.421 105.343L119.487 105.184L119.751 104.545C119.845 104.339 119.917 104.1 119.994 103.868L120.225 103.168C120.824 101.195 121.28 98.8139 121.637 96.3106C121.721 95.6764 121.805 95.0406 121.889 94.4025C121.96 93.7514 122.031 93.0986 122.102 92.4439C122.229 91.1217 122.354 89.7884 122.443 88.4274C122.631 85.7114 122.762 82.9421 122.843 80.1503C122.912 77.3576 122.936 74.5382 122.925 71.7372C122.908 68.9087 122.84 66.1268 122.729 63.3451C122.621 60.5698 122.471 57.8181 122.259 55.1304C122.047 52.4448 121.786 49.8116 121.445 47.3096C121.103 44.8128 120.683 42.4285 120.137 40.3884C120.066 40.1413 119.991 39.9042 119.919 39.6623L119.811 39.3015L119.784 39.2112L119.77 39.1659C119.783 39.2008 119.764 39.1511 119.763 39.1481L119.7 38.9772C119.659 38.8656 119.616 38.7454 119.575 38.6412L119.457 38.3841C119.42 38.2938 119.377 38.2128 119.331 38.1348C119.287 38.0568 119.244 37.9718 119.199 37.8986C118.833 37.3224 118.418 37.0056 117.989 36.8709C117.561 36.7205 117.122 36.7397 116.682 36.7484C116.571 36.7502 116.46 36.7519 116.35 36.7541L116.195 36.7563L116.031 36.7759L115.868 36.7951L115.722 36.8535C115.625 36.8883 115.528 36.9228 115.429 36.9982C115.035 37.2426 114.658 37.6606 114.311 38.2137C113.965 38.7711 113.649 39.4444 113.354 40.1674C112.771 41.6418 112.293 43.3472 111.894 45.0922C111.093 48.5922 110.583 52.2086 110.23 55.4716C110.052 57.1055 109.918 58.6649 109.81 60.1157C109.698 61.5648 109.624 62.9128 109.567 64.1331C109.451 66.5754 109.419 68.5127 109.4 69.8314C109.39 71.1515 109.385 71.8553 109.385 71.8553" fill="#E6E6E6" fill-opacity="0.5"/>
<path d="M109.566 71.8569C109.566 91.6252 112.134 107.652 115.3 107.652C118.467 107.652 120.724 91.6264 120.724 71.8569C120.724 52.0875 118.467 36.0629 115.3 36.0629C112.134 36.0629 109.566 52.0887 109.566 71.8569" fill="black"/>
<path d="M109.546 71.8569C109.546 71.8569 109.547 71.1988 109.55 69.965C109.563 68.7321 109.58 66.9234 109.642 64.6249C109.71 62.3295 109.81 59.539 110.025 56.3744C110.247 53.2204 110.554 49.6576 111.126 45.9858C111.415 44.1584 111.763 42.2908 112.236 40.5441C112.466 39.6607 112.737 38.8269 113.042 38.0625C113.348 37.3011 113.696 36.613 114.092 36.1188C114.193 36.0094 114.291 35.8791 114.396 35.7889C114.503 35.7087 114.604 35.6045 114.718 35.5466L114.889 35.4638C114.947 35.4363 115.006 35.4071 115.054 35.4054L115.208 35.3788L115.284 35.3657C115.319 35.3614 115.306 35.3662 115.319 35.3662L115.34 35.3688L115.382 35.3745C115.834 35.405 116.286 35.7641 116.687 36.3586C117.496 37.564 118.106 39.5465 118.583 41.6817C118.821 42.759 119.032 43.8861 119.222 45.0457C119.406 46.2115 119.576 47.4022 119.722 48.6212C120.017 51.0557 120.243 53.5786 120.416 56.1426C120.585 58.7101 120.702 61.3198 120.776 63.9464C120.845 66.5688 120.869 69.2254 120.854 71.8569C120.84 74.4963 120.786 77.1325 120.689 79.7453C120.6 82.3599 120.468 84.9539 120.286 87.4981C120.102 90.0425 119.878 92.544 119.589 94.9624C119.447 96.1731 119.279 97.3515 119.103 98.5126C118.92 99.6662 118.716 100.787 118.486 101.857C118.256 102.928 117.99 103.935 117.689 104.847C117.387 105.755 117.043 106.565 116.652 107.162C116.603 107.235 116.555 107.315 116.505 107.383L116.351 107.567C116.25 107.7 116.143 107.789 116.036 107.877C115.933 107.981 115.817 108.027 115.704 108.087C115.586 108.16 115.492 108.152 115.386 108.179C114.933 108.23 114.502 107.97 114.107 107.495C113.713 107.022 113.367 106.339 113.061 105.59C112.755 104.836 112.483 104.011 112.252 103.133C111.778 101.398 111.427 99.5375 111.136 97.7136C110.561 94.0501 110.253 90.4882 110.029 87.3364C109.814 84.1723 109.714 81.3818 109.645 79.0871C109.583 76.7895 109.564 74.9808 109.551 73.747C109.548 72.5146 109.546 71.8569 109.546 71.8569L109.546 71.8569ZM109.592 71.856C109.592 71.856 109.596 72.5132 109.603 73.7449C109.619 74.9739 109.639 76.7812 109.726 79.0662C109.807 81.3521 109.969 84.11 110.226 87.2169C110.493 90.3134 110.871 93.7703 111.471 97.2779C111.547 97.7137 111.622 98.1578 111.708 98.5893C111.75 98.8063 111.792 99.0247 111.835 99.2443C111.879 99.4592 111.925 99.6749 111.97 99.8915C112.056 100.333 112.16 100.747 112.256 101.18C112.363 101.592 112.462 102.027 112.579 102.423C113.029 104.043 113.582 105.568 114.27 106.444C114.61 106.88 114.994 107.121 115.365 107.1C115.465 107.078 115.579 107.095 115.664 107.039C115.755 106.995 115.847 106.975 115.942 106.889C116.036 106.821 116.131 106.754 116.221 106.643L116.36 106.495C116.405 106.439 116.449 106.371 116.494 106.309C117.211 105.295 117.8 103.49 118.275 101.479C118.512 100.464 118.725 99.3884 118.919 98.274C119.109 97.1535 119.281 95.9964 119.432 94.8079C119.584 93.6207 119.72 92.4079 119.835 91.1713C119.955 89.9393 120.057 88.6855 120.145 87.4194C120.317 84.8855 120.437 82.3029 120.516 79.7015C120.587 77.0975 120.613 74.4755 120.6 71.8567C120.584 69.2296 120.528 66.6278 120.429 64.0338C120.335 61.4437 120.2 58.8776 120.014 56.3656C119.825 53.857 119.599 51.3911 119.299 49.0355C119.152 47.8553 118.982 46.71 118.8 45.5939C118.613 44.4861 118.406 43.4179 118.177 42.4094C117.716 40.4147 117.15 38.6187 116.458 37.5967C116.114 37.089 115.742 36.8022 115.369 36.7726L115.334 36.766L115.316 36.763C115.317 36.7621 115.291 36.7604 115.312 36.7599L115.235 36.7708L115.082 36.7926C115.027 36.7939 114.986 36.8192 114.942 36.841L114.812 36.9011C114.726 36.9408 114.635 37.0332 114.546 37.0946C114.457 37.167 114.372 37.2794 114.286 37.3679C113.945 37.7811 113.634 38.379 113.354 39.0623C113.074 39.7479 112.821 40.5127 112.596 41.3259C112.478 41.7195 112.378 42.1523 112.272 42.5615C112.175 42.9926 112.07 43.404 111.983 43.8428C111.938 44.059 111.892 44.2739 111.847 44.4879C111.804 44.7066 111.762 44.9246 111.72 45.1411C111.633 45.5713 111.558 46.0137 111.481 46.4482C110.878 49.9478 110.498 53.4039 110.23 56.4986C109.973 59.6046 109.811 62.3626 109.729 64.6476C109.641 66.9317 109.62 68.739 109.604 69.969C109.596 71.1997 109.592 71.856 109.592 71.856" fill="#E6E6E6" fill-opacity="0.5"/>
<path d="M112.723 71.8569C112.723 80.7528 113.878 87.9646 115.303 87.9646C116.729 87.9646 117.574 80.7531 117.574 71.8569C117.574 62.9607 116.729 55.7491 115.303 55.7491C113.878 55.7491 112.723 62.9607 112.723 71.8569Z" fill="black"/>
<path d="M112.697 71.8569C112.697 71.8569 112.688 70.678 112.729 68.6131C112.753 67.5811 112.789 66.3272 112.867 64.8926C112.952 63.4626 113.069 61.8392 113.314 60.1456C113.437 59.3006 113.592 58.4402 113.804 57.6152C114.016 56.7998 114.288 55.994 114.667 55.4745C114.763 55.3495 114.863 55.2457 114.969 55.1695C115.024 55.1324 115.085 55.1067 115.144 55.0806L115.284 55.0514C115.283 55.0514 115.317 55.0492 115.308 55.0504L115.318 55.0514L115.339 55.054L115.381 55.0605L115.465 55.0766C115.521 55.1045 115.578 55.1254 115.632 55.1629C115.742 55.2436 115.85 55.3534 115.949 55.4989C116.351 56.0899 116.631 57.0661 116.837 58.0821C117.044 59.1067 117.192 60.2032 117.311 61.325C117.427 62.4477 117.515 63.5986 117.577 64.7649C117.637 65.932 117.676 67.1121 117.698 68.2963C117.715 69.4778 117.714 70.678 117.698 71.8565C117.685 73.0419 117.656 74.2253 117.611 75.398C117.57 76.5711 117.515 77.7361 117.446 78.8854C117.375 80.0338 117.286 81.1647 117.176 82.2713C117.061 83.3722 116.93 84.4578 116.737 85.4658C116.545 86.4638 116.29 87.424 115.914 88.0206C115.821 88.1679 115.72 88.2812 115.617 88.3679C115.563 88.4089 115.504 88.4363 115.448 88.4673L115.378 88.4869L115.343 88.4965L115.326 88.5L115.317 88.5017L115.297 88.5039C115.083 88.5144 114.871 88.3736 114.684 88.14C114.495 87.9081 114.334 87.5739 114.192 87.2178C114.051 86.8578 113.925 86.4725 113.82 86.0621C113.607 85.2492 113.449 84.3954 113.324 83.5544C113.076 81.8691 112.957 80.2461 112.872 78.8183C112.793 77.384 112.757 76.1301 112.732 75.099C112.69 73.0345 112.697 71.8569 112.697 71.8569L112.697 71.8569ZM112.744 71.856C112.744 71.856 112.746 72.1498 112.75 72.7011C112.758 73.2502 112.767 74.0591 112.813 75.078C112.855 76.0974 112.935 77.3277 113.067 78.7009C113.199 80.0711 113.385 81.5922 113.66 83.1218C113.799 83.881 113.954 84.6538 114.149 85.3593C114.345 86.0545 114.574 86.723 114.855 87.1004C115.131 87.4887 115.461 87.5532 115.759 87.1636C116.06 86.7766 116.317 85.9973 116.522 85.1074C116.937 83.307 117.167 81.0751 117.306 78.8181C117.373 77.6819 117.415 76.5248 117.438 75.3608C117.456 74.1958 117.457 73.0248 117.444 71.8564C117.428 70.6814 117.397 69.5269 117.351 68.3707C117.309 67.2175 117.251 66.0752 117.174 64.9583C117.019 62.736 116.803 60.5435 116.422 58.7709C116.232 57.8988 115.998 57.1353 115.724 56.7426C115.656 56.6441 115.586 56.5753 115.515 56.5221C115.479 56.4986 115.443 56.4872 115.407 56.4667L115.353 56.4585L115.326 56.4541L115.312 56.4506L115.305 56.4493C115.29 56.4498 115.318 56.4467 115.312 56.4476C115.267 56.4541 115.217 56.4572 115.177 56.4667L115.082 56.5134C115.01 56.5604 114.94 56.6271 114.872 56.7104C114.595 57.0542 114.364 57.7062 114.166 58.3891C113.969 59.0834 113.811 59.8487 113.67 60.6039C113.392 62.1263 113.205 63.6459 113.071 65.0144C112.939 66.3868 112.858 67.6167 112.816 68.6356C112.77 69.6541 112.76 70.4625 112.751 71.0125C112.746 71.5625 112.744 71.8558 112.744 71.8558" fill="#E6E6E6" fill-opacity="0.5"/>
<path d="M115 74.0309C115 76.2233 114.802 78 114.557 78C114.557 78 93.24 64 75.8993 64C60.5893 64 37.4429 78 37.4429 78C37.1983 78 37 76.2235 37 74.0309V67.9691C37 65.7767 37.1982 64 37.4429 64C37.4429 64 61.0582 50 75.8993 50C92.6151 50 114.557 64 114.557 64C114.802 64 115 65.7766 115 67.9691V74.0309Z" fill="black"/>
<path d="M115.952 73.473L115.95 70.7183C115.95 69.8001 115.95 68.8756 115.948 67.9649C115.945 67.7514 115.944 67.534 115.939 67.323L115.914 66.7063L115.875 66.1423C115.858 65.9777 115.842 65.8056 115.823 65.6486C115.802 65.5155 115.782 65.3698 115.761 65.2442C115.737 65.1462 115.714 65.0331 115.69 64.9452C115.664 64.8862 115.639 64.8146 115.613 64.7618L115.533 64.7003H115.531C113.908 63.8562 112.285 63.0246 110.661 62.2948L108.226 61.1844L105.789 60.2549C102.54 58.9736 99.2899 58.0165 96.0394 57.0719L91.1638 55.8484L89.945 55.5319L88.7264 55.3259L86.2891 54.9126L83.8523 54.4453C83.0401 54.2632 82.2261 54.2883 81.4131 54.1979C79.7882 54.1062 78.1579 53.8776 76.5369 53.8989L71.662 54.3813C70.8497 54.4051 70.0373 54.7192 69.2248 54.8586L66.7872 55.3573C65.9747 55.5394 65.1619 55.6575 64.3496 55.8898L61.9124 56.6083C60.2877 57.1183 58.6624 57.4901 57.0382 58.1257L52.1647 59.8441L47.2919 61.722L42.42 63.7669L39.9848 64.8698L38.7669 65.4413L38.6147 65.5142L38.5687 65.5355L38.5422 65.5594C38.5244 65.5757 38.506 65.5682 38.4895 65.6297C38.4211 65.7666 38.3564 66.1008 38.3157 66.5844C38.2963 66.8243 38.2784 67.0994 38.2722 67.2953C38.2608 67.4285 38.2553 68.1495 38.2561 68.299L38.2544 70.7572L38.2527 73.2129C38.2516 73.4415 38.2541 73.5885 38.2561 73.7267C38.2574 73.8736 38.258 74.0218 38.2655 74.16C38.2733 74.4477 38.2915 74.7064 38.3107 74.9576C38.3476 75.4475 38.4253 75.8219 38.4791 75.9412C38.4878 76.0015 38.519 76.0115 38.5432 76.0341L38.5811 76.0668C38.5533 76.0592 38.5952 76.0542 38.5988 76.048L38.7512 75.9739L39.9691 75.3948L42.4053 74.2781L47.2778 72.1427L57.0252 68.1986C58.6493 67.5052 60.2754 67.0819 61.9004 66.4777L64.3378 65.5784L66.7771 64.885L69.2167 64.2092C70.03 64.0057 70.8434 63.7017 71.6564 63.6352L76.5351 62.9518C78.1659 62.9154 79.7906 63.1227 81.4187 63.1955C82.2323 63.2646 83.0462 63.2646 83.8597 63.3902L86.2993 63.9479L88.739 64.5434C89.5521 64.7443 90.3653 64.9164 91.178 65.2279C92.8035 65.7568 94.4286 66.3873 96.0538 67.0116C97.6787 67.646 99.3024 68.4725 100.927 69.1897C102.551 69.8869 104.174 70.7548 105.797 71.5926C109.044 73.2645 112.291 74.8962 115.535 76.8292H115.533L115.614 76.7652C115.641 76.7074 115.666 76.637 115.693 76.5767C115.717 76.4788 115.74 76.3682 115.765 76.2677L115.828 75.852L115.88 75.342C115.893 75.1486 115.907 74.9576 115.919 74.7617C115.926 74.5569 115.935 74.3584 115.943 74.1486L115.952 73.454V73.4729L115.952 73.473ZM115.998 73.4931L115.99 74.1864C115.982 74.4264 115.972 74.6688 115.963 74.9087C115.95 75.1298 115.935 75.3421 115.921 75.5581L115.863 76.1296L115.792 76.5982C115.766 76.715 115.739 76.8393 115.712 76.9474C115.683 77.0202 115.654 77.1006 115.624 77.1634L115.533 77.2388H115.531C113.908 76.367 112.285 75.5104 110.662 74.763L108.227 73.6124C107.415 73.2305 106.602 72.9768 105.79 72.654C104.165 72.0385 102.541 71.3941 100.916 70.9193C99.2907 70.4282 97.6661 69.8403 96.0408 69.4371C94.4152 69.054 92.7898 68.6746 91.165 68.1973C90.3526 67.9373 89.5399 67.8179 88.7272 67.671L86.2892 67.2313L83.8513 66.7527C83.0386 66.6007 82.2259 66.5744 81.4132 66.4776C79.7887 66.3483 78.1608 66.0857 76.5388 66.0669L71.6596 66.2578C70.846 66.2365 70.034 66.4538 69.2214 66.5694L66.7835 66.9763L64.3454 67.3984L61.9073 68.0264L59.4696 68.7236C58.6569 68.951 57.8443 69.1946 57.0322 69.5062L52.1584 71.2848L47.2868 73.4604C45.6631 74.1977 44.0402 75.0255 42.4173 75.8721L39.9836 77.2074L38.767 77.8945L38.6149 77.9812C38.5933 77.9875 38.6098 78 38.5568 78L38.5187 77.9699C38.4927 77.9448 38.4721 77.9535 38.4332 77.8568C38.2911 77.5679 38.1884 76.9738 38.1104 76.1058C38.0745 75.6725 38.0432 75.2052 38.0271 74.6952C38.0156 74.4465 38.0122 74.1864 38.0091 73.9239C38.0053 73.6564 38.0028 73.3963 38.0036 73.213L38.002 70.7573L38.0002 68.299C38.0006 68.1521 37.9989 68.1986 38.0013 67.8895L38.0049 67.583C38.0072 67.3833 38.0078 67.1949 38.02 66.8759C38.0376 66.2729 38.0689 65.8194 38.1045 65.3773C38.1785 64.498 38.2942 63.8637 38.4213 63.5899C38.4525 63.4957 38.4855 63.4806 38.5183 63.4505L38.5976 63.3952L38.7498 63.3085L39.9668 62.6352L42.4017 61.3264L47.2723 58.8707L52.1442 56.5845L57.0185 54.6074C58.6431 53.9102 60.2693 53.4744 61.8947 52.9003L64.3331 52.0877C65.1459 51.8251 65.9595 51.6731 66.7727 51.4608C68.3994 51.0916 70.0253 50.5854 71.6529 50.4107L76.536 50C78.1678 50.0038 79.7901 50.2575 81.4177 50.3718C82.2311 50.4723 83.0438 50.461 83.8575 50.6545L86.2982 51.236C89.5529 51.9859 92.8034 53.1202 96.0534 54.4253C99.3022 55.8799 102.551 57.3181 105.797 59.0379C109.043 60.7462 112.29 62.3453 115.535 64.2459H115.533L115.623 64.3225C115.653 64.3816 115.682 64.4632 115.71 64.5361C115.738 64.6366 115.764 64.7634 115.791 64.8777C115.815 65.0197 115.838 65.1842 115.861 65.3375C115.881 65.5171 115.9 65.7105 115.919 65.8989C115.935 66.1062 115.948 66.3247 115.963 66.5383C115.973 66.7657 115.981 67.0018 115.99 67.2342C115.995 67.4728 115.996 67.7178 116 67.9577C116.001 69.803 115.999 71.6357 115.998 73.4734V73.4935L115.998 73.4931Z" fill="#8E8E8E" fill-opacity="0.5"/>
</g>
<g filter="url(#filter1_d_68_2)">
<ellipse cx="79" cy="72" rx="79" ry="72" fill="url(#paint0_angular_68_2)" fill-opacity="0.37" shape-rendering="crispEdges"/>
<path d="M154 72C154 109.214 120.779 140 79 140C37.2213 140 4 109.214 4 72C4 34.7858 37.2213 4 79 4C120.779 4 154 34.7858 154 72Z" stroke="url(#paint1_angular_68_2)" stroke-opacity="0.6" stroke-width="8" shape-rendering="crispEdges"/>
</g>
</g>
<defs>
<filter id="filter0_d_68_2" x="0" y="0" width="162" height="148" filterUnits="userSpaceOnUse" color-interpolation-filters="sRGB">
<feFlood flood-opacity="0" result="BackgroundImageFix"/>
<feColorMatrix in="SourceAlpha" type="matrix" values="0 0 0 0 0 0 0 0 0 0 0 0 0 0 0 0 0 0 127 0" result="hardAlpha"/>
<feOffset dx="4" dy="4"/>
<feComposite in2="hardAlpha" operator="out"/>
<feColorMatrix type="matrix" values="0 0 0 0 0 0 0 0 0 0 0 0 0 0 0 0 0 0 0.25 0"/>
<feBlend mode="normal" in2="BackgroundImageFix" result="effect1_dropShadow_68_2"/>
<feBlend mode="normal" in="SourceGraphic" in2="effect1_dropShadow_68_2" result="shape"/>
</filter>
<filter id="filter1_d_68_2" x="0" y="0" width="182" height="167" filterUnits="userSpaceOnUse" color-interpolation-filters="sRGB">
<feFlood flood-opacity="0" result="BackgroundImageFix"/>
<feColorMatrix in="SourceAlpha" type="matrix" values="0 0 0 0 0 0 0 0 0 0 0 0 0 0 0 0 0 0 127 0" result="hardAlpha"/>
<feOffset dx="20" dy="19"/>
<feGaussianBlur stdDeviation="2"/>
<feComposite in2="hardAlpha" operator="out"/>
<feColorMatrix type="matrix" values="0 0 0 0 0 0 0 0 0 0 0 0 0 0 0 0 0 0 0.15 0"/>
<feBlend mode="normal" in2="BackgroundImageFix" result="effect1_dropShadow_68_2"/>
<feBlend mode="normal" in="SourceGraphic" in2="effect1_dropShadow_68_2" result="shape"/>
</filter>
<radialGradient id="paint0_angular_68_2" cx="0" cy="0" r="1" gradientUnits="userSpaceOnUse" gradientTransform="translate(79 72) rotate(90) scale(72 79)">
<stop stop-color="#11880E"/>
<stop offset="0.25" stop-color="#11880E"/>
<stop offset="0.494792" stop-color="#044DBA"/>
<stop offset="0.744792" stop-color="#11880E"/>
<stop offset="1" stop-color="#044DBA"/>
</radialGradient>
<radialGradient id="paint1_angular_68_2" cx="0" cy="0" r="1" gradientUnits="userSpaceOnUse" gradientTransform="translate(79 72) rotate(90) scale(72 79)">
<stop stop-color="#044DBA"/>
<stop offset="0.5" stop-color="#11880E"/>
</radialGradient>
<clipPath id="clip0_68_2">
<rect width="103.838" height="92.3212" fill="white" transform="translate(25.3 25.3868)"/>
</clipPath>
</defs>
</svg>
