<svg width="47" height="46" viewBox="0 0 47 46" fill="none" xmlns="http://www.w3.org/2000/svg">
<g clip-path="url(#clip0_75_85)">
<path d="M19.9998 2.32211C19.894 2.37266 19.706 2.4706 19.5709 2.53379C19.3535 2.64121 19.33 2.66964 19.3242 2.80233L19.3183 2.95398L18.7367 3.11195C18.2608 3.23832 18.1257 3.29203 17.9729 3.41209C17.8672 3.49107 17.7262 3.58901 17.6498 3.63324C17.5793 3.67747 17.497 3.76277 17.4677 3.8228C17.4324 3.89546 17.356 3.94917 17.2444 3.98077C17.1504 4.00604 16.9742 4.08187 16.8449 4.14821L16.6158 4.26511L16.6393 4.60632C16.6569 4.92541 16.6452 4.95068 16.51 5.04862C16.3455 5.16868 16.3397 5.2603 16.4924 5.61415C16.5805 5.8353 16.5805 5.84478 16.4572 6.00275C16.3867 6.09121 16.3162 6.25233 16.2927 6.36291C16.2633 6.54931 16.275 6.57775 16.4748 6.77994C16.6569 6.96634 16.6863 7.02637 16.6863 7.20645C16.6863 7.54766 16.8449 7.9489 17.1328 8.3375C17.4324 8.74505 17.8025 9.05467 18.3254 9.34849L18.6838 9.55069L18.4664 9.68338C18.3137 9.775 18.1668 9.83187 18.0082 9.85398C17.8789 9.87294 17.5323 9.92981 17.2385 9.98352C16.8743 10.0499 16.5864 10.0783 16.3279 10.0783C13.7312 10.0878 11.5104 10.8049 9.6539 12.2424C9.36015 12.4668 9.01353 12.7669 8.88428 12.9059C8.67865 13.1271 8.60228 13.1776 8.26153 13.3103C8.04415 13.3924 7.8444 13.4525 7.8209 13.4462C7.79153 13.4367 7.73865 13.3387 7.7034 13.2313C7.58003 12.8838 7.52715 12.8111 7.28628 12.6374C7.15703 12.5457 7.05128 12.4352 7.05128 12.3941C7.05128 12.353 7.0219 12.2582 6.98665 12.1856C6.91028 12.015 6.6224 11.9202 6.24053 11.936C5.91153 11.9486 5.55315 12.1287 5.48853 12.3119C5.4239 12.5015 5.20065 12.6532 4.88928 12.7258C4.56615 12.8016 4.39578 12.8933 4.2724 13.0544C4.2019 13.1397 4.13728 13.1744 3.99628 13.1902C3.64378 13.2313 3.4264 13.5694 3.59678 13.8032C3.64378 13.8695 3.83765 14.0306 4.02565 14.1633C4.56615 14.5488 4.56615 14.6562 4.03153 15.2059C3.76715 15.4745 3.69665 15.5882 3.59678 15.8788C3.47928 16.2043 3.47928 16.2485 3.55565 16.5234C3.6849 16.9846 3.9434 17.1489 4.6014 17.1837C4.99503 17.2058 5.74115 17.1552 6.02315 17.0889C6.5049 16.9751 8.09703 16.2864 9.62453 15.5345C10.2532 15.2217 10.6468 15.0511 10.6644 15.0764C10.9817 15.5566 11.4693 16.3717 11.5398 16.5455C11.5985 16.6908 11.6338 16.9277 11.6338 17.2058C11.6338 17.8345 11.4693 18.1315 10.9934 18.3621C10.7819 18.4632 10.7525 18.4948 10.7525 18.6117C10.7525 18.836 11.1462 19.0382 11.7807 19.1456C12.0333 19.1898 13.7312 19.7933 14.1483 19.9892L14.4009 20.1092L14.5772 21.3571C14.7299 22.4819 14.7769 22.6904 15.0354 23.4581C15.3468 24.3743 16.0753 26.0709 16.416 26.6648C16.5335 26.8639 16.6275 27.0566 16.6275 27.0913C16.6275 27.1261 16.51 27.2493 16.369 27.3631C15.194 28.3077 13.4374 30.0169 13.0555 30.5951C12.7794 31.0121 12.7677 31.0911 12.9028 31.5776C12.9733 31.8304 13.0555 31.9852 13.2553 32.2348C13.4727 32.497 13.5667 32.6739 13.7547 33.1889C13.9779 33.7986 14.2188 34.7275 14.2188 34.9897C14.2188 35.0592 14.1659 35.2045 14.1013 35.3151C14.0249 35.4446 13.972 35.6532 13.9485 35.9312C13.9133 36.2977 13.9309 36.4367 14.0954 37.0907C14.2247 37.5962 14.3657 38.0037 14.5478 38.3702C14.8357 38.9768 15.0119 39.7192 14.9473 40.0826C14.8709 40.5501 14.5302 41.024 14.0367 41.3589C13.9427 41.4253 13.8017 41.5769 13.7253 41.6938C13.4315 42.1519 13.3317 42.2372 12.5679 42.6416C11.8747 43.0113 11.8159 43.0302 11.3577 43.1218C10.6057 43.2703 10.4353 43.3272 10.1239 43.542C9.70678 43.8327 9.5834 43.9622 9.54228 44.1518C9.50703 44.3098 9.5129 44.3287 9.7009 44.4488C10.1357 44.7363 11.1344 44.9479 13.6607 45.2923C14.8298 45.4534 14.9943 45.4692 15.3644 45.4503C15.711 45.4313 15.7933 45.4155 15.8932 45.346C16.0107 45.267 16.0577 45.2639 16.9859 45.2228C17.5147 45.1975 18.0082 45.1659 18.0787 45.1501C18.2314 45.1122 18.3548 44.8374 18.4488 44.2813C18.5369 43.8011 18.484 43.3525 18.2725 42.7933C18.0669 42.2562 17.9083 41.4916 17.9083 41.024C17.9024 40.6102 18.1727 39.7382 18.4488 39.2706C18.6603 38.9104 19.1127 37.8679 19.5122 36.8095C19.8353 35.9375 19.8588 35.7321 19.7119 35.0055C19.6355 34.6137 19.5768 34.5 19.0363 33.5996C18.3724 32.5065 18.3078 32.3327 18.4312 32.0736C18.5017 31.9315 18.6133 31.8398 19.0774 31.5492C19.3888 31.3565 19.659 31.1985 19.6767 31.1985C19.7002 31.1985 20.1349 31.4607 20.6519 31.783C21.163 32.1052 21.7035 32.437 21.8445 32.5254C22.0972 32.6771 22.9255 33.3342 23.2017 33.5996C23.3544 33.7481 23.6247 33.8492 24.0829 33.9345C24.3355 33.9819 24.6998 34.004 25.675 34.0293C26.6973 34.0545 27.2319 34.0861 28.495 34.1999C30.0049 34.3389 30.093 34.3484 31.4913 34.6106C32.9013 34.876 32.9365 34.8854 33.242 35.0466C33.4065 35.135 33.5475 35.2267 33.5475 35.2488C33.5475 35.3878 33.6944 35.6058 33.8589 35.71C34.0175 35.8111 34.1233 35.8396 34.4875 35.8901C35.1103 35.9786 35.2748 35.9723 35.545 35.8554C35.7624 35.7606 35.78 35.7574 35.9152 35.8048C36.3323 35.9501 36.8493 36.225 37.049 36.4051C37.4897 36.7968 38.2887 37.3213 38.6823 37.4761C39.1523 37.6562 39.6869 37.5677 40.245 37.2139C40.3802 37.1254 40.5564 36.9832 40.6328 36.8979C41.0205 36.4683 40.9383 35.571 40.4565 34.9929C40.2568 34.7559 39.6458 34.3736 38.8879 34.0103C38.318 33.7354 38.13 33.5996 38.13 33.4543C38.13 33.4163 38.2123 33.2552 38.3122 33.0973C38.4884 32.8256 38.4943 32.8034 38.4297 32.6044C38.2769 32.1558 37.754 31.644 37.0902 31.3059C36.6672 31.0879 36.0033 31.0468 35.216 31.189C34.8635 31.2522 34.8518 31.2585 34.6697 31.4639C34.5639 31.5776 34.3113 31.8367 34.1115 32.0357C33.9059 32.2348 33.6944 32.4654 33.6357 32.5475C33.5769 32.6328 33.5123 32.6992 33.4888 32.6992C33.3654 32.6992 32.7662 32.5665 32.5429 32.4907C32.4019 32.4433 31.9789 32.2474 31.6088 32.0515C31.2387 31.8588 30.798 31.6408 30.6335 31.5681C30.2693 31.4102 29.6583 31.2648 29.0767 31.1985C28.6595 31.1511 27.3142 31.129 27.1438 31.1637C27.0792 31.1795 27.0087 31.1448 26.9088 31.0563C26.8265 30.9837 26.7325 30.9078 26.7032 30.8889C26.5269 30.7783 26.1803 30.2791 25.9747 29.8368C25.7573 29.3598 25.5575 28.5731 25.5575 28.1782C25.5575 27.8875 25.7749 27.7106 26.6973 27.2304C27.649 26.7375 27.9252 26.5321 28.2248 26.0962C28.6302 25.499 28.683 25.3316 28.6889 24.5955C28.6889 23.9889 28.6713 23.8815 28.5009 23.3475C28.3717 22.9337 28.2542 22.6841 28.1132 22.4882C27.8488 22.1312 27.8018 21.8753 27.9545 21.6415C28.0662 21.4677 28.0662 21.4677 28.4422 21.4014C28.6478 21.3635 28.8123 21.3224 28.8123 21.3066C28.8064 21.2908 28.636 20.9938 28.4363 20.6463C28.2365 20.2988 27.9957 19.8375 27.8958 19.6195C27.7254 19.2404 27.7195 19.2056 27.7489 18.7159C27.7842 18.2484 27.8077 18.1536 28.0838 17.5312L28.3834 16.8551L28.4657 15.8441C28.542 14.8489 28.5479 14.8268 28.7242 14.5488C28.8769 14.315 28.9768 14.2234 29.2882 14.0212C29.6583 13.7842 29.6759 13.7779 30.0049 13.7526C30.1929 13.74 30.6159 13.7305 30.9449 13.7337L31.55 13.7368L32.0847 13.9485C32.3784 14.0654 32.7015 14.1791 32.8014 14.2012C33.3008 14.3118 34.3818 14.5014 34.7049 14.533C35.1867 14.5835 35.357 14.672 35.6684 15.0385C36.0562 15.4934 36.3969 15.724 37.6542 16.397C38.7234 16.9657 38.8879 17.0699 39.8338 17.7713C40.7973 18.4853 41.3907 18.9592 41.6257 19.2056C41.7079 19.2941 41.7255 19.4142 41.7373 19.9323C41.7549 20.5389 41.7549 20.5547 41.9135 20.7221C42.0075 20.8169 42.1838 21.0665 42.313 21.275C42.4423 21.4867 42.6244 21.7236 42.7184 21.8026C42.8535 21.9195 42.8888 21.9827 42.8888 22.1249C42.8888 22.2639 42.9182 22.3207 43.0239 22.3839C43.1355 22.4566 43.1767 22.4629 43.3118 22.4345C43.5057 22.3966 43.5703 22.3334 43.6232 22.1438C43.6702 21.9827 43.5997 21.8121 43.3823 21.5214C43.2354 21.335 43.2354 21.3224 43.3235 21.2466C43.5174 21.0886 43.8993 21.1707 44.3987 21.474C44.71 21.6604 44.7864 21.7363 44.9157 21.9543L45.0743 22.2165L44.851 22.3966C44.7335 22.4945 44.5808 22.6051 44.5162 22.643C44.4163 22.703 44.4045 22.7283 44.4633 22.7946C44.5103 22.8484 44.5808 22.8736 44.6807 22.8736C44.9039 22.8736 45.4209 22.5988 45.8263 22.2702L46.1612 21.9985L46.1964 21.433C46.2199 20.9843 46.214 20.8485 46.1435 20.76C46.0378 20.6273 45.2799 20.1724 44.9157 20.0271C44.2048 19.7427 42.7008 18.3084 41.5258 16.7919C40.5505 15.5313 39.0348 14.1696 38.0948 13.7147C37.9068 13.6231 37.2605 13.3703 36.6613 13.1555C35.2572 12.6532 33.0952 11.6485 32.6957 11.3104C32.2139 10.906 31.738 10.7607 30.2399 10.5554C29.1883 10.41 28.73 10.3026 28.0485 10.0435C27.4434 9.80975 26.9617 9.70233 26.4035 9.67074C26.0628 9.64863 25.9335 9.62335 25.6457 9.52225C25.4577 9.45591 25.252 9.36112 25.1874 9.31373L25.0699 9.22843L25.2227 9.13365C25.3049 9.07994 25.3872 8.982 25.4107 8.9125C25.44 8.8114 25.4812 8.77981 25.6163 8.75453C25.769 8.7261 25.8043 8.73558 25.9629 8.83351C26.2038 8.97884 26.4212 8.97884 26.8324 8.82404L27.1438 8.7103L27.0263 8.6408C26.9264 8.58077 26.9147 8.5397 26.9323 8.18585C26.9499 7.8636 26.9734 7.78777 27.0557 7.76566C27.2025 7.71827 27.4258 7.81621 27.4728 7.94574C27.5139 8.07527 27.508 8.07211 27.7195 8.00261C28.1014 7.87623 28.1895 7.80673 28.1602 7.66772C28.0897 7.35178 27.9722 7.16222 27.7959 7.06428C27.6667 6.99478 27.6138 6.93159 27.6138 6.86209C27.6138 6.77362 27.6432 6.75151 27.8135 6.7136C27.9252 6.68832 28.072 6.62514 28.1425 6.57143C28.2542 6.48612 28.3012 6.47665 28.5714 6.47665C28.7418 6.47665 29.0532 6.46717 29.2705 6.45769L29.6642 6.43558L29.4115 6.35027C29.0179 6.21442 28.9709 6.07225 29.2705 5.89217L29.4527 5.77843L29.3528 5.6647C29.2353 5.532 29.2764 5.49093 29.6113 5.43722C29.7405 5.41827 29.8463 5.38667 29.8463 5.37088C29.8463 5.35824 29.7405 5.29821 29.6113 5.2445C29.4762 5.18764 29.3234 5.0897 29.2588 5.02651C29.2 4.96016 29.106 4.89066 29.059 4.86854C28.8358 4.76744 29.0649 4.57472 29.435 4.54313C29.576 4.53365 29.576 4.53049 29.3763 4.47362C29.0414 4.37884 28.9768 4.33145 28.9357 4.15453L28.8945 3.98709L28.6948 4.03132C28.5773 4.05659 28.2953 4.07555 27.978 4.07555C27.5492 4.07555 27.4375 4.06607 27.3612 4.01868C27.1027 3.86387 27.367 3.74698 27.8958 3.77857C28.0485 3.78805 28.2483 3.78173 28.3482 3.75961C28.5244 3.72486 28.5244 3.7217 28.3952 3.68695C28.3247 3.66483 28.1602 3.57005 28.025 3.47843L27.79 3.30467L27.978 3.22253C28.3364 3.0614 28.0427 2.98557 27.1673 3.02349C26.756 3.03928 26.662 3.03296 26.4035 2.96978C25.8865 2.84024 25.7162 2.81813 25.5693 2.84656C25.4107 2.88132 25.1228 2.81181 25.064 2.72651C25.017 2.66332 25.2285 2.56222 25.4165 2.55906C25.4812 2.55906 25.769 2.60013 26.0569 2.65384C26.5739 2.74862 26.8853 2.76758 27.1144 2.72019C27.2084 2.69807 27.1967 2.69176 27.0204 2.6728C26.9029 2.66332 26.6797 2.61593 26.521 2.5717C26.3624 2.53063 25.9277 2.45796 25.5517 2.41689C24.7057 2.32211 24.3649 2.34107 23.7715 2.51483C23.3309 2.64121 23.4132 2.64121 22.1207 2.56222C21.8915 2.54959 21.6448 2.54959 21.5625 2.56538C21.4392 2.59066 21.398 2.58118 21.2923 2.50851C21.2218 2.46112 21.1395 2.37898 21.1102 2.32527L21.0514 2.22733L20.9692 2.32527C20.8634 2.45165 20.411 2.66648 20.3053 2.64437C20.2407 2.63173 20.2113 2.56538 20.1995 2.42637L20.1819 2.22733L19.9998 2.32211Z" fill="#044DBA"/>
<path d="M47.812 35.9912L47.7943 45.8894L34.0527 45.9052C23.1311 45.9179 20.3052 45.9305 20.2817 45.9589C20.2641 45.9905 23.0606 46 34.1291 46H48V36.0481C48 27.2272 47.9882 26.0962 47.9118 26.0962C47.8355 26.0962 47.8237 27.224 47.812 35.9912Z" fill="#044DBA"/>
<path d="M1 45.9526C1 45.9937 1.51113 46 5.23588 46C8.99588 46 9.46588 45.9937 9.40125 45.9526C9.33663 45.9115 8.79613 45.9052 5.16538 45.9052C1.49938 45.9052 1 45.9115 1 45.9526Z" fill="#044DBA"/>
<g clip-path="url(#clip1_75_85)">
<path d="M22.5 7.00779L11 16.112V25.875C11 26.414 11.4375 26.8333 12 26.8333H19C19.5 26.8333 19.9375 26.414 19.9375 25.875V20.125C19.9375 19.6458 20.4375 19.1666 20.9375 19.1666H24.9375C25.5 19.1666 25.9375 19.6458 25.9375 20.125V25.875C25.9375 26.414 26.4375 26.8333 26.9375 26.8333H34C34.5 26.8333 35 26.414 35 25.875V16.0521L23.4375 7.00779C23.3125 6.888 23.125 6.8281 23 6.8281C22.8125 6.8281 22.625 6.888 22.5 7.00779ZM40.6875 13.1771L35.5 9.04425V0.778625C35.5 0.359355 35.125 0.0598755 34.75 0.0598755H31.25C30.8125 0.0598755 30.5 0.359355 30.5 0.778625V5.09113L24.875 0.658834C24.375 0.299459 23.6875 0.0598755 23 0.0598755C22.25 0.0598755 21.5625 0.299459 21.0625 0.658834L5.25 13.1771C5.0625 13.2969 4.9375 13.5364 4.9375 13.7161C4.9375 13.8958 5.0625 14.0755 5.125 14.1953L6.75 16.0521C6.875 16.2318 7.0625 16.2916 7.3125 16.2916C7.5 16.2916 7.6875 16.2318 7.8125 16.112L22.5 4.55206C22.625 4.43227 22.8125 4.37238 23 4.37238C23.125 4.37238 23.3125 4.43227 23.4375 4.55206L38.125 16.112C38.25 16.2318 38.4375 16.2916 38.625 16.2916C38.875 16.2916 39.0625 16.2318 39.1875 16.0521L40.8125 14.1953C40.9375 14.0755 41 13.8958 41 13.7161C41 13.5364 40.875 13.2969 40.6875 13.1771Z" fill="#044DBA"/>
</g>
</g>
<defs>
<clipPath id="clip0_75_85">
<rect width="47" height="46" fill="white"/>
</clipPath>
<clipPath id="clip1_75_85">
<rect width="37" height="26.8333" fill="white" transform="translate(4)"/>
</clipPath>
</defs>
</svg>
