<svg width="68" height="60" viewBox="0 0 68 60" fill="none" xmlns="http://www.w3.org/2000/svg">
<path d="M24.0441 40.8769C22.545 41.8891 22.6658 43.4559 24.3139 44.3764C25.9628 45.2975 28.5134 45.2225 30.0121 44.2109L33.1568 42.0878L26.3448 39.3237L24.0441 40.8769Z" fill="black"/>
<path d="M65.3588 1.11224H54.123C53.6316 0.453663 52.5493 0 51.3039 0C51.2728 0 51.2412 0.000392555 51.2097 0.000915963C49.9914 0.0232916 48.9612 0.475254 48.4846 1.11224H37.7748C36.6858 0.679252 35.3887 0.426839 33.9948 0.426839C32.6009 0.426839 31.3037 0.679252 30.2148 1.11224H19.5152C19.0388 0.475123 18.0086 0.0231608 16.7901 0.000915963C15.5049 -0.0230299 14.3794 0.436914 13.8757 1.11224H2.64096C1.18252 1.11224 0 1.83847 0 2.73415V60H5.28192V4.35606H13.4748L13.1462 11.1119C13.0959 12.1447 14.3956 13.014 16.0755 13.0712L25.0558 13.3766V25.7762C22.2704 28.0781 21.743 28.5138 19.0358 30.7508C18.3744 31.2973 18.1085 31.9866 18.3005 32.6572C18.4923 33.3277 19.1249 33.9202 20.0498 34.2955L37.4767 41.367C39.3372 42.1216 41.8386 41.8065 43.0661 40.6657C44.2942 39.5242 43.7828 37.9875 41.9243 37.2331L28.0541 31.6049C30.5503 29.542 29.2479 30.6184 32.9774 27.5365H34.8253L36.5739 32.4178L36.4161 32.5243L43.228 35.2884L43.9458 34.8038C44.8264 34.2092 45.1827 33.3893 44.9014 32.6045L42.8611 26.909V13.3795L51.9243 13.0713C53.6044 13.0141 54.9039 12.1449 54.8538 11.1121L54.5252 4.35606H62.7181V60H68V2.73415C67.9998 1.83847 66.8175 1.11224 65.3588 1.11224ZM48.5617 9.36925L38.5256 9.81703H29.4741L19.4381 9.36925L19.6818 4.35606H27.0531C27.0379 4.47134 27.0279 4.58766 27.0279 4.70543C27.0279 7.06848 30.147 8.98402 33.9948 8.98402C37.8423 8.98402 40.9614 7.06848 40.9614 4.70543C40.9614 4.58766 40.9516 4.47147 40.9365 4.35606H48.3178L48.5617 9.36925Z" fill="black"/>
</svg>
