<svg width="55" height="32" viewBox="0 0 55 32" fill="none" xmlns="http://www.w3.org/2000/svg">
<path d="M5.85259 0.856689L1.90967 0.97815L4.7335 1.09962L3.69314 2.04271L5.32802 1.61759L4.58489 2.10344L6.29844 1.86052L7.92457 1.7069L9.70807 1.67832L12.3133 2.25349L15.653 3.52885L18.9228 4.62203L21.6679 7.41572V7.6265L20.5576 8.50535L19.5173 7.99091C19.5173 7.99091 20.504 8.6022 20.3972 8.28943C20.2667 7.90692 19.379 6.25349 18.6954 5.98677C18.6954 5.98677 17.8023 5.49132 17.1393 5.37946C16.0401 5.19401 14.6896 5.22959 13.5726 5.34921C12.4556 5.46883 10.6785 6.04751 10.6785 6.04751C10.6785 6.04751 9.63261 7.09004 9.78679 7.62657C9.82544 7.76106 9.72911 7.99048 9.72911 7.99048C9.72911 7.99048 9.81338 8.58614 9.86144 8.81065C9.90949 9.03516 10.303 9.29668 10.303 9.29668C10.303 9.29668 9.87056 10.1549 10.084 10.4809C10.6142 10.662 11.3642 10.7534 12.0552 10.7446C12.5741 10.7381 13.0054 10.5708 13.5024 10.5095C13.7563 10.4783 14.0163 10.4498 14.2809 10.4427C14.6656 10.4324 15.0723 10.5331 15.4341 10.4787C15.6634 10.4442 15.7282 10.3052 15.9544 10.2678C16.6839 10.1472 17.8903 10.5526 18.3138 10.2808C18.9536 9.87018 16.7721 8.96263 16.7721 8.96263C16.7721 8.96263 17.3468 9.07121 17.5153 9.1734C17.7005 9.28578 17.7338 9.56994 17.7338 9.56994L17.8825 9.75214L17.6639 9.99507C17.6639 9.99507 15.8784 10.5899 15.3559 10.9954C14.5417 11.6271 14.2455 13.0888 14.2455 13.0888C14.2455 13.0888 13.252 14.2457 13.1265 14.8501C13.0508 15.2145 13.3538 15.9433 13.3538 15.9433C13.3538 15.9433 17.2258 16.4735 19.22 16.6435C20.9313 16.7893 24.422 16.915 24.422 16.915L24.8678 16.8257L24.9378 17.0364L23.6788 18.0974C23.6788 18.0974 21.945 20.9433 20.7063 22.3165C20.3112 22.7545 19.29 23.5918 19.29 23.5918C19.29 23.5918 18.1304 24.4179 17.5852 24.8386C16.8606 25.3978 14.6552 27.3113 14.6552 27.3113C14.6552 27.3113 14.3165 27.2496 14.0657 27.4108C13.6231 27.6952 14.0182 27.843 14.0182 27.843L12.5645 28.532L11.8676 29.3899C11.8676 29.3899 11.0252 29.6833 11.1944 29.8472C11.2339 29.8855 11.4916 29.8758 11.4916 29.8758L10.0841 31.3619C10.0841 31.3619 11.2098 31.6872 11.8676 31.7263C12.5645 31.7678 13.9483 31.5763 13.9483 31.5763C13.9483 31.5763 13.9839 31.1459 14.097 30.9368C14.193 30.7592 14.5428 30.4224 14.5428 30.4224C14.5428 30.4224 14.9595 30.5582 15.1373 30.5117C15.6594 30.3752 15.2859 29.7543 15.2859 29.7543C15.2859 29.7543 16.003 29.6877 16.1777 29.5721C16.36 29.4516 16.1777 29.147 16.1777 29.147C16.1777 29.147 16.9963 28.9244 17.2181 28.7541C17.4424 28.5817 18.3927 28.0381 17.6864 27.8282C17.9395 27.5763 18.7742 27.1428 18.7742 27.1428L20.4791 26.2033C21.3969 25.6974 21.4869 24.9983 22.3412 24.4742C22.7584 24.2183 23.8974 23.8062 23.8974 23.8062C23.8974 23.8062 24.4508 23.2104 24.7892 22.9238C25.6988 22.1532 27.8404 20.6803 27.8404 20.6803C28.8288 19.9536 30.0328 19.3796 30.8041 18.644C31.0594 18.4543 31.7746 18.1296 31.7746 18.1296C31.7746 18.1296 32.3532 18.013 32.6663 18.0081C33.0745 18.0017 33.8553 18.1296 33.8553 18.1296L35.3416 19.6479C35.9456 20.265 36.9254 20.8147 37.4923 21.4377C37.9383 21.928 38.4627 22.956 38.4627 22.956C38.4627 22.956 39.2649 23.4474 39.573 23.7134C40.7322 24.7139 42.3182 26.8393 42.3182 26.8393L42.0209 26.9608C42.0209 26.9608 43.7032 27.7283 44.0317 28.2076C44.2252 28.4899 43.953 29.0864 43.953 29.0864L45.2207 29.7866C45.2207 29.7866 44.8237 29.9972 44.8448 30.1189C44.8739 30.2872 45.518 30.544 45.518 30.544L45.7365 31.3335C45.7365 31.3335 47.3929 31.5922 48.2631 31.605C49.0691 31.6169 50.6412 31.4228 50.6412 31.4228C50.6412 31.4228 50.0514 30.917 49.7495 30.6655C49.408 30.381 49.1548 29.8456 49.1548 29.8456C49.1548 29.8456 48.9128 29.1378 48.7091 28.8149C48.518 28.5119 47.5988 27.9932 47.5988 27.9932L47.2228 27.2037L46.1124 26.2945C46.1124 26.2945 45.4364 25.1731 44.9935 24.6244C44.65 24.199 43.5859 23.4098 43.5859 23.4098L42.764 22.013C42.764 22.013 42.4461 21.1813 42.3182 20.7698C42.1495 20.2269 41.5052 19.1622 41.5052 19.1622C41.2162 18.5908 40.7266 18.0383 40.2375 17.4902C39.9341 17.1503 39.2058 16.4899 39.2058 16.4899C39.0708 16.359 39.2039 16.2034 39.1272 16.0648C38.7639 15.4084 37.3437 14.1821 37.3437 14.1821L34.8957 13.2104C34.8957 13.2104 33.6424 11.8506 32.815 11.2098C31.9772 10.5609 29.9125 9.35568 29.9125 9.35568C29.1405 8.86255 27.6334 8.62077 26.8 8.14457C26.4192 7.927 26.2953 7.6498 25.9782 7.41579C25.5194 7.07714 24.422 6.44405 24.422 6.44405C24.422 6.44405 22.681 4.60344 21.152 3.86289C20.2525 3.42721 17.8126 2.83224 17.8126 2.83224L10.8266 1.16708L5.85206 0.863467L5.85259 0.856689ZM19.3687 12.2848C19.3687 12.2848 20.1853 12.8559 20.7763 13.0743C21.5425 13.3575 23.4516 13.7138 23.4516 13.7138C24.2289 13.8996 24.7724 14.2478 25.0865 14.5927C25.2331 14.7537 25.1651 15.1071 25.1651 15.1071C25.1651 15.1071 24.4989 15.3863 24.3433 15.5644C24.1932 15.7362 24.2734 16.1109 24.2734 16.1109L21.1173 15.9287C20.0499 15.8671 19.1328 15.5818 18.1099 15.4429C17.4766 15.3569 16.1778 15.2286 16.1778 15.2286L15.9505 14.9856C15.9505 14.9856 17.2458 13.5714 18.1798 12.9243C18.5127 12.6937 19.3688 12.2848 19.3688 12.2848L19.3687 12.2848Z" fill="#044DBA"/>
<path d="M35.5625 19.4375L35.2537 19L31.9007 14.25L31.3697 13.4977L31.0274 13.0128L31.4139 12.4802L33.0772 10.1875L33.9387 9L36.1152 6L40.163 6L40.4219 6L42.075 6L42.7917 6L44 6C45.625 6 47 7.375 47 9V10.1875C47 10.6875 46.75 11.125 46.375 11.375C46.2202 11.4989 46.0739 11.6163 45.9311 11.731C45.6771 11.9349 45.4342 12.1299 45.1741 12.3363C45.1634 12.3448 45.1526 12.3533 45.1418 12.3618C44.8101 12.6247 44.4487 12.9071 44 13.2502C43.6287 13.5342 43.1976 13.8596 42.6741 14.25C41.2331 15.3244 39.0916 16.8901 35.5681 19.4334C35.5663 19.4348 35.5644 19.4361 35.5625 19.4375ZM35.5625 19.4375L33.8825 17.11L31.8181 14.25L31.3643 13.6212L31 13.1165L30.9762 13.0835L30.9688 13.0937L30.8727 13.2261L30.6474 13.5367L30.1299 14.25L28.055 17.11L26.375 19.4375M35.5625 19.4375C35.5557 19.4423 35.5489 19.4471 35.5421 19.452C35.3386 19.5966 35.0997 19.7808 34.8364 19.9838C33.717 20.8469 32.1563 22.0503 31 22C29.7865 22.0506 28.2049 20.8331 27.0824 19.9691C26.8174 19.7651 26.578 19.5808 26.375 19.4375M26.375 19.4375L26.6838 19L26.3694 19.4334C26.3712 19.4348 26.3731 19.4361 26.375 19.4375ZM15.5625 13.9375C15.6921 14.0389 15.8247 14.1423 15.9634 14.25C16.495 14.6625 17.1164 15.1372 18 15.7975C19.4442 16.8766 21.5889 18.4518 25.1875 21.0625C25.1907 21.0648 25.1939 21.0671 25.1971 21.0694C25.2028 21.0735 25.2086 21.0776 25.2144 21.0817C25.4239 21.2324 25.6568 21.4106 25.9092 21.6039C27.221 22.608 29.0615 24.0169 30.9104 24.0614L30.7826 27L30.6522 30H18.9191H18.8036H18.7509H18.7034H18C16.3125 30 15 28.6875 15 27L15 14.6875L15.3281 14.25L15.5625 13.9375ZM15.5625 13.9375C15.3125 13.75 15 13.9375 15 14.25V14.6562L15.3179 14.25L15.5625 13.9375ZM36.75 21.0625C36.7469 21.0649 36.7437 21.0672 36.7406 21.0696C36.7349 21.0738 36.7293 21.0781 36.7236 21.0824C36.5672 21.2002 36.3946 21.3349 36.2082 21.4805C34.9175 22.4884 32.9616 24.0157 31.0859 24.0614L31.2083 27L31.3333 30H43.0184H43.1866H43.2341L41.0576 27L36.75 21.0625ZM36.75 21.0625C40.4008 18.4139 42.5553 16.8311 44 15.7507C44.8506 15.1147 45.4551 14.6527 45.9741 14.25C46.1128 14.1423 46.2454 14.0389 46.375 13.9375M36.75 21.0625L41.2031 27L43.4531 30H44C45.625 30 47 28.6875 47 27V14.7708L46.6094 14.25L46.375 13.9375M46.375 13.9375C46.625 13.75 47 13.9375 47 14.25V14.7361L46.6196 14.25L46.375 13.9375ZM15.5625 11.375C15.7173 11.4989 15.8636 11.6163 16.0064 11.731C16.2604 11.9349 16.5033 12.1299 16.7634 12.3363C16.7741 12.3448 16.7849 12.3533 16.7957 12.3618C17.1427 12.6368 17.5221 12.9332 18 13.298C18.357 13.5706 18.769 13.8814 19.2634 14.25C20.7027 15.3231 22.841 16.8866 26.3573 19.4247L28.625 16.25L30.0368 14.25L30.6414 13.3934L30.8144 13.1484L30.9101 13.0128L30.9175 13.0023L30.6072 12.5723L28.8858 10.1875L28.0287 9L25.8633 6L25.8223 6L25.4531 6L21.7745 6L21.5156 6L19.8625 6L19.1458 6L18 6C16.3125 6 15 7.375 15 9V10.1875C15 10.6875 15.1875 11.125 15.5625 11.375ZM28.1949 9L26.0772 6L30.3333 6L31 6L31.6957 6L35.8603 6L33.7426 9L32.9044 10.1875L31.4223 12.2872L31 12.8854L30.9688 12.9297L30.6003 12.4077L29.0331 10.1875L28.1949 9Z" fill="#044DBA" stroke="#044DBA" stroke-width="1000"/>
</svg>
