<svg width="409" height="117" viewBox="0 0 409 117" fill="none" xmlns="http://www.w3.org/2000/svg">
<g filter="url(#filter0_f_40_213)">
<path d="M46.608 94.08V96H35.04V78.96H46.392V80.88H37.2V86.4H45.192V88.2H37.2V94.08H46.608ZM59.9901 96H57.8781V88.992C57.8781 87.664 57.6701 86.696 57.2541 86.088C56.8541 85.464 56.2381 85.152 55.4061 85.152C54.8301 85.152 54.2541 85.296 53.6781 85.584C53.1181 85.872 52.6141 86.264 52.1661 86.76C51.7341 87.24 51.4221 87.8 51.2301 88.44V96H49.1181V83.472H51.0381V86.16C51.5341 85.28 52.2461 84.576 53.1741 84.048C54.1181 83.52 55.1421 83.256 56.2461 83.256C57.2221 83.256 57.9741 83.488 58.5021 83.952C59.0461 84.4 59.4301 85.024 59.6541 85.824C59.8781 86.608 59.9901 87.504 59.9901 88.512V96ZM69.6371 95.376C69.3811 95.488 68.9731 95.648 68.4131 95.856C67.8691 96.064 67.2611 96.168 66.5891 96.168C65.8211 96.168 65.1571 95.96 64.5971 95.544C64.0371 95.112 63.7571 94.448 63.7571 93.552V85.128H62.0531V83.472H63.7571V79.296H65.8691V83.472H68.6771V85.128H65.8691V92.904C65.9011 93.352 66.0531 93.688 66.3251 93.912C66.5971 94.12 66.9171 94.224 67.2851 94.224C67.7011 94.224 68.0851 94.152 68.4371 94.008C68.7891 93.864 69.0211 93.76 69.1331 93.696L69.6371 95.376ZM78.2186 85.32C77.1626 85.336 76.2266 85.608 75.4106 86.136C74.6106 86.648 74.0426 87.36 73.7066 88.272V96H71.5946V83.472H73.5626V86.376C73.9946 85.512 74.5626 84.816 75.2666 84.288C75.9866 83.744 76.7386 83.44 77.5226 83.376C77.6826 83.376 77.8186 83.376 77.9306 83.376C78.0426 83.376 78.1386 83.384 78.2186 83.4V85.32ZM85.5761 96.24C84.3281 96.24 83.2241 95.944 82.2641 95.352C81.3041 94.76 80.5521 93.968 80.0081 92.976C79.4641 91.984 79.1921 90.904 79.1921 89.736C79.1921 88.552 79.4641 87.472 80.0081 86.496C80.5521 85.52 81.3041 84.736 82.2641 84.144C83.2401 83.552 84.3521 83.256 85.6001 83.256C86.8641 83.256 87.9601 83.56 88.8881 84.168C89.8321 84.76 90.5601 85.544 91.0721 86.52C91.6001 87.48 91.8641 88.52 91.8641 89.64C91.8641 89.992 91.8481 90.264 91.8161 90.456H81.4241C81.4881 91.272 81.7121 92 82.0961 92.64C82.4961 93.264 83.0081 93.76 83.6321 94.128C84.2561 94.48 84.9281 94.656 85.6481 94.656C86.4161 94.656 87.1361 94.464 87.8081 94.08C88.4961 93.696 88.9681 93.192 89.2241 92.568L91.0481 93.072C90.6481 94 89.9521 94.76 88.9601 95.352C87.9681 95.944 86.8401 96.24 85.5761 96.24ZM81.3521 88.992H89.8961C89.8321 88.176 89.6001 87.456 89.2001 86.832C88.8001 86.208 88.2881 85.72 87.6641 85.368C87.0401 85.016 86.3521 84.84 85.6001 84.84C84.8641 84.84 84.1841 85.016 83.5601 85.368C82.9361 85.72 82.4241 86.208 82.0241 86.832C81.6401 87.456 81.4161 88.176 81.3521 88.992ZM105.084 96H102.972V88.992C102.972 87.664 102.764 86.696 102.348 86.088C101.948 85.464 101.332 85.152 100.5 85.152C99.9238 85.152 99.3478 85.296 98.7718 85.584C98.2118 85.872 97.7078 86.264 97.2598 86.76C96.8278 87.24 96.5158 87.8 96.3238 88.44V96H94.2118V83.472H96.1318V86.16C96.6278 85.28 97.3398 84.576 98.2678 84.048C99.2118 83.52 100.236 83.256 101.34 83.256C102.316 83.256 103.068 83.488 103.596 83.952C104.14 84.4 104.524 85.024 104.748 85.824C104.972 86.608 105.084 87.504 105.084 88.512V96ZM107.384 92.376C107.384 91.576 107.608 90.888 108.056 90.312C108.52 89.72 109.152 89.264 109.952 88.944C110.752 88.624 111.68 88.464 112.736 88.464C113.296 88.464 113.888 88.512 114.512 88.608C115.136 88.688 115.688 88.816 116.168 88.992V88.08C116.168 87.12 115.88 86.368 115.304 85.824C114.728 85.264 113.912 84.984 112.856 84.984C112.168 84.984 111.504 85.112 110.864 85.368C110.24 85.608 109.576 85.96 108.872 86.424L108.104 84.936C108.92 84.376 109.736 83.96 110.552 83.688C111.368 83.4 112.216 83.256 113.096 83.256C114.696 83.256 115.96 83.704 116.888 84.6C117.816 85.48 118.28 86.712 118.28 88.296V93.6C118.28 94.096 118.504 94.352 118.952 94.368V96C118.744 96.032 118.56 96.056 118.4 96.072C118.256 96.088 118.136 96.096 118.04 96.096C117.544 96.096 117.168 95.96 116.912 95.688C116.672 95.416 116.536 95.128 116.504 94.824L116.456 94.032C115.912 94.736 115.2 95.28 114.32 95.664C113.44 96.048 112.568 96.24 111.704 96.24C110.872 96.24 110.128 96.072 109.472 95.736C108.816 95.384 108.304 94.92 107.936 94.344C107.568 93.752 107.384 93.096 107.384 92.376ZM115.544 93.264C115.736 93.04 115.888 92.816 116 92.592C116.112 92.352 116.168 92.152 116.168 91.992V90.432C115.144 90.032 114.088 89.832 113 89.832C111.928 89.832 111.056 90.048 110.384 90.48C109.728 90.896 109.4 91.472 109.4 92.208C109.4 92.608 109.504 93 109.712 93.384C109.936 93.752 110.256 94.056 110.672 94.296C111.104 94.536 111.632 94.656 112.256 94.656C112.912 94.656 113.536 94.528 114.128 94.272C114.72 94 115.192 93.664 115.544 93.264ZM140.545 96H138.433V88.992C138.433 87.68 138.217 86.712 137.785 86.088C137.369 85.464 136.745 85.152 135.913 85.152C135.065 85.152 134.297 85.464 133.609 86.088C132.921 86.696 132.433 87.488 132.145 88.464V96H130.033V88.992C130.033 87.664 129.825 86.696 129.409 86.088C128.993 85.464 128.369 85.152 127.537 85.152C126.705 85.152 125.937 85.456 125.233 86.064C124.545 86.656 124.057 87.448 123.769 88.44V96H121.657V83.472H123.577V86.16C124.089 85.232 124.753 84.52 125.569 84.024C126.385 83.512 127.305 83.256 128.329 83.256C129.369 83.256 130.201 83.544 130.825 84.12C131.449 84.68 131.833 85.408 131.977 86.304C133.097 84.272 134.689 83.256 136.753 83.256C137.713 83.256 138.465 83.488 139.009 83.952C139.569 84.4 139.961 85.024 140.185 85.824C140.425 86.608 140.545 87.504 140.545 88.512V96ZM143.829 81.12V78.48H145.941V81.12H143.829ZM143.829 96V83.472H145.941V96H143.829ZM154.904 96.24C153.656 96.24 152.552 95.944 151.592 95.352C150.632 94.76 149.88 93.968 149.336 92.976C148.792 91.984 148.52 90.904 148.52 89.736C148.52 88.552 148.792 87.472 149.336 86.496C149.88 85.52 150.632 84.736 151.592 84.144C152.568 83.552 153.68 83.256 154.928 83.256C156.192 83.256 157.288 83.56 158.216 84.168C159.16 84.76 159.888 85.544 160.4 86.52C160.928 87.48 161.192 88.52 161.192 89.64C161.192 89.992 161.176 90.264 161.144 90.456H150.752C150.816 91.272 151.04 92 151.424 92.64C151.824 93.264 152.336 93.76 152.96 94.128C153.584 94.48 154.256 94.656 154.976 94.656C155.744 94.656 156.464 94.464 157.136 94.08C157.824 93.696 158.296 93.192 158.552 92.568L160.376 93.072C159.976 94 159.28 94.76 158.288 95.352C157.296 95.944 156.168 96.24 154.904 96.24ZM150.68 88.992H159.224C159.16 88.176 158.928 87.456 158.528 86.832C158.128 86.208 157.616 85.72 156.992 85.368C156.368 85.016 155.68 84.84 154.928 84.84C154.192 84.84 153.512 85.016 152.888 85.368C152.264 85.72 151.752 86.208 151.352 86.832C150.968 87.456 150.744 88.176 150.68 88.992ZM174.412 96H172.3V88.992C172.3 87.664 172.092 86.696 171.676 86.088C171.276 85.464 170.66 85.152 169.828 85.152C169.252 85.152 168.676 85.296 168.1 85.584C167.54 85.872 167.036 86.264 166.588 86.76C166.156 87.24 165.844 87.8 165.652 88.44V96H163.54V83.472H165.46V86.16C165.956 85.28 166.668 84.576 167.596 84.048C168.54 83.52 169.564 83.256 170.668 83.256C171.644 83.256 172.396 83.488 172.924 83.952C173.468 84.4 173.852 85.024 174.076 85.824C174.3 86.608 174.412 87.504 174.412 88.512V96ZM184.059 95.376C183.803 95.488 183.395 95.648 182.835 95.856C182.291 96.064 181.683 96.168 181.011 96.168C180.243 96.168 179.579 95.96 179.019 95.544C178.459 95.112 178.179 94.448 178.179 93.552V85.128H176.475V83.472H178.179V79.296H180.291V83.472H183.099V85.128H180.291V92.904C180.323 93.352 180.475 93.688 180.747 93.912C181.019 94.12 181.339 94.224 181.707 94.224C182.123 94.224 182.507 94.152 182.859 94.008C183.211 93.864 183.443 93.76 183.555 93.696L184.059 95.376ZM191.324 96.24C190.076 96.24 188.972 95.944 188.012 95.352C187.068 94.744 186.332 93.952 185.804 92.976C185.276 91.984 185.012 90.912 185.012 89.76C185.012 88.592 185.276 87.52 185.804 86.544C186.348 85.552 187.092 84.76 188.036 84.168C188.996 83.56 190.092 83.256 191.324 83.256C192.572 83.256 193.668 83.56 194.612 84.168C195.572 84.76 196.316 85.552 196.844 86.544C197.388 87.52 197.66 88.592 197.66 89.76C197.66 90.912 197.388 91.984 196.844 92.976C196.316 93.952 195.58 94.744 194.636 95.352C193.692 95.944 192.588 96.24 191.324 96.24ZM187.172 89.784C187.172 90.648 187.356 91.432 187.724 92.136C188.108 92.84 188.612 93.4 189.236 93.816C189.86 94.216 190.556 94.416 191.324 94.416C192.092 94.416 192.788 94.208 193.412 93.792C194.052 93.376 194.556 92.816 194.924 92.112C195.308 91.392 195.5 90.6 195.5 89.736C195.5 88.872 195.308 88.088 194.924 87.384C194.556 86.68 194.052 86.12 193.412 85.704C192.788 85.288 192.092 85.08 191.324 85.08C190.556 85.08 189.86 85.296 189.236 85.728C188.612 86.144 188.108 86.704 187.724 87.408C187.356 88.112 187.172 88.904 187.172 89.784Z" fill="#11880E"/>
<path d="M206.626 96V78.96H213.73C214.482 78.96 215.17 79.12 215.794 79.44C216.418 79.744 216.962 80.16 217.426 80.688C217.89 81.2 218.25 81.784 218.506 82.44C218.762 83.08 218.89 83.736 218.89 84.408C218.89 85.336 218.682 86.224 218.266 87.072C217.85 87.904 217.266 88.584 216.514 89.112C215.762 89.624 214.882 89.88 213.874 89.88H208.786V96H206.626ZM208.786 87.96H213.754C214.346 87.96 214.858 87.8 215.29 87.48C215.738 87.16 216.082 86.728 216.322 86.184C216.578 85.64 216.706 85.048 216.706 84.408C216.706 83.736 216.562 83.136 216.274 82.608C215.986 82.064 215.61 81.64 215.146 81.336C214.682 81.032 214.17 80.88 213.61 80.88H208.786V87.96ZM226.553 96.24C225.305 96.24 224.201 95.944 223.241 95.352C222.281 94.76 221.529 93.968 220.985 92.976C220.441 91.984 220.169 90.904 220.169 89.736C220.169 88.552 220.441 87.472 220.985 86.496C221.529 85.52 222.281 84.736 223.241 84.144C224.217 83.552 225.329 83.256 226.577 83.256C227.841 83.256 228.937 83.56 229.865 84.168C230.809 84.76 231.537 85.544 232.049 86.52C232.577 87.48 232.841 88.52 232.841 89.64C232.841 89.992 232.825 90.264 232.793 90.456H222.401C222.465 91.272 222.689 92 223.073 92.64C223.473 93.264 223.985 93.76 224.609 94.128C225.233 94.48 225.905 94.656 226.625 94.656C227.393 94.656 228.113 94.464 228.785 94.08C229.473 93.696 229.945 93.192 230.201 92.568L232.025 93.072C231.625 94 230.929 94.76 229.937 95.352C228.945 95.944 227.817 96.24 226.553 96.24ZM222.329 88.992H230.873C230.809 88.176 230.577 87.456 230.177 86.832C229.777 86.208 229.265 85.72 228.641 85.368C228.017 85.016 227.329 84.84 226.577 84.84C225.841 84.84 225.161 85.016 224.537 85.368C223.913 85.72 223.401 86.208 223.001 86.832C222.617 87.456 222.393 88.176 222.329 88.992ZM241.812 85.32C240.756 85.336 239.82 85.608 239.004 86.136C238.204 86.648 237.636 87.36 237.3 88.272V96H235.188V83.472H237.156V86.376C237.588 85.512 238.156 84.816 238.86 84.288C239.58 83.744 240.332 83.44 241.116 83.376C241.276 83.376 241.412 83.376 241.524 83.376C241.636 83.376 241.732 83.384 241.812 83.4V85.32ZM248.203 96.24C247.163 96.24 246.187 96.072 245.275 95.736C244.363 95.384 243.579 94.864 242.923 94.176L243.739 92.688C244.459 93.36 245.179 93.84 245.899 94.128C246.619 94.416 247.355 94.56 248.107 94.56C248.971 94.56 249.675 94.4 250.219 94.08C250.763 93.744 251.035 93.256 251.035 92.616C251.035 92.152 250.891 91.808 250.603 91.584C250.331 91.36 249.939 91.176 249.427 91.032C248.915 90.872 248.307 90.696 247.603 90.504C246.307 90.136 245.315 89.704 244.627 89.208C243.955 88.696 243.619 87.952 243.619 86.976C243.619 85.792 244.067 84.88 244.963 84.24C245.875 83.584 247.035 83.256 248.443 83.256C250.331 83.256 251.819 83.824 252.907 84.96L251.947 86.424C250.971 85.416 249.763 84.912 248.323 84.912C247.891 84.912 247.467 84.968 247.051 85.08C246.635 85.176 246.291 85.36 246.019 85.632C245.747 85.888 245.611 86.256 245.611 86.736C245.611 87.328 245.851 87.752 246.331 88.008C246.811 88.264 247.515 88.528 248.443 88.8C249.387 89.072 250.203 89.344 250.891 89.616C251.595 89.888 252.139 90.24 252.523 90.672C252.907 91.104 253.099 91.704 253.099 92.472C253.099 93.656 252.651 94.584 251.755 95.256C250.859 95.912 249.675 96.24 248.203 96.24ZM261.098 96.24C259.85 96.24 258.746 95.944 257.786 95.352C256.842 94.744 256.106 93.952 255.578 92.976C255.05 91.984 254.786 90.912 254.786 89.76C254.786 88.592 255.05 87.52 255.578 86.544C256.122 85.552 256.866 84.76 257.81 84.168C258.77 83.56 259.866 83.256 261.098 83.256C262.346 83.256 263.442 83.56 264.386 84.168C265.346 84.76 266.09 85.552 266.618 86.544C267.162 87.52 267.434 88.592 267.434 89.76C267.434 90.912 267.162 91.984 266.618 92.976C266.09 93.952 265.354 94.744 264.41 95.352C263.466 95.944 262.362 96.24 261.098 96.24ZM256.946 89.784C256.946 90.648 257.13 91.432 257.498 92.136C257.882 92.84 258.386 93.4 259.01 93.816C259.634 94.216 260.33 94.416 261.098 94.416C261.866 94.416 262.562 94.208 263.186 93.792C263.826 93.376 264.33 92.816 264.698 92.112C265.082 91.392 265.274 90.6 265.274 89.736C265.274 88.872 265.082 88.088 264.698 87.384C264.33 86.68 263.826 86.12 263.186 85.704C262.562 85.288 261.866 85.08 261.098 85.08C260.33 85.08 259.634 85.296 259.01 85.728C258.386 86.144 257.882 86.704 257.498 87.408C257.13 88.112 256.946 88.904 256.946 89.784ZM280.865 96H278.753V88.992C278.753 87.664 278.545 86.696 278.129 86.088C277.729 85.464 277.113 85.152 276.281 85.152C275.705 85.152 275.129 85.296 274.553 85.584C273.993 85.872 273.489 86.264 273.041 86.76C272.609 87.24 272.297 87.8 272.105 88.44V96H269.993V83.472H271.913V86.16C272.409 85.28 273.121 84.576 274.049 84.048C274.993 83.52 276.017 83.256 277.121 83.256C278.097 83.256 278.849 83.488 279.377 83.952C279.921 84.4 280.305 85.024 280.529 85.824C280.753 86.608 280.865 87.504 280.865 88.512V96ZM283.165 92.376C283.165 91.576 283.389 90.888 283.837 90.312C284.301 89.72 284.933 89.264 285.733 88.944C286.533 88.624 287.461 88.464 288.517 88.464C289.077 88.464 289.669 88.512 290.293 88.608C290.917 88.688 291.469 88.816 291.949 88.992V88.08C291.949 87.12 291.661 86.368 291.085 85.824C290.509 85.264 289.693 84.984 288.637 84.984C287.949 84.984 287.285 85.112 286.645 85.368C286.021 85.608 285.357 85.96 284.653 86.424L283.885 84.936C284.701 84.376 285.517 83.96 286.333 83.688C287.149 83.4 287.997 83.256 288.877 83.256C290.477 83.256 291.741 83.704 292.669 84.6C293.597 85.48 294.061 86.712 294.061 88.296V93.6C294.061 94.096 294.285 94.352 294.733 94.368V96C294.525 96.032 294.341 96.056 294.181 96.072C294.037 96.088 293.917 96.096 293.821 96.096C293.325 96.096 292.949 95.96 292.693 95.688C292.453 95.416 292.317 95.128 292.285 94.824L292.237 94.032C291.693 94.736 290.981 95.28 290.101 95.664C289.221 96.048 288.349 96.24 287.485 96.24C286.653 96.24 285.909 96.072 285.253 95.736C284.597 95.384 284.085 94.92 283.717 94.344C283.349 93.752 283.165 93.096 283.165 92.376ZM291.325 93.264C291.517 93.04 291.669 92.816 291.781 92.592C291.893 92.352 291.949 92.152 291.949 91.992V90.432C290.925 90.032 289.869 89.832 288.781 89.832C287.709 89.832 286.837 90.048 286.165 90.48C285.509 90.896 285.181 91.472 285.181 92.208C285.181 92.608 285.285 93 285.493 93.384C285.717 93.752 286.037 94.056 286.453 94.296C286.885 94.536 287.413 94.656 288.037 94.656C288.693 94.656 289.317 94.528 289.909 94.272C290.501 94 290.973 93.664 291.325 93.264ZM297.486 78.48H299.598V92.76C299.598 93.448 299.694 93.872 299.886 94.032C300.078 94.192 300.31 94.272 300.582 94.272C300.918 94.272 301.238 94.24 301.542 94.176C301.846 94.096 302.102 94.016 302.31 93.936L302.646 95.664C302.294 95.808 301.878 95.928 301.398 96.024C300.918 96.12 300.494 96.168 300.126 96.168C299.31 96.168 298.662 95.936 298.182 95.472C297.718 95.008 297.486 94.36 297.486 93.528V78.48ZM304.306 81.12V78.48H306.418V81.12H304.306ZM304.306 96V83.472H306.418V96H304.306ZM308.853 94.632L316.749 85.008H309.069V83.472H319.125V84.84L311.277 94.464H319.149V96H308.853V94.632ZM320.689 92.376C320.689 91.576 320.913 90.888 321.361 90.312C321.825 89.72 322.457 89.264 323.257 88.944C324.057 88.624 324.985 88.464 326.041 88.464C326.601 88.464 327.193 88.512 327.817 88.608C328.441 88.688 328.993 88.816 329.473 88.992V88.08C329.473 87.12 329.185 86.368 328.609 85.824C328.033 85.264 327.217 84.984 326.161 84.984C325.473 84.984 324.809 85.112 324.169 85.368C323.545 85.608 322.881 85.96 322.177 86.424L321.409 84.936C322.225 84.376 323.041 83.96 323.857 83.688C324.673 83.4 325.521 83.256 326.401 83.256C328.001 83.256 329.265 83.704 330.193 84.6C331.121 85.48 331.585 86.712 331.585 88.296V93.6C331.585 94.096 331.809 94.352 332.257 94.368V96C332.049 96.032 331.865 96.056 331.705 96.072C331.561 96.088 331.441 96.096 331.345 96.096C330.849 96.096 330.473 95.96 330.217 95.688C329.977 95.416 329.841 95.128 329.809 94.824L329.761 94.032C329.217 94.736 328.505 95.28 327.625 95.664C326.745 96.048 325.873 96.24 325.009 96.24C324.177 96.24 323.433 96.072 322.777 95.736C322.121 95.384 321.609 94.92 321.241 94.344C320.873 93.752 320.689 93.096 320.689 92.376ZM328.849 93.264C329.041 93.04 329.193 92.816 329.305 92.592C329.417 92.352 329.473 92.152 329.473 91.992V90.432C328.449 90.032 327.393 89.832 326.305 89.832C325.233 89.832 324.361 90.048 323.689 90.48C323.033 90.896 322.705 91.472 322.705 92.208C322.705 92.608 322.809 93 323.017 93.384C323.241 93.752 323.561 94.056 323.977 94.296C324.409 94.536 324.937 94.656 325.561 94.656C326.217 94.656 326.841 94.528 327.433 94.272C328.025 94 328.497 93.664 328.849 93.264ZM334.146 89.76C334.146 88.576 334.386 87.496 334.866 86.52C335.362 85.528 336.034 84.736 336.882 84.144C337.746 83.552 338.73 83.256 339.834 83.256C340.842 83.256 341.746 83.52 342.546 84.048C343.346 84.576 343.97 85.216 344.418 85.968V78.48H346.53V93.6C346.53 94.096 346.754 94.352 347.202 94.368V96C346.802 96.064 346.49 96.096 346.266 96.096C345.85 96.096 345.482 95.952 345.162 95.664C344.858 95.376 344.706 95.056 344.706 94.704V93.648C344.21 94.448 343.546 95.08 342.714 95.544C341.882 96.008 341.018 96.24 340.122 96.24C338.97 96.24 337.938 95.944 337.026 95.352C336.13 94.744 335.426 93.952 334.914 92.976C334.402 91.984 334.146 90.912 334.146 89.76ZM344.418 91.608V88.008C344.226 87.464 343.914 86.976 343.482 86.544C343.05 86.096 342.562 85.744 342.018 85.488C341.49 85.216 340.962 85.08 340.434 85.08C339.618 85.08 338.898 85.304 338.274 85.752C337.666 86.2 337.186 86.784 336.834 87.504C336.498 88.224 336.33 88.984 336.33 89.784C336.33 90.616 336.514 91.384 336.882 92.088C337.266 92.792 337.786 93.36 338.442 93.792C339.098 94.208 339.826 94.416 340.626 94.416C341.138 94.416 341.666 94.296 342.21 94.056C342.754 93.8 343.234 93.456 343.65 93.024C344.066 92.592 344.322 92.12 344.418 91.608ZM355.528 96.24C354.28 96.24 353.176 95.944 352.216 95.352C351.272 94.744 350.536 93.952 350.008 92.976C349.48 91.984 349.216 90.912 349.216 89.76C349.216 88.592 349.48 87.52 350.008 86.544C350.552 85.552 351.296 84.76 352.24 84.168C353.2 83.56 354.296 83.256 355.528 83.256C356.776 83.256 357.872 83.56 358.816 84.168C359.776 84.76 360.52 85.552 361.048 86.544C361.592 87.52 361.864 88.592 361.864 89.76C361.864 90.912 361.592 91.984 361.048 92.976C360.52 93.952 359.784 94.744 358.84 95.352C357.896 95.944 356.792 96.24 355.528 96.24ZM351.376 89.784C351.376 90.648 351.56 91.432 351.928 92.136C352.312 92.84 352.816 93.4 353.44 93.816C354.064 94.216 354.76 94.416 355.528 94.416C356.296 94.416 356.992 94.208 357.616 93.792C358.256 93.376 358.76 92.816 359.128 92.112C359.512 91.392 359.704 90.6 359.704 89.736C359.704 88.872 359.512 88.088 359.128 87.384C358.76 86.68 358.256 86.12 357.616 85.704C356.992 85.288 356.296 85.08 355.528 85.08C354.76 85.08 354.064 85.296 353.44 85.728C352.816 86.144 352.312 86.704 351.928 87.408C351.56 88.112 351.376 88.904 351.376 89.784Z" fill="#044DBA"/>
</g>
<g filter="url(#filter1_d_40_213)">
<path d="M52.989 62.64V68H20.695V20.43H52.386V25.79H26.725V41.2H49.036V46.225H26.725V62.64H52.989ZM62.6014 20.43L78.3464 60.429L94.0244 20.43H100.389L81.0934 68H75.5994L56.2364 20.43H62.6014ZM139.094 62.64V68H106.8V20.43H138.491V25.79H112.83V41.2H135.141V46.225H112.83V62.64H139.094ZM147.367 68V20.43H167.735C169.834 20.43 171.755 20.8766 173.497 21.77C175.239 22.6186 176.758 23.78 178.053 25.254C179.348 26.6833 180.353 28.3136 181.068 30.145C181.783 31.9316 182.14 33.763 182.14 35.639C182.14 37.8276 181.716 39.9046 180.867 41.87C180.063 43.8353 178.902 45.5103 177.383 46.895C175.909 48.2796 174.167 49.24 172.157 49.776L183.681 68H176.847L165.993 50.915H153.397V68H147.367ZM153.397 45.555H167.802C169.455 45.555 170.884 45.1083 172.09 44.215C173.341 43.277 174.301 42.0486 174.971 40.53C175.686 39.0113 176.043 37.381 176.043 35.639C176.043 33.8523 175.641 32.222 174.837 30.748C174.033 29.2293 172.983 28.0233 171.688 27.13C170.393 26.2366 168.963 25.79 167.4 25.79H153.397V45.555ZM191.116 20.43L205.521 45.22L220.06 20.43H226.626L208.536 50.647V68H202.506V50.513L184.483 20.43H191.116Z" fill="#044DBA"/>
<path d="M233.211 68V20.43H253.579C255.678 20.43 257.599 20.8766 259.341 21.77C261.083 22.6186 262.601 23.78 263.897 25.254C265.192 26.6833 266.197 28.3136 266.912 30.145C267.626 31.9316 267.984 33.763 267.984 35.639C267.984 37.8276 267.559 39.9046 266.711 41.87C265.907 43.8353 264.745 45.5103 263.227 46.895C261.753 48.2796 260.011 49.24 258.001 49.776L269.525 68H262.691L251.837 50.915H239.241V68H233.211ZM239.241 45.555H253.646C255.298 45.555 256.728 45.1083 257.934 44.215C259.184 43.277 260.145 42.0486 260.815 40.53C261.529 39.0113 261.887 37.381 261.887 35.639C261.887 33.8523 261.485 32.222 260.681 30.748C259.877 29.2293 258.827 28.0233 257.532 27.13C256.236 26.2366 254.807 25.79 253.244 25.79H239.241V45.555ZM296.876 68.335C293.079 68.335 289.885 67.6873 287.295 66.392C284.704 65.052 282.627 63.2653 281.064 61.032C279.5 58.754 278.361 56.1856 277.647 53.327C276.932 50.4683 276.575 47.5203 276.575 44.483V20.43H282.605V44.483C282.605 46.8056 282.828 49.0836 283.275 51.317C283.766 53.5056 284.548 55.471 285.62 57.213C286.692 58.955 288.143 60.3396 289.975 61.367C291.806 62.3943 294.084 62.908 296.809 62.908C299.578 62.908 301.878 62.3943 303.71 61.367C305.541 60.295 306.993 58.888 308.065 57.146C309.137 55.3593 309.896 53.3716 310.343 51.183C310.834 48.9943 311.08 46.761 311.08 44.483V20.43H317.11V44.483C317.11 47.699 316.73 50.7586 315.971 53.662C315.256 56.5206 314.095 59.0443 312.487 61.233C310.879 63.4216 308.779 65.1636 306.189 66.459C303.643 67.7096 300.538 68.335 296.876 68.335ZM333.852 31.552V68H327.822V20.43H332.914L361.992 57.615V20.497H368.022V68H362.528L333.852 31.552Z" fill="#11880E"/>
</g>
<defs>
<filter id="filter0_f_40_213" x="33.04" y="76.48" width="330.824" height="21.76" filterUnits="userSpaceOnUse" color-interpolation-filters="sRGB">
<feFlood flood-opacity="0" result="BackgroundImageFix"/>
<feBlend mode="normal" in="SourceGraphic" in2="BackgroundImageFix" result="shape"/>
<feGaussianBlur stdDeviation="1" result="effect1_foregroundBlur_40_213"/>
</filter>
<filter id="filter1_d_40_213" x="0.695007" y="0.429962" width="407.327" height="107.905" filterUnits="userSpaceOnUse" color-interpolation-filters="sRGB">
<feFlood flood-opacity="0" result="BackgroundImageFix"/>
<feColorMatrix in="SourceAlpha" type="matrix" values="0 0 0 0 0 0 0 0 0 0 0 0 0 0 0 0 0 0 127 0" result="hardAlpha"/>
<feOffset dx="10" dy="10"/>
<feGaussianBlur stdDeviation="15"/>
<feComposite in2="hardAlpha" operator="out"/>
<feColorMatrix type="matrix" values="0 0 0 0 0 0 0 0 0 0 0 0 0 0 0 0 0 0 0.6 0"/>
<feBlend mode="normal" in2="BackgroundImageFix" result="effect1_dropShadow_40_213"/>
<feBlend mode="normal" in="SourceGraphic" in2="effect1_dropShadow_40_213" result="shape"/>
</filter>
</defs>
</svg>
